STARTFONT 2.3
FONT -FontForge-Source Code Pro-Bold-R-Normal--28-280-72-72-M-170-ISO10646-1
SIZE 28 72 72  2
FONTBOUNDINGBOX 29 43 -6 -13
COMMENT "Generated by fontforge, http://fontforge.sourceforge.net"
COMMENT "Copyright 2010, 2012 Adobe Systems Incorporated (http://www.adobe.com/), with Reserved Font Name `Source'."
STARTPROPERTIES 41
FOUNDRY "FontForge"
FAMILY_NAME "Source Code Pro"
WEIGHT_NAME "Bold"
SLANT "R"
SETWIDTH_NAME "Normal"
ADD_STYLE_NAME ""
PIXEL_SIZE 28
POINT_SIZE 280
RESOLUTION_X 72
RESOLUTION_Y 72
SPACING "M"
AVERAGE_WIDTH 170
CHARSET_REGISTRY "ISO10646"
CHARSET_ENCODING "1"
FONTNAME_REGISTRY ""
CHARSET_COLLECTIONS "ASCII ISOLatin1Encoding ISO8859-2 ISO8859-5 ISO8859-7 ISO8859-9 ISO8859-4 ISO10646-1"
BITS_PER_PIXEL 2
FONT_NAME "SourceCodePro-Bold"
FACE_NAME "Source Code Pro Bold"
COPYRIGHT "Copyright 2010, 2012 Adobe Systems Incorporated (http://www.adobe.com/), with Reserved Font Name `Source'."
FONT_VERSION "2.030;PS 1.000;hotconv 16.6.51;makeotf.lib2.5.65220"
FONT_ASCENT 21
FONT_DESCENT 7
UNDERLINE_POSITION -3
UNDERLINE_THICKNESS 2
X_HEIGHT 13
CAP_HEIGHT 17
RAW_ASCENT 750
RAW_DESCENT 250
NORM_SPACE 17
RELATIVE_WEIGHT 70
RELATIVE_SETWIDTH 50
SUPERSCRIPT_X 0
SUPERSCRIPT_Y 9
SUPERSCRIPT_SIZE 16
SUBSCRIPT_X 0
SUBSCRIPT_Y 2
SUBSCRIPT_SIZE 16
FIGURE_WIDTH 17
AVG_LOWERCASE_WIDTH 170
AVG_UPPERCASE_WIDTH 170
ENDPROPERTIES
CHARS 1564
STARTCHAR space
ENCODING 32
SWIDTH 600 0
DWIDTH 17 0
BBX 1 1 0 0
BITMAP
00
ENDCHAR
STARTCHAR exclam
ENCODING 33
SWIDTH 600 0
DWIDTH 17 0
BBX 6 18 5 0
BITMAP
2FD0
2FD0
2FD0
1FD0
1FD0
1FC0
1FC0
0FC0
0FC0
0F80
0000
0000
1B80
3FE0
7FF0
7FF0
3FE0
1B80
ENDCHAR
STARTCHAR quotedbl
ENCODING 34
SWIDTH 600 0
DWIDTH 17 0
BBX 13 11 2 8
BITMAP
BFC1FF40
BFC1FF40
BFC1FF40
BFC0FF40
7FC0FF40
7F80FF00
7F80BF00
3F40BF00
3F40BE00
2F007E00
2F007D00
ENDCHAR
STARTCHAR numbersign
ENCODING 35
SWIDTH 600 0
DWIDTH 17 0
BBX 13 18 2 0
BITMAP
01F03D00
02E07C00
02E07C00
03E07C00
7FE5BD40
7FFFFFC0
7FFFFFC0
07C0F500
07C0F400
0B81F000
FFFFFA40
FFFFFF40
FFEBFA40
0F42E000
0F43E000
1F03D000
1F03D000
2F07C000
ENDCHAR
STARTCHAR dollar
ENCODING 36
SWIDTH 600 0
DWIDTH 17 0
BBX 13 24 2 -3
BITMAP
003F0000
003F0000
003F0000
003F0000
02BFE400
1FFFFE00
3FFFFF00
7FC07D00
7F800000
7FE00000
3FFE4000
1FFFF400
02FFFD00
001BFF40
0001FF80
14007F80
7E40BF40
FFFFFF00
7FFFFD00
06FF9000
003F0000
003F0000
003F0000
003F0000
ENDCHAR
STARTCHAR percent
ENCODING 37
SWIDTH 600 0
DWIDTH 17 0
BBX 16 18 0 0
BITMAP
06F80018
1FFF003E
3FFF80BE
7E1FC2F8
7E0BC7E0
7E1FCF80
3FFF8600
1FFF0000
06F80000
00001BE4
00247FFC
00BCBFFE
02F4FC3F
0BD1F82F
3F80FC3F
3E00BFFE
08007FFC
00001BE4
ENDCHAR
STARTCHAR ampersand
ENCODING 38
SWIDTH 600 0
DWIDTH 17 0
BBX 16 18 0 0
BITMAP
006F9000
01FFF400
03FFFC00
07F4FD00
0BF0FD00
07F1FC00
07FBF800
02FFF055
02FFC0BF
0BFF40FE
2FFFD1FD
3FDFFAFC
7F87FFF8
7F81FFF0
3FD0BFFE
2FFFFFFF
0BFFFEFF
01BF901A
ENDCHAR
STARTCHAR quotesingle
ENCODING 39
SWIDTH 600 0
DWIDTH 17 0
BBX 5 11 6 8
BITMAP
FF80
FF80
FF80
FF80
BF80
BF40
BF40
7F00
7F00
3F00
3E00
ENDCHAR
STARTCHAR parenleft
ENCODING 40
SWIDTH 600 0
DWIDTH 17 0
BBX 8 26 5 -5
BITMAP
0028
00BE
01FE
03F8
0BF0
1FD0
2FC0
3F40
7F00
BF00
BE00
FE00
FE00
FE00
FE00
BE00
BF00
7F00
3F40
2FC0
1FD0
0BF0
03F8
01FE
00BE
0028
ENDCHAR
STARTCHAR parenright
ENCODING 41
SWIDTH 600 0
DWIDTH 17 0
BBX 8 26 4 -5
BITMAP
2400
FD00
BF40
3F80
1FD0
0BF0
03F4
02FC
01FC
00FD
00FE
00BE
00BE
00BE
00BE
00FE
00FD
01FC
02FC
03F4
0BF0
1FD0
3F80
BF40
FD00
2400
ENDCHAR
STARTCHAR asterisk
ENCODING 42
SWIDTH 600 0
DWIDTH 17 0
BBX 13 14 2 3
BITMAP
00150000
002E0000
002E0000
003E0000
503E0140
FEBFBF80
BFFFFF80
1BFFF900
01FFD000
02FFD000
07F7F000
0BD1F800
1F40BD00
0A002400
ENDCHAR
STARTCHAR plus
ENCODING 43
SWIDTH 600 0
DWIDTH 17 0
BBX 13 13 2 3
BITMAP
003F0000
003F0000
003F0000
003F0000
003F0000
FFFFFFC0
FFFFFFC0
FFFFFFC0
003F0000
003F0000
003F0000
003F0000
003F0000
ENDCHAR
STARTCHAR comma
ENCODING 44
SWIDTH 600 0
DWIDTH 17 0
BBX 7 13 5 -7
BITMAP
1BD0
7FF4
BFF8
BFFC
7FFC
1BFC
01FC
02F8
07F4
6FE0
BF80
7D00
1000
ENDCHAR
STARTCHAR hyphen
ENCODING 45
SWIDTH 600 0
DWIDTH 17 0
BBX 13 3 2 8
BITMAP
FFFFFFC0
FFFFFFC0
FFFFFFC0
ENDCHAR
STARTCHAR period
ENCODING 46
SWIDTH 600 0
DWIDTH 17 0
BBX 7 7 5 0
BITMAP
1F90
7FF0
BFF4
BFF8
BFF4
7FF0
1B90
ENDCHAR
STARTCHAR slash
ENCODING 47
SWIDTH 600 0
DWIDTH 17 0
BBX 13 24 2 -4
BITMAP
00003F80
00007F00
0000BE00
0000FD00
0001FC00
0002F800
0007F400
000BF000
000FD000
001FC000
002F8000
003F4000
00BF0000
00FE0000
01FC0000
02F80000
03F40000
07F00000
0BE00000
1FD00000
2FC00000
3F400000
7F000000
BE000000
ENDCHAR
STARTCHAR zero
ENCODING 48
SWIDTH 600 0
DWIDTH 17 0
BBX 15 18 1 0
BITMAP
006FE400
02FFFE00
0BFFFF40
1FE47FC0
2FC01FE0
3F800FE0
7F410BF0
7F5FCBF0
7F6FD7F4
7F6FD7F4
7F4B8BF0
7F400BF0
3F800FE0
2FC01FD0
1FE47FC0
0BFFFF40
02FFFE00
006FE400
ENDCHAR
STARTCHAR one
ENCODING 49
SWIDTH 600 0
DWIDTH 17 0
BBX 13 18 2 0
BITMAP
16E54000
3FFFC000
3FFFC000
157FC000
003FC000
003FC000
003FC000
003FC000
003FC000
003FC000
003FC000
003FC000
003FC000
003FC000
003FD540
BFFFFFC0
BFFFFFC0
BFFFFFC0
ENDCHAR
STARTCHAR two
ENCODING 50
SWIDTH 600 0
DWIDTH 17 0
BBX 14 18 1 0
BITMAP
01BF9000
1FFFFD00
7FFFFF00
2F41FF80
09007FC0
00003FC0
00003FC0
00007F80
0000BF40
0002FE00
0007FC00
001FF400
007FD000
01FF4000
0BFD0000
2FFFFFF0
7FFFFFF0
7FFFFFF0
ENDCHAR
STARTCHAR three
ENCODING 51
SWIDTH 600 0
DWIDTH 17 0
BBX 14 18 1 0
BITMAP
01BFE400
1FFFFE00
3FFFFF80
1F40BFC0
04003FD0
00003FC0
0001FF80
00BFFD00
00BFF400
00BFFF40
0001BFD0
00002FE0
00001FF0
14001FE0
3E407FE0
BFFFFFC0
2FFFFE00
06BFE400
ENDCHAR
STARTCHAR four
ENCODING 52
SWIDTH 600 0
DWIDTH 17 0
BBX 15 18 1 0
BITMAP
0003FF40
000BFF40
001FFF40
003FBF40
00BE7F40
01FD7F40
03F87F40
0BF07F40
1FD07F40
2F807F40
7F407F40
FFFFFFF8
FFFFFFF8
FFFFFFF8
00007F40
00007F40
00007F40
00007F40
ENDCHAR
STARTCHAR five
ENCODING 53
SWIDTH 600 0
DWIDTH 17 0
BBX 14 18 1 0
BITMAP
0FFFFFC0
0FFFFFC0
0FFFFFC0
0FE00000
0FE00000
0FE00000
0FE00000
1FFFE800
1FFFFF40
0BFFFFD0
02407FE0
00001FE0
00001FF0
08002FE0
2F40BFD0
7FFFFF80
2FFFFE00
02BFE400
ENDCHAR
STARTCHAR six
ENCODING 54
SWIDTH 600 0
DWIDTH 17 0
BBX 15 18 1 0
BITMAP
001BF900
01FFFFD0
03FFFFD0
0BF90780
1FE00000
2FC00000
3F800000
7F86F900
7FBFFF80
7FFFFFE0
7FF41FF0
3F800BF4
3F800BF4
2FD00BF0
0FF42FE0
07FFFFD0
01FFFF40
002FE800
ENDCHAR
STARTCHAR seven
ENCODING 55
SWIDTH 600 0
DWIDTH 17 0
BBX 14 18 1 0
BITMAP
7FFFFFF0
7FFFFFF0
7FFFFFE0
00002FC0
00007F40
0000FE00
0002FC00
0007F400
000BF000
000FE000
001FD000
002FD000
003FC000
003FC000
007F8000
007F8000
007F8000
00BF8000
ENDCHAR
STARTCHAR eight
ENCODING 56
SWIDTH 600 0
DWIDTH 17 0
BBX 14 18 1 0
BITMAP
006FE400
03FFFF00
0FFFFF80
1FE06FD0
1FC00FD0
1FD01FC0
0FF92F80
07FFFE00
01FFFD00
02FFFF80
1FD6FFD0
2F802FF0
7F400BF0
7F800FF0
3FD02FE0
2FFFFFD0
0BFFFF40
01BFE800
ENDCHAR
STARTCHAR nine
ENCODING 57
SWIDTH 600 0
DWIDTH 17 0
BBX 14 18 1 0
BITMAP
01BF9000
0BFFFD00
1FFFFF40
3FD07FC0
7F802FD0
7F400FE0
7F400FF0
7FD07FF0
3FFFFFF0
1FFFEFF0
02FE4FF0
00000FE0
00001FD0
00003FC0
0A41BF80
2FFFFE00
2FFFF800
02BF9000
ENDCHAR
STARTCHAR colon
ENCODING 58
SWIDTH 600 0
DWIDTH 17 0
BBX 7 16 5 0
BITMAP
1F90
7FF0
BFF4
BFF8
BFF4
7FF0
1B90
0000
0000
1F90
7FF0
BFF4
BFF8
BFF4
7FF0
1B90
ENDCHAR
STARTCHAR semicolon
ENCODING 59
SWIDTH 600 0
DWIDTH 17 0
BBX 7 23 5 -7
BITMAP
1F90
7FF0
BFF4
BFF8
BFF4
7FF0
1B90
0000
0000
0000
1BD0
7FF4
BFF8
BFFC
7FFC
1BFC
01FC
02F8
07F4
6FE0
BF80
7D00
1000
ENDCHAR
STARTCHAR less
ENCODING 60
SWIDTH 600 0
DWIDTH 17 0
BBX 11 15 3 2
BITMAP
000008
0000BC
0007FC
007FF4
06FF80
2FF800
BFD000
BF0000
BFD000
2FF800
06FF80
007FF4
0007FC
0000BC
000008
ENDCHAR
STARTCHAR equal
ENCODING 61
SWIDTH 600 0
DWIDTH 17 0
BBX 13 9 2 5
BITMAP
FFFFFFC0
FFFFFFC0
FFFFFFC0
00000000
00000000
00000000
FFFFFFC0
FFFFFFC0
FFFFFFC0
ENDCHAR
STARTCHAR greater
ENCODING 62
SWIDTH 600 0
DWIDTH 17 0
BBX 12 15 2 2
BITMAP
600000
7D0000
7FD000
1FF900
02FF80
006FF8
0007FE
0001FE
0007FE
007FF8
02FF80
1FF900
7FD000
7D0000
600000
ENDCHAR
STARTCHAR question
ENCODING 63
SWIDTH 600 0
DWIDTH 17 0
BBX 11 19 3 0
BITMAP
06FE40
7FFFE0
FFFFF8
2D0BFC
0003FC
0007F8
001FF0
007FC0
01FE00
02FC00
03F800
000000
000000
02F800
07FD00
0BFE00
0BFE00
07FD00
02F800
ENDCHAR
STARTCHAR at
ENCODING 64
SWIDTH 600 0
DWIDTH 17 0
BBX 15 22 1 -4
BITMAP
002BF800
01FFFF40
07FFFFD0
1FF41BE0
2F8002F0
7F0001F4
BE0005F4
BC01BFF4
FC0BFFF4
F82FFAF4
F83F82F4
F83F02F4
F83F47F4
FC2FFFF4
BD1FFEF4
7E07F4F4
3F400000
2FC00000
0FF40680
07FFFFD0
01FFFF90
001BF900
ENDCHAR
STARTCHAR A
ENCODING 65
SWIDTH 600 0
DWIDTH 17 0
BBX 17 18 0 0
BITMAP
001FFC0000
002FFD0000
003FFE0000
007FBF0000
007F7F4000
00BE3F8000
00FD3FC000
01FD2FD000
02FC1FE000
03F80FF000
07F80FF400
0BFFFFF400
0FFFFFF800
1FFFFFFC00
2FD002FD00
3FC001FE00
7FC001FF00
BF8000FF40
ENDCHAR
STARTCHAR B
ENCODING 66
SWIDTH 600 0
DWIDTH 17 0
BBX 14 18 2 0
BITMAP
FFFFA400
FFFFFE00
FFFFFF40
FF41BF80
FF407FC0
FF407F80
FF41FF40
FFFFFD00
FFFFF800
FFFFFF40
FF407FD0
FF401FE0
FF401FE0
FF402FE0
FF407FD0
FFFFFFC0
FFFFFE00
FFFFE400
ENDCHAR
STARTCHAR C
ENCODING 67
SWIDTH 600 0
DWIDTH 17 0
BBX 15 18 1 0
BITMAP
001AFE40
00BFFFE4
03FFFFF4
0BFD06D0
1FF40000
3FD00000
3FC00000
7FC00000
7F800000
7F800000
7FC00000
7FC00000
3FD00000
2FF40040
0FFD06E0
07FFFFF8
00BFFFE0
001BFE40
ENDCHAR
STARTCHAR D
ENCODING 68
SWIDTH 600 0
DWIDTH 17 0
BBX 14 18 2 0
BITMAP
FFFE4000
FFFFF800
FFFFFE00
FF06FF40
FF00BFC0
FF003FD0
FF002FE0
FF002FE0
FF001FE0
FF001FE0
FF002FE0
FF002FE0
FF003FD0
FF00BFC0
FF06FF40
FFFFFE00
FFFFF800
FFFE4000
ENDCHAR
STARTCHAR E
ENCODING 69
SWIDTH 600 0
DWIDTH 17 0
BBX 13 18 2 0
BITMAP
7FFFFF80
7FFFFF80
7FFFFF80
7F800000
7F800000
7F800000
7F800000
7FFFFD00
7FFFFD00
7FFFFD00
7F800000
7F800000
7F800000
7F800000
7F800000
7FFFFFC0
7FFFFFC0
7FFFFFC0
ENDCHAR
STARTCHAR F
ENCODING 70
SWIDTH 600 0
DWIDTH 17 0
BBX 12 18 3 0
BITMAP
FFFFFF
FFFFFF
FFFFFF
FF0000
FF0000
FF0000
FF0000
FF0000
FFFFFC
FFFFFC
FFFFFC
FF0000
FF0000
FF0000
FF0000
FF0000
FF0000
FF0000
ENDCHAR
STARTCHAR G
ENCODING 71
SWIDTH 600 0
DWIDTH 17 0
BBX 15 18 1 0
BITMAP
001BF900
01FFFFD0
07FFFFD0
1FF90780
2FE00000
7FD00000
7F800000
BF800000
BF80FFF4
BF80FFF4
BF80FFF4
BF8007F4
7FC007F4
3FE007F4
1FF90BF4
0BFFFFF4
01FFFFE0
001BF900
ENDCHAR
STARTCHAR H
ENCODING 72
SWIDTH 600 0
DWIDTH 17 0
BBX 14 18 1 0
BITMAP
7FC00FF0
7FC00FF0
7FC00FF0
7FC00FF0
7FC00FF0
7FC00FF0
7FC00FF0
7FFFFFF0
7FFFFFF0
7FFFFFF0
7FC00FF0
7FC00FF0
7FC00FF0
7FC00FF0
7FC00FF0
7FC00FF0
7FC00FF0
7FC00FF0
ENDCHAR
STARTCHAR I
ENCODING 73
SWIDTH 600 0
DWIDTH 17 0
BBX 13 18 2 0
BITMAP
FFFFFF80
FFFFFF80
FFFFFF80
00BF4000
00BF4000
00BF4000
00BF4000
00BF4000
00BF4000
00BF4000
00BF4000
00BF4000
00BF4000
00BF4000
00BF4000
FFFFFF80
FFFFFF80
FFFFFF80
ENDCHAR
STARTCHAR J
ENCODING 74
SWIDTH 600 0
DWIDTH 17 0
BBX 13 18 2 0
BITMAP
2FFFFF40
2FFFFF40
2FFFFF40
0000BF40
0000BF40
0000BF40
0000BF40
0000BF40
0000BF40
0000BF40
0000BF40
0000BF40
0000BF40
1800FF40
7E42FF00
FFFFFD00
7FFFF400
06FE8000
ENDCHAR
STARTCHAR K
ENCODING 75
SWIDTH 600 0
DWIDTH 17 0
BBX 15 18 2 0
BITMAP
FF002FE0
FF00BFC0
FF01FF40
FF03FD00
FF0BF800
FF1FF000
FF7FD000
FFFFC000
FFFFD000
FFFFF000
FFFBF400
FFD7FC00
FF82FE00
FF01FF00
FF00BF80
FF007FD0
FF002FE0
FF001FF4
ENDCHAR
STARTCHAR L
ENCODING 76
SWIDTH 600 0
DWIDTH 17 0
BBX 13 18 3 0
BITMAP
FF000000
FF000000
FF000000
FF000000
FF000000
FF000000
FF000000
FF000000
FF000000
FF000000
FF000000
FF000000
FF000000
FF000000
FF000000
FFFFFF40
FFFFFF40
FFFFFF40
ENDCHAR
STARTCHAR M
ENCODING 77
SWIDTH 600 0
DWIDTH 17 0
BBX 15 18 1 0
BITMAP
7FC01FF4
7FD02FF4
7FE03FF4
7FF03FF4
7FF47FF4
7EF4BBF4
7EB8F7F4
7E7DF7F4
7F7EF3F4
7F3FE7F4
7F2FD7F4
7F1FC7F4
7F0F87F4
7F0107F4
7F0007F4
7F0007F4
7F0007F4
7F0007F4
ENDCHAR
STARTCHAR N
ENCODING 78
SWIDTH 600 0
DWIDTH 17 0
BBX 13 18 2 0
BITMAP
FF403FC0
FF803FC0
FFC03FC0
FFE03FC0
FFF03FC0
FEF43FC0
FDFC3FC0
FDBD3FC0
FE7E3FC0
FE3F2FC0
FE1FAFC0
FE0FEFC0
FE0BEFC0
FE07FFC0
FE02FFC0
FE01FFC0
FE00FFC0
FE007FC0
ENDCHAR
STARTCHAR O
ENCODING 79
SWIDTH 600 0
DWIDTH 17 0
BBX 15 18 1 0
BITMAP
006FE400
07FFFE00
0FFFFF80
2FF47FE0
3FD01FF0
BF800FF4
BF400BF8
FF400BF8
FF400BF8
FF400BF8
FF400BF8
BF800BF4
7F800FF4
3FD01FF0
2FF47FD0
0FFFFF80
03FFFE00
006FE400
ENDCHAR
STARTCHAR P
ENCODING 80
SWIDTH 600 0
DWIDTH 17 0
BBX 14 18 2 0
BITMAP
FFFFE400
FFFFFE00
FFFFFF80
FF40BFD0
FF402FE0
FF401FE0
FF401FE0
FF402FD0
FF40BFC0
FFFFFF80
FFFFFE00
FFFFA400
FF400000
FF400000
FF400000
FF400000
FF400000
FF400000
ENDCHAR
STARTCHAR Q
ENCODING 81
SWIDTH 600 0
DWIDTH 17 0
BBX 15 23 1 -5
BITMAP
006FE400
03FFFE00
0FFFFF80
2FF47FD0
3FC01FF0
7F800FF4
BF400BF4
BF400BF8
FF4007F8
FF400BF8
FF400BF8
BF800BF4
BF800FF4
7FC01FF0
2FF47FE0
1FFFFFC0
07FFFF00
00BFF800
001FF400
000BFD04
0003FFF8
0000BFFC
00001BF8
ENDCHAR
STARTCHAR R
ENCODING 82
SWIDTH 600 0
DWIDTH 17 0
BBX 14 18 2 0
BITMAP
FFFFA400
FFFFFE00
FFFFFF80
FF01BFC0
FF003FD0
FF002FD0
FF002FD0
FF003FD0
FF01BFC0
FFFFFF40
FFFFFD00
FFFFF400
FF07FC00
FF03FE00
FF01FF40
FF00BF80
FF003FD0
FF002FF0
ENDCHAR
STARTCHAR S
ENCODING 83
SWIDTH 600 0
DWIDTH 17 0
BBX 15 18 1 0
BITMAP
006FF900
02FFFF90
0FFFFFD0
2FE41B80
2FD00100
3FE00000
2FF90000
1FFFE000
07FFFE00
01BFFFD0
000BFFF0
00007FF4
00000FF4
09000FF4
1F901FF0
7FFFFFD0
1FFFFF40
01BFE400
ENDCHAR
STARTCHAR T
ENCODING 84
SWIDTH 600 0
DWIDTH 17 0
BBX 15 18 1 0
BITMAP
FFFFFFFC
FFFFFFFC
FFFFFFFC
002FD000
002FD000
002FD000
002FD000
002FD000
002FD000
002FD000
002FD000
002FD000
002FD000
002FD000
002FD000
002FD000
002FD000
002FD000
ENDCHAR
STARTCHAR U
ENCODING 85
SWIDTH 600 0
DWIDTH 17 0
BBX 14 18 1 0
BITMAP
7FC00FF0
7FC00FF0
7FC00FF0
7FC00FF0
7FC00FF0
7FC00FF0
7FC00FF0
7FC00FF0
7FC00FF0
7FC00FF0
7FC00FF0
7FC00FF0
3FC00FF0
3FD01FE0
2FE47FD0
0FFFFF80
07FFFF00
00AFE400
ENDCHAR
STARTCHAR V
ENCODING 86
SWIDTH 600 0
DWIDTH 17 0
BBX 17 18 0 0
BITMAP
7FC000FF40
3FD001FF00
2FD001FE00
2FE002FD00
1FF003FC00
0FF407F800
0BF40BF400
07F80BF000
03FC0FE000
02FD1FD000
01FE2FD000
00FE2FC000
00BF3F8000
007FBF4000
003FFF0000
002FFE0000
002FFD0000
001FFC0000
ENDCHAR
STARTCHAR W
ENCODING 87
SWIDTH 600 0
DWIDTH 17 0
BBX 17 18 0 0
BITMAP
BF40007F80
BF40007F80
BF80007F40
7F80007F40
7F8150BF00
3F83F0BF00
3F87F4BF00
3F87F8BE00
2FCBF8BE00
2FCFBCBE00
1FCFBDFD00
1FDF7DFD00
1FEF3EFC00
0FEE3FFC00
0FFD2FFC00
0BFD1FF800
0BFC1FF800
0BFC0FF800
ENDCHAR
STARTCHAR X
ENCODING 88
SWIDTH 600 0
DWIDTH 17 0
BBX 16 18 0 0
BITMAP
3FE002FE
1FF403FC
0BF80BF8
07FD0FF0
02FE2FD0
00FF7FC0
007FFF40
003FFE00
001FFD00
002FFD00
007FFF00
00BFBF40
01FE7FC0
03FD2FE0
07F81FF4
0FF40BF8
2FE003FD
7FD002FF
ENDCHAR
STARTCHAR Y
ENCODING 89
SWIDTH 600 0
DWIDTH 17 0
BBX 16 18 0 0
BITMAP
7FC001FF
2FE002FE
1FF003FC
0BF407F8
07F80FF0
03FD1FE0
01FE2FC0
00FF7F80
007FFF00
003FFE00
001FFD00
000FF800
000BF400
000BF400
000BF400
000BF400
000BF400
000BF400
ENDCHAR
STARTCHAR Z
ENCODING 90
SWIDTH 600 0
DWIDTH 17 0
BBX 15 18 1 0
BITMAP
2FFFFFF4
2FFFFFF4
2FFFFFF0
00007FD0
0000FF80
0002FF00
0007FD00
000BF800
002FF000
007FD000
00BF8000
01FF0000
07FD0000
0BF80000
1FF00000
3FFFFFF4
7FFFFFF4
7FFFFFF4
ENDCHAR
STARTCHAR bracketleft
ENCODING 91
SWIDTH 600 0
DWIDTH 17 0
BBX 9 25 5 -5
BITMAP
7FFFC0
7FFFC0
7FFFC0
7E0000
7E0000
7E0000
7E0000
7E0000
7E0000
7E0000
7E0000
7E0000
7E0000
7E0000
7E0000
7E0000
7E0000
7E0000
7E0000
7E0000
7E0000
7E0000
7FFFC0
7FFFC0
7FFFC0
ENDCHAR
STARTCHAR backslash
ENCODING 92
SWIDTH 600 0
DWIDTH 17 0
BBX 13 24 2 -4
BITMAP
BE000000
7F000000
3F400000
2FC00000
1FD00000
0BE00000
07F00000
03F40000
02F80000
01FC0000
00FE0000
00BF0000
003F4000
002F8000
001FC000
000FD000
000BF000
0007F400
0002F800
0001FC00
0000FD00
0000BE00
00007F00
00003F80
ENDCHAR
STARTCHAR bracketright
ENCODING 93
SWIDTH 600 0
DWIDTH 17 0
BBX 9 25 3 -5
BITMAP
FFFF40
FFFF40
FFFF40
003F40
003F40
003F40
003F40
003F40
003F40
003F40
003F40
003F40
003F40
003F40
003F40
003F40
003F40
003F40
003F40
003F40
003F40
003F40
FFFF40
FFFF40
FFFF40
ENDCHAR
STARTCHAR asciicircum
ENCODING 94
SWIDTH 600 0
DWIDTH 17 0
BBX 13 11 2 7
BITMAP
007F4000
00FF8000
01FFC000
02FFD000
03F7E000
07E3F400
0BD2F800
1FC1FC00
2F80FD00
3F40BE00
7F007F40
ENDCHAR
STARTCHAR underscore
ENCODING 95
SWIDTH 600 0
DWIDTH 17 0
BBX 14 3 1 -5
BITMAP
7FFFFFF0
7FFFFFF0
7FFFFFF0
ENDCHAR
STARTCHAR grave
ENCODING 96
SWIDTH 600 0
DWIDTH 17 0
BBX 8 7 3 16
BITMAP
0600
1F80
7FD0
2FF4
07FD
01FD
0020
ENDCHAR
STARTCHAR a
ENCODING 97
SWIDTH 600 0
DWIDTH 17 0
BBX 14 14 1 0
BITMAP
01AFE800
1FFFFF40
1FFFFFC0
0B907FE0
00001FE0
005AFFF0
06FFFFF0
1FFFFFF0
3FE50FF0
7F800FF0
7FD07FF0
3FFFFFF0
1FFFEBF0
06FE07F0
ENDCHAR
STARTCHAR b
ENCODING 98
SWIDTH 600 0
DWIDTH 17 0
BBX 14 20 2 0
BITMAP
FF000000
FF000000
FF000000
FF000000
FF000000
FF000000
FF1BE400
FFBFFE00
FFFFFF40
FFD1BFC0
FF407FD0
FF003FD0
FF002FD0
FF002FD0
FF003FD0
FF407FC0
FFD1FF80
FFFFFF00
FEFFFD00
FD2FE000
ENDCHAR
STARTCHAR c
ENCODING 99
SWIDTH 600 0
DWIDTH 17 0
BBX 13 14 2 0
BITMAP
006FF900
07FFFF80
1FFFFF40
3FE41A00
BFC00000
FF400000
FF000000
FF000000
FF400000
BF800000
7FE41B40
2FFFFFC0
07FFFF80
006FE900
ENDCHAR
STARTCHAR d
ENCODING 100
SWIDTH 600 0
DWIDTH 17 0
BBX 14 20 1 0
BITMAP
00001FE0
00001FE0
00001FE0
00001FE0
00001FE0
00001FE0
01BF5FE0
07FFFFE0
1FFFFFE0
3FE47FE0
7FC01FE0
BF801FE0
BF801FE0
BF801FE0
BF801FE0
7FC02FE0
3FE07FE0
2FFFFFE0
0BFFEFE0
01BE4BE0
ENDCHAR
STARTCHAR e
ENCODING 101
SWIDTH 600 0
DWIDTH 17 0
BBX 15 14 1 0
BITMAP
006FE800
02FFFF40
0BFFFFD0
2FE41FE0
3FC00BF0
7FFFFFF4
7FFFFFF4
7FFFFFF4
7FC00000
3FD00000
2FF80680
0BFFFFD0
02FFFFD0
006FF900
ENDCHAR
STARTCHAR f
ENCODING 102
SWIDTH 600 0
DWIDTH 17 0
BBX 14 20 2 0
BITMAP
0002BFA0
001FFFF0
007FFFF0
00BF9050
00FF4000
00FF0000
BFFFFFC0
BFFFFFC0
BFFFFFC0
00FF0000
00FF0000
00FF0000
00FF0000
00FF0000
00FF0000
00FF0000
00FF0000
00FF0000
00FF0000
00FF0000
ENDCHAR
STARTCHAR g
ENCODING 103
SWIDTH 600 0
DWIDTH 17 0
BBX 15 20 1 -6
BITMAP
00BFFFFC
07FFFFFC
1FFFFFFC
2FE0BFFC
3FC03F40
3FC03F80
2FE5BF80
1FFFFF40
07FFFD00
0FEA9000
2F800000
2FFFFE80
1FFFFFF4
0BFFFFF8
2F0007FC
7F0003FC
BF901BF8
7FFFFFF0
2FFFFF80
06BFE400
ENDCHAR
STARTCHAR h
ENCODING 104
SWIDTH 600 0
DWIDTH 17 0
BBX 13 20 2 0
BITMAP
FF000000
FF000000
FF000000
FF000000
FF000000
FF000000
FF0BF800
FF7FFF00
FFFFFF80
FFE0BFC0
FF803FC0
FF003FC0
FF003FC0
FF003FC0
FF003FC0
FF003FC0
FF003FC0
FF003FC0
FF003FC0
FF003FC0
ENDCHAR
STARTCHAR i
ENCODING 105
SWIDTH 600 0
DWIDTH 17 0
BBX 11 21 2 0
BITMAP
000BD0
002FF0
003FF4
003FF4
001BD0
000000
000000
BFFFF0
BFFFF0
BFFFF0
001FF0
001FF0
001FF0
001FF0
001FF0
001FF0
001FF0
001FF0
001FF0
001FF0
001FF0
ENDCHAR
STARTCHAR j
ENCODING 106
SWIDTH 600 0
DWIDTH 17 0
BBX 12 27 1 -6
BITMAP
0002F4
000BFC
000FFD
000FFD
0006F4
000000
000000
2FFFFC
2FFFFC
2FFFFC
0007FC
0007FC
0007FC
0007FC
0007FC
0007FC
0007FC
0007FC
0007FC
0007FC
0007FC
0007FC
0007F8
141FF4
3FFFF0
BFFFD0
6BF900
ENDCHAR
STARTCHAR k
ENCODING 107
SWIDTH 600 0
DWIDTH 17 0
BBX 14 20 2 0
BITMAP
FF400000
FF400000
FF400000
FF400000
FF400000
FF400000
FF403FD0
FF40FF80
FF42FE00
FF4BF800
FF6FE000
FFBFC000
FFFFD000
FFFFF000
FFFBF800
FFD3FD00
FF41FF00
FF40BF80
FF403FD0
FF401FF0
ENDCHAR
STARTCHAR l
ENCODING 108
SWIDTH 600 0
DWIDTH 17 0
BBX 14 20 1 0
BITMAP
BFFFC000
BFFFC000
BFFFC000
007FC000
007FC000
007FC000
007FC000
007FC000
007FC000
007FC000
007FC000
007FC000
007FC000
007FC000
007FC000
003FC000
003FE040
001FFFE0
000BFFF0
0001BFA0
ENDCHAR
STARTCHAR m
ENCODING 109
SWIDTH 600 0
DWIDTH 17 0
BBX 15 14 1 0
BITMAP
FC7E0BE0
FEFFAFF4
FFFFFFF8
FF9FE3FC
FF0FD3FC
FF0FC3FC
FF0FC3FC
FF0FC3FC
FF0FC3FC
FF0FC3FC
FF0FC3FC
FF0FC3FC
FF0FC3FC
FF0FC3FC
ENDCHAR
STARTCHAR n
ENCODING 110
SWIDTH 600 0
DWIDTH 17 0
BBX 13 14 2 0
BITMAP
FD0BF800
FE7FFF00
FFFFFF80
FFE0BFC0
FF803FC0
FF003FC0
FF003FC0
FF003FC0
FF003FC0
FF003FC0
FF003FC0
FF003FC0
FF003FC0
FF003FC0
ENDCHAR
STARTCHAR o
ENCODING 111
SWIDTH 600 0
DWIDTH 17 0
BBX 15 14 1 0
BITMAP
006FE400
07FFFE00
1FFFFFC0
2FE07FE0
7FC01FF0
BF800FF4
BF800BF4
BF800BF4
BF800FF4
7FC01FF0
2FE07FE0
1FFFFFC0
07FFFE00
006FE400
ENDCHAR
STARTCHAR p
ENCODING 112
SWIDTH 600 0
DWIDTH 17 0
BBX 14 20 2 -6
BITMAP
FD1BE400
FEBFFE00
FFFFFF40
FFD1BFC0
FF407FD0
FF003FD0
FF002FD0
FF002FD0
FF003FD0
FF407FC0
FFD1FF80
FFFFFF00
FFFFFD00
FF2FE000
FF000000
FF000000
FF000000
FF000000
FF000000
FF000000
ENDCHAR
STARTCHAR q
ENCODING 113
SWIDTH 600 0
DWIDTH 17 0
BBX 14 20 1 -6
BITMAP
01BF4BE0
07FFEBE0
1FFFFFE0
3FE47FE0
7FC02FE0
BF801FE0
BF801FE0
BF801FE0
BF801FE0
7FC01FE0
3FE07FE0
2FFFFFE0
0BFFEFE0
01BE5FE0
00001FE0
00001FE0
00001FE0
00001FE0
00001FE0
00001FE0
ENDCHAR
STARTCHAR r
ENCODING 114
SWIDTH 600 0
DWIDTH 17 0
BBX 12 14 3 0
BITMAP
BE06FE
BE2FFF
BFBFFE
BFF901
BFD000
BF8000
BF4000
BF4000
BF4000
BF4000
BF4000
BF4000
BF4000
BF4000
ENDCHAR
STARTCHAR s
ENCODING 115
SWIDTH 600 0
DWIDTH 17 0
BBX 14 14 1 0
BITMAP
006FE900
07FFFF90
1FFFFFD0
2FE01B80
2FE00000
1FFF9000
0BFFFE40
01BFFFD0
0006BFF0
04001FF0
2F901FF0
7FFFFFE0
1FFFFF80
01BFE900
ENDCHAR
STARTCHAR t
ENCODING 116
SWIDTH 600 0
DWIDTH 17 0
BBX 15 18 1 0
BITMAP
007F0000
00BF0000
00BF0000
00FF0000
BFFFFFF0
BFFFFFF0
BFFFFFF0
00FF0000
00FF0000
00FF0000
00FF0000
00FF0000
00FF0000
00FF4000
00BFD050
007FFFF0
002FFFF4
0006FFA0
ENDCHAR
STARTCHAR u
ENCODING 117
SWIDTH 600 0
DWIDTH 17 0
BBX 14 14 1 0
BITMAP
7FC01FE0
7FC01FE0
7FC01FE0
7FC01FE0
7FC01FE0
7FC01FE0
7FC01FE0
7FC01FE0
7FC01FE0
7FC03FE0
3FE0BFE0
2FFFFFE0
1FFFDFE0
06FE0BE0
ENDCHAR
STARTCHAR v
ENCODING 118
SWIDTH 600 0
DWIDTH 17 0
BBX 15 14 1 0
BITMAP
FF4007F8
BF800BF4
7FC00FF0
2FD01FE0
1FE02FD0
0FF03FC0
0BF03F80
07F47F40
03F8BF00
02FCFD00
01FEFC00
00BFF800
007FF400
003FF000
ENDCHAR
STARTCHAR w
ENCODING 119
SWIDTH 600 0
DWIDTH 17 0
BBX 17 14 0 0
BITMAP
BF00007F80
BF40007F40
7F43F07F40
7F87F4BF00
3F8BF8BF00
3F8BF8BF00
3FCFBCFE00
2FCF7CFE00
2FDF7DFD00
1FEF3EFD00
1FFE3FFC00
0FFE2FFC00
0FFD2FF800
0BFD1FF800
ENDCHAR
STARTCHAR x
ENCODING 120
SWIDTH 600 0
DWIDTH 17 0
BBX 15 14 1 0
BITMAP
7FC00FF0
2FE02FE0
0FF47FC0
07FCBF40
02FEFE00
00FFFC00
007FF400
00BFF000
01FFF800
03FEFE00
0BF4FF40
1FE07FC0
3FD02FE0
BF800FF4
ENDCHAR
STARTCHAR y
ENCODING 121
SWIDTH 600 0
DWIDTH 17 0
BBX 15 20 1 -6
BITMAP
FF0003F8
7F8007F4
3FC00BF0
2FD00FE0
0FE01FD0
0BF02FC0
07F43F80
02F87F00
01FCBE00
00FDFD00
007FFC00
003FF800
002FF400
001FF000
001FE000
003FC000
00BF8000
2FFF0000
2FFD0000
3FE00000
ENDCHAR
STARTCHAR z
ENCODING 122
SWIDTH 600 0
DWIDTH 17 0
BBX 13 14 2 0
BITMAP
7FFFFFC0
7FFFFFC0
7FFFFF40
0007FE00
000FF800
002FF000
00BFD000
01FF4000
07FE0000
0FF80000
2FF00000
BFFFFFC0
FFFFFFC0
FFFFFFC0
ENDCHAR
STARTCHAR braceleft
ENCODING 123
SWIDTH 600 0
DWIDTH 17 0
BBX 11 25 3 -5
BITMAP
001BFC
00BFFC
01FFFC
01FD00
01FC00
01FC00
01FC00
01FC00
01FC00
01FC00
07FC00
FFF400
FF9000
FFF400
07FC00
01FC00
01FC00
01FC00
01FC00
01FC00
01FC00
01FD00
01FFFC
00BFFC
001BFC
ENDCHAR
STARTCHAR bar
ENCODING 124
SWIDTH 600 0
DWIDTH 17 0
BBX 5 28 6 -7
BITMAP
7F40
7F40
7F40
7F40
7F40
7F40
7F40
7F40
7F40
7F40
7F40
7F40
7F40
7F40
7F40
7F40
7F40
7F40
7F40
7F40
7F40
7F40
7F40
7F40
7F40
7F40
7F40
7F40
ENDCHAR
STARTCHAR braceright
ENCODING 125
SWIDTH 600 0
DWIDTH 17 0
BBX 11 25 3 -5
BITMAP
FF9000
FFF800
FFFC00
02FD00
00FD00
00FD00
00FC00
00FC00
01FC00
01FC00
00FF40
007FFC
001BFC
007FFC
00FF40
01FC00
01FC00
00FC00
00FC00
00FD00
00FD00
02FD00
FFFC00
FFF800
FF9000
ENDCHAR
STARTCHAR asciitilde
ENCODING 126
SWIDTH 600 0
DWIDTH 17 0
BBX 14 5 1 7
BITMAP
02F801D0
0FFF47F0
2FFFFFE0
7F0BFF80
2D01BE00
ENDCHAR
STARTCHAR uni00A0
ENCODING 160
SWIDTH 600 0
DWIDTH 17 0
BBX 1 1 0 0
BITMAP
00
ENDCHAR
STARTCHAR exclamdown
ENCODING 161
SWIDTH 600 0
DWIDTH 17 0
BBX 6 20 5 -6
BITMAP
1B80
3FE0
7FF0
7FF0
3FE0
1B80
0000
0000
0F80
0FC0
0FC0
1FC0
1FC0
1FC0
1FD0
1FD0
2FD0
2FD0
2FD0
2FD0
ENDCHAR
STARTCHAR cent
ENCODING 162
SWIDTH 600 0
DWIDTH 17 0
BBX 13 20 2 -1
BITMAP
0007C000
0007C000
0007C000
006FF900
02FFFF40
0BFFFE00
1FF7D800
3FD7C000
7FC7C000
7F87C000
7F87C000
3FC7C000
3FD7C000
2FF7D900
0FFFFF00
02FFFF40
006FF900
0007C000
0007C000
0007C000
ENDCHAR
STARTCHAR sterling
ENCODING 163
SWIDTH 600 0
DWIDTH 17 0
BBX 14 18 2 0
BITMAP
002BF900
01FFFF80
07FFFF80
0BF90A00
0FF00000
1FE00000
0FE00000
0FF00000
FFFFF800
FFFFF800
FFFFF800
03F80000
03F80000
07F40000
0FE00000
7FFFFFD0
FFFFFFD0
FFFFFFD0
ENDCHAR
STARTCHAR currency
ENCODING 164
SWIDTH 600 0
DWIDTH 17 0
BBX 15 15 1 2
BITMAP
14000040
7D0002F0
BFAFEBF4
2FFFFFE0
0FFFFF80
1FF47FC0
2FD01FD0
2FC01FD0
2FD01FD0
1FE47FC0
0FFFFF80
2FFFFFD0
BFAFEBF4
7D0002F4
14000090
ENDCHAR
STARTCHAR yen
ENCODING 165
SWIDTH 600 0
DWIDTH 17 0
BBX 15 18 1 0
BITMAP
FF4007F8
7F800FF0
2FD01FE0
1FE02FC0
0BF07F40
03F4BF00
02FCFD00
00FEFC00
6AFFFAA0
7FFFFFF4
7FFFFFF4
556FE550
002FD000
6ABFEAA0
7FFFFFF4
7FFFFFF4
556FE550
002FD000
ENDCHAR
STARTCHAR brokenbar
ENCODING 166
SWIDTH 600 0
DWIDTH 17 0
BBX 5 28 6 -7
BITMAP
7F40
7F40
7F40
7F40
7F40
7F40
7F40
7F40
7F40
7F40
7F40
7F40
1500
0000
0000
1500
7F40
7F40
7F40
7F40
7F40
7F40
7F40
7F40
7F40
7F40
7F40
7F40
ENDCHAR
STARTCHAR section
ENCODING 167
SWIDTH 600 0
DWIDTH 17 0
BBX 13 21 2 -2
BITMAP
01BF9000
0BFFFD00
1FFFFC00
1FD0B400
1FD00000
1FF90000
0FFF9000
3FFFF800
BF1FFE00
FD01FF40
FE003F80
BFD02F80
3FFD7F80
0BFFFF00
01BFF800
001BFC00
0402FC00
1E43FC00
7FFFF800
2FFFF000
06FE4000
ENDCHAR
STARTCHAR dieresis
ENCODING 168
SWIDTH 600 0
DWIDTH 17 0
BBX 11 5 3 16
BITMAP
2E02E0
BF4BF8
FF4BF8
BF4BF8
2E02E0
ENDCHAR
STARTCHAR copyright
ENCODING 169
SWIDTH 600 0
DWIDTH 17 0
BBX 17 18 0 0
BITMAP
001BF90000
01FFFF8000
07E407F000
0F4000B800
2E06A42D00
3C2FFD1E00
787FFD0F00
74FE580B00
74FC000B40
74FC000B40
74FE140B00
78BFFD0F00
3C2FFE1E00
1E06E42D00
0F4000B800
07E407F000
01FFFF8000
001BF90000
ENDCHAR
STARTCHAR ordfeminine
ENCODING 170
SWIDTH 600 0
DWIDTH 17 0
BBX 9 10 4 10
BITMAP
0BF900
7FFF00
7FFF80
241F80
06FFC0
7FFFC0
BD1FC0
FFFFC0
BFFBC0
2F8BC0
ENDCHAR
STARTCHAR guillemotleft
ENCODING 171
SWIDTH 600 0
DWIDTH 17 0
BBX 14 13 1 1
BITMAP
00A00180
02F407F0
0BF01FD0
2FD07F80
BF81FF00
BF01FD00
BD01F800
BF01FD00
BF81FF00
2FD07F80
0BF01FD0
02F407F0
00A00180
ENDCHAR
STARTCHAR logicalnot
ENCODING 172
SWIDTH 600 0
DWIDTH 17 0
BBX 13 8 2 3
BITMAP
FFFFFFC0
FFFFFFC0
FFFFFFC0
00001FC0
00001FC0
00001FC0
00001FC0
00001FC0
ENDCHAR
STARTCHAR uni00AD
ENCODING 173
SWIDTH 600 0
DWIDTH 17 0
BBX 13 3 2 8
BITMAP
FFFFFFC0
FFFFFFC0
FFFFFFC0
ENDCHAR
STARTCHAR registered
ENCODING 174
SWIDTH 600 0
DWIDTH 17 0
BBX 11 11 3 9
BITMAP
06FE00
1D06D0
75A4B0
A3FE38
D3EE28
D38E2C
D3FC28
A39D38
7545B0
1D06D0
06FE00
ENDCHAR
STARTCHAR macron
ENCODING 175
SWIDTH 600 0
DWIDTH 17 0
BBX 9 3 4 16
BITMAP
BFFF80
BFFF80
BFFF80
ENDCHAR
STARTCHAR degree
ENCODING 176
SWIDTH 600 0
DWIDTH 17 0
BBX 9 9 4 10
BITMAP
07E400
2FFD00
7FFF00
BD1F40
B80B40
BD1F40
7FFF00
2FFD00
07E400
ENDCHAR
STARTCHAR plusminus
ENCODING 177
SWIDTH 600 0
DWIDTH 17 0
BBX 13 16 2 0
BITMAP
003F0000
003F0000
003F0000
003F0000
003F0000
FFFFFFC0
FFFFFFC0
FFFFFFC0
003F0000
003F0000
003F0000
00000000
00000000
FFFFFFC0
FFFFFFC0
FFFFFFC0
ENDCHAR
STARTCHAR two.sups
ENCODING 178
SWIDTH 600 0
DWIDTH 17 0
BBX 9 11 4 11
BITMAP
1BE400
7FFE00
FFFF40
B47F40
002F00
003E00
01F800
0BD000
7FFF80
BFFF80
BFFF80
ENDCHAR
STARTCHAR three.sups
ENCODING 179
SWIDTH 600 0
DWIDTH 17 0
BBX 9 12 4 10
BITMAP
0BF400
7FFE00
BFFF40
242F40
006F00
03FD00
03FE00
002F80
B41F80
FFFF80
7FFF00
1BF800
ENDCHAR
STARTCHAR acute
ENCODING 180
SWIDTH 600 0
DWIDTH 17 0
BBX 7 7 6 16
BITMAP
0080
02F0
0BFC
1FF4
7FD0
7F00
1800
ENDCHAR
STARTCHAR uni00B5
ENCODING 181
SWIDTH 600 0
DWIDTH 17 0
BBX 16 20 1 -6
BITMAP
7FC01FE0
7FC01FE0
7FC01FE0
7FC01FE0
7FC01FE0
7FC01FD0
7FC01FD0
7FC01FD0
7FC02FD0
7FC03FD0
7FE0BFE0
7FFFFFF8
7FFFDBFC
7FAE42FD
7F800000
7F800000
7F800000
7F800000
7FC00000
7FC00000
ENDCHAR
STARTCHAR paragraph
ENCODING 182
SWIDTH 600 0
DWIDTH 17 0
BBX 14 21 1 -3
BITMAP
01BF5FE0
0BFF5FE0
2FFF5FE0
7FFF5FE0
7FFF5FE0
BFFF5FE0
BFFF5FE0
BFFF5FE0
7FFF5FE0
3FFF5FE0
1FFF5FE0
07FF5FE0
006A1FE0
00001FE0
00001FE0
00001FE0
00001FE0
00001FE0
00001FE0
00001FE0
00001FE0
ENDCHAR
STARTCHAR periodcentered
ENCODING 183
SWIDTH 600 0
DWIDTH 17 0
BBX 7 7 5 7
BITMAP
1F90
7FF0
BFF4
BFF8
BFF4
7FF0
1B90
ENDCHAR
STARTCHAR cedilla
ENCODING 184
SWIDTH 600 0
DWIDTH 17 0
BBX 6 7 5 -7
BITMAP
0F80
1F00
2F90
07F0
07F0
BFE0
BA40
ENDCHAR
STARTCHAR one.sups
ENCODING 185
SWIDTH 600 0
DWIDTH 17 0
BBX 10 11 4 11
BITMAP
01FC00
3FFC00
3FFC00
00FC00
00FC00
00FC00
00FC00
00FC00
7FFFF0
7FFFF0
7FFFF0
ENDCHAR
STARTCHAR ordmasculine
ENCODING 186
SWIDTH 600 0
DWIDTH 17 0
BBX 10 10 3 10
BITMAP
02FD00
0FFF80
2FFFD0
3F47F0
7E03F0
7E03F0
3F47F0
2FFFD0
0FFF80
02FD00
ENDCHAR
STARTCHAR guillemotright
ENCODING 187
SWIDTH 600 0
DWIDTH 17 0
BBX 14 13 2 1
BITMAP
60009000
FC02F400
BF41FE00
3FD0BF80
1FF02FE0
07F40FE0
03F40BE0
07F40FE0
1FF02FE0
3FD0BF80
BF41FE00
FC02F400
60009000
ENDCHAR
STARTCHAR onequarter
ENCODING 188
SWIDTH 600 0
DWIDTH 17 0
BBX 16 18 1 0
BITMAP
07E00060
7FE000F8
7FE002F8
07E00BE0
07E01F80
07E03E00
07E01800
07E00000
07E00000
00001900
00903E00
02F07D50
0BD0F5F4
3F41F1F4
FE03FFFE
F803FFFE
200001F4
000001F4
ENDCHAR
STARTCHAR onehalf
ENCODING 189
SWIDTH 600 0
DWIDTH 17 0
BBX 15 18 1 0
BITMAP
07E00060
7FE000F8
7FE002F8
07E00BE0
07E01F80
07E03E00
07E01800
07E00000
07E00000
00002F90
0090BFF4
02F1FFF8
0BD061F8
3F4002F0
FE000BC0
F8007FFC
2001FFFC
0001FFFC
ENDCHAR
STARTCHAR threequarters
ENCODING 190
SWIDTH 600 0
DWIDTH 17 0
BBX 16 18 1 0
BITMAP
2FD00020
FFF400BC
BFF802FC
11F807F0
0BE01F80
5FF83E00
FFFC1800
FFFC0000
2FE00000
00001900
00903E00
02F07D50
0BD0F5F4
2F81F1F4
BE03FFFE
BC03FFFE
240001F4
000001F4
ENDCHAR
STARTCHAR questiondown
ENCODING 191
SWIDTH 600 0
DWIDTH 17 0
BBX 11 20 3 -6
BITMAP
00BD00
02FF40
03FF80
03FF80
02FF40
00BD00
000000
000000
00FE00
01FE00
02FD00
0BF800
2FE000
BF8000
FF0000
FF0000
FF41E0
BFFFF8
2FFFF4
06FE40
ENDCHAR
STARTCHAR Agrave
ENCODING 192
SWIDTH 600 0
DWIDTH 17 0
BBX 17 25 0 0
BITMAP
0009000000
002F400000
007FE00000
001FF80000
0002F80000
0000600000
0000000000
001FFC0000
002FFD0000
003FFE0000
007FBF0000
007F7F4000
00BE3F8000
00FD3FC000
01FD2FD000
02FC1FE000
03F80FF000
07F80FF400
0BFFFFF400
0FFFFFF800
1FFFFFFC00
2FD002FD00
3FC001FE00
7FC001FF00
BF8000FF40
ENDCHAR
STARTCHAR Aacute
ENCODING 193
SWIDTH 600 0
DWIDTH 17 0
BBX 17 25 0 0
BITMAP
0000180000
0000BE0000
0002FF4000
000BFD0000
000FE00000
0002400000
0000000000
001FFC0000
002FFD0000
003FFE0000
007FBF0000
007F7F4000
00BE3F8000
00FD3FC000
01FD2FD000
02FC1FE000
03F80FF000
07F80FF400
0BFFFFF400
0FFFFFF800
1FFFFFFC00
2FD002FD00
3FC001FE00
7FC001FF00
BF8000FF40
ENDCHAR
STARTCHAR Acircumflex
ENCODING 194
SWIDTH 600 0
DWIDTH 17 0
BBX 17 23 0 0
BITMAP
001FFC0000
007FFF0000
00FD2F8000
0064064000
0000000000
001FFC0000
002FFD0000
003FFE0000
007FBF0000
007F7F4000
00BE3F8000
00FD3FC000
01FD2FD000
02FC1FE000
03F80FF000
07F80FF400
0BFFFFF400
0FFFFFF800
1FFFFFFC00
2FD002FD00
3FC001FE00
7FC001FF00
BF8000FF40
ENDCHAR
STARTCHAR Atilde
ENCODING 195
SWIDTH 600 0
DWIDTH 17 0
BBX 17 24 0 0
BITMAP
007E42A000
01FFD3E000
02FFFFE000
03F2FFC000
02907E4000
0000000000
001FFC0000
002FFD0000
003FFE0000
007FBF0000
007F7F4000
00BE3F8000
00FD3FC000
01FD2FD000
02FC1FE000
03F80FF000
07F80FF400
0BFFFFF400
0FFFFFF800
1FFFFFFC00
2FD002FD00
3FC001FE00
7FC001FF00
BF8000FF40
ENDCHAR
STARTCHAR Adieresis
ENCODING 196
SWIDTH 600 0
DWIDTH 17 0
BBX 17 24 0 0
BITMAP
00B80B8000
02FD1FD000
02FD1FD000
00B80B8000
0000000000
0000000000
001FFC0000
002FFD0000
003FFE0000
007FBF0000
007F7F4000
00BE3F8000
00FD3FC000
01FD2FD000
02FC1FE000
03F80FF000
07F80FF400
0BFFFFF400
0FFFFFF800
1FFFFFFC00
2FD002FD00
3FC001FE00
7FC001FF00
BF8000FF40
ENDCHAR
STARTCHAR Aring
ENCODING 197
SWIDTH 600 0
DWIDTH 17 0
BBX 17 25 0 0
BITMAP
0007E40000
001FFD0000
002D2E0000
002D2E0000
001FFD0000
0007E40000
0000000000
001FFC0000
002FFD0000
003FFE0000
007FBF0000
007F7F4000
00BE3F8000
00FD3FC000
01FD2FD000
02FC1FE000
03F80FF000
07F80FF400
0BFFFFF400
0FFFFFF800
1FFFFFFC00
2FD002FD00
3FC001FE00
7FC001FF00
BF8000FF40
ENDCHAR
STARTCHAR AE
ENCODING 198
SWIDTH 600 0
DWIDTH 17 0
BBX 17 18 0 0
BITMAP
000FFFFF40
001FFFFF40
003FFFFF40
007FBF4000
00BFBF4000
00FF7F4000
01FE7F4000
02FD7FFE00
03FC7FFE00
07F87FFE00
0BF87F4000
0FFFFF4000
1FFFFF4000
2FFFFF4000
3FD07F4000
7FC07FFF80
BF807FFF80
FF407FFF80
ENDCHAR
STARTCHAR Ccedilla
ENCODING 199
SWIDTH 600 0
DWIDTH 17 0
BBX 15 25 1 -7
BITMAP
001AFE40
00BFFFE4
03FFFFF4
0BFD06D0
1FF40000
3FD00000
3FC00000
7FC00000
7F800000
7F800000
7FC00000
7FC00000
3FD00000
2FF40040
0FFD06E0
07FFFFF8
00BFFFE0
001BFE40
0002E000
0003D000
000BF400
0001FC00
0001FD00
001FF800
001F9000
ENDCHAR
STARTCHAR Egrave
ENCODING 200
SWIDTH 600 0
DWIDTH 17 0
BBX 13 25 2 0
BITMAP
00600000
01F80000
02FF4000
00BFD000
001FD000
00028000
00000000
7FFFFF80
7FFFFF80
7FFFFF80
7F800000
7F800000
7F800000
7F800000
7FFFFD00
7FFFFD00
7FFFFD00
7F800000
7F800000
7F800000
7F800000
7F800000
7FFFFFC0
7FFFFFC0
7FFFFFC0
ENDCHAR
STARTCHAR Eacute
ENCODING 201
SWIDTH 600 0
DWIDTH 17 0
BBX 13 25 2 0
BITMAP
00009000
0002F400
001FFC00
007FE000
007F4000
00180000
00000000
7FFFFF80
7FFFFF80
7FFFFF80
7F800000
7F800000
7F800000
7F800000
7FFFFD00
7FFFFD00
7FFFFD00
7F800000
7F800000
7F800000
7F800000
7F800000
7FFFFFC0
7FFFFFC0
7FFFFFC0
ENDCHAR
STARTCHAR Ecircumflex
ENCODING 202
SWIDTH 600 0
DWIDTH 17 0
BBX 13 23 2 0
BITMAP
00BFE000
01FFF800
07F4BD00
02802800
00000000
7FFFFF80
7FFFFF80
7FFFFF80
7F800000
7F800000
7F800000
7F800000
7FFFFD00
7FFFFD00
7FFFFD00
7F800000
7F800000
7F800000
7F800000
7F800000
7FFFFFC0
7FFFFFC0
7FFFFFC0
ENDCHAR
STARTCHAR Edieresis
ENCODING 203
SWIDTH 600 0
DWIDTH 17 0
BBX 13 24 2 0
BITMAP
07D07D00
0FF0BF00
0FF0BF00
07D07D00
00000000
00000000
7FFFFF80
7FFFFF80
7FFFFF80
7F800000
7F800000
7F800000
7F800000
7FFFFD00
7FFFFD00
7FFFFD00
7F800000
7F800000
7F800000
7F800000
7F800000
7FFFFFC0
7FFFFFC0
7FFFFFC0
ENDCHAR
STARTCHAR Igrave
ENCODING 204
SWIDTH 600 0
DWIDTH 17 0
BBX 13 25 2 0
BITMAP
00900000
02F40000
07FE0000
01FF8000
002F8000
00060000
00000000
FFFFFF80
FFFFFF80
FFFFFF80
00BF4000
00BF4000
00BF4000
00BF4000
00BF4000
00BF4000
00BF4000
00BF4000
00BF4000
00BF4000
00BF4000
00BF4000
FFFFFF80
FFFFFF80
FFFFFF80
ENDCHAR
STARTCHAR Iacute
ENCODING 205
SWIDTH 600 0
DWIDTH 17 0
BBX 13 25 2 0
BITMAP
00018000
000BE000
002FF400
00BFD000
00FE0000
00240000
00000000
FFFFFF80
FFFFFF80
FFFFFF80
00BF4000
00BF4000
00BF4000
00BF4000
00BF4000
00BF4000
00BF4000
00BF4000
00BF4000
00BF4000
00BF4000
00BF4000
FFFFFF80
FFFFFF80
FFFFFF80
ENDCHAR
STARTCHAR Icircumflex
ENCODING 206
SWIDTH 600 0
DWIDTH 17 0
BBX 13 23 2 0
BITMAP
01FFC000
07FFF000
0FD2F800
06406400
00000000
FFFFFF80
FFFFFF80
FFFFFF80
00BF4000
00BF4000
00BF4000
00BF4000
00BF4000
00BF4000
00BF4000
00BF4000
00BF4000
00BF4000
00BF4000
00BF4000
FFFFFF80
FFFFFF80
FFFFFF80
ENDCHAR
STARTCHAR Idieresis
ENCODING 207
SWIDTH 600 0
DWIDTH 17 0
BBX 13 24 2 0
BITMAP
0B80B800
2FD1FD00
2FD1FD00
0B80B800
00000000
00000000
FFFFFF80
FFFFFF80
FFFFFF80
00BF4000
00BF4000
00BF4000
00BF4000
00BF4000
00BF4000
00BF4000
00BF4000
00BF4000
00BF4000
00BF4000
00BF4000
FFFFFF80
FFFFFF80
FFFFFF80
ENDCHAR
STARTCHAR Eth
ENCODING 208
SWIDTH 600 0
DWIDTH 17 0
BBX 16 18 0 0
BITMAP
0FFFE400
0FFFFF80
0FFFFFE0
0FF06FF4
0FF00BFC
0FF003FD
0FF002FE
BFFFC2FE
FFFFC1FE
FFFFC1FE
0FF002FE
0FF002FE
0FF003FD
0FF00BFC
0FF06FF4
0FFFFFE0
0FFFFF40
0FFFE400
ENDCHAR
STARTCHAR Ntilde
ENCODING 209
SWIDTH 600 0
DWIDTH 17 0
BBX 13 24 2 0
BITMAP
06F41A00
0FFE2F00
2FFFFF00
2F5FFD00
1A02F400
00000000
FF403FC0
FF803FC0
FFC03FC0
FFE03FC0
FFF03FC0
FEF43FC0
FDFC3FC0
FDBD3FC0
FE7E3FC0
FE3F2FC0
FE1FAFC0
FE0FEFC0
FE0BEFC0
FE07FFC0
FE02FFC0
FE01FFC0
FE00FFC0
FE007FC0
ENDCHAR
STARTCHAR Ograve
ENCODING 210
SWIDTH 600 0
DWIDTH 17 0
BBX 15 25 1 0
BITMAP
00240000
00BD0000
01FF8000
007FE000
000BE000
00018000
00000000
006FE400
07FFFE00
0FFFFF80
2FF47FE0
3FD01FF0
BF800FF4
BF400BF8
FF400BF8
FF400BF8
FF400BF8
FF400BF8
BF800BF4
7F800FF4
3FD01FF0
2FF47FD0
0FFFFF80
03FFFE00
006FE400
ENDCHAR
STARTCHAR Oacute
ENCODING 211
SWIDTH 600 0
DWIDTH 17 0
BBX 15 25 1 0
BITMAP
00006000
0002F800
000BFD00
002FF400
003F8000
00090000
00000000
006FE400
07FFFE00
0FFFFF80
2FF47FE0
3FD01FF0
BF800FF4
BF400BF8
FF400BF8
FF400BF8
FF400BF8
FF400BF8
BF800BF4
7F800FF4
3FD01FF0
2FF47FD0
0FFFFF80
03FFFE00
006FE400
ENDCHAR
STARTCHAR Ocircumflex
ENCODING 212
SWIDTH 600 0
DWIDTH 17 0
BBX 15 23 1 0
BITMAP
007FF000
01FFFC00
03F4BE00
01901900
00000000
006FE400
07FFFE00
0FFFFF80
2FF47FE0
3FD01FF0
BF800FF4
BF400BF8
FF400BF8
FF400BF8
FF400BF8
FF400BF8
BF800BF4
7F800FF4
3FD01FF0
2FF47FD0
0FFFFF80
03FFFE00
006FE400
ENDCHAR
STARTCHAR Otilde
ENCODING 213
SWIDTH 600 0
DWIDTH 17 0
BBX 15 24 1 0
BITMAP
01F90A80
07FF4F80
0BFFFF80
0FCBFF00
0A41F900
00000000
006FE400
07FFFE00
0FFFFF80
2FF47FE0
3FD01FF0
BF800FF4
BF400BF8
FF400BF8
FF400BF8
FF400BF8
FF400BF8
BF800BF4
7F800FF4
3FD01FF0
2FF47FD0
0FFFFF80
03FFFE00
006FE400
ENDCHAR
STARTCHAR Odieresis
ENCODING 214
SWIDTH 600 0
DWIDTH 17 0
BBX 15 24 1 0
BITMAP
02E02E00
0BF47F40
0BF47F40
02E02E00
00000000
00000000
006FE400
07FFFE00
0FFFFF80
2FF47FE0
3FD01FF0
BF800FF4
BF400BF8
FF400BF8
FF400BF8
FF400BF8
FF400BF8
BF800BF4
7F800FF4
3FD01FF0
2FF47FD0
0FFFFF80
03FFFE00
006FE400
ENDCHAR
STARTCHAR multiply
ENCODING 215
SWIDTH 600 0
DWIDTH 17 0
BBX 12 12 2 3
BITMAP
1C0018
7F007E
7FC1FF
1FF7FC
07FFF0
01FFC0
01FFC0
07FFF0
1FF7FC
7FC1FF
7F007E
180018
ENDCHAR
STARTCHAR Oslash
ENCODING 216
SWIDTH 600 0
DWIDTH 17 0
BBX 16 20 0 -1
BITMAP
00000018
001BF93F
01FFFFFE
03FFFFF8
0BFD1FF8
0FF00FFC
2FE02FFD
2FD07FFE
3FD1FEFE
3FD3F6FE
3FDBE2FE
3FEFC2FE
2FFF42FD
1FFD03FD
0FF807FC
0BFD1FF4
0FFFFFE0
2FFFFF80
7E1BF900
08000000
ENDCHAR
STARTCHAR Ugrave
ENCODING 217
SWIDTH 600 0
DWIDTH 17 0
BBX 14 25 1 0
BITMAP
00240000
00BD0000
01FF8000
007FE000
000BE000
00018000
00000000
7FC00FF0
7FC00FF0
7FC00FF0
7FC00FF0
7FC00FF0
7FC00FF0
7FC00FF0
7FC00FF0
7FC00FF0
7FC00FF0
7FC00FF0
7FC00FF0
3FC00FF0
3FD01FE0
2FE47FD0
0FFFFF80
07FFFF00
00AFE400
ENDCHAR
STARTCHAR Uacute
ENCODING 218
SWIDTH 600 0
DWIDTH 17 0
BBX 14 25 1 0
BITMAP
00006000
0002F800
000BFD00
002FF400
003F8000
00090000
00000000
7FC00FF0
7FC00FF0
7FC00FF0
7FC00FF0
7FC00FF0
7FC00FF0
7FC00FF0
7FC00FF0
7FC00FF0
7FC00FF0
7FC00FF0
7FC00FF0
3FC00FF0
3FD01FE0
2FE47FD0
0FFFFF80
07FFFF00
00AFE400
ENDCHAR
STARTCHAR Ucircumflex
ENCODING 219
SWIDTH 600 0
DWIDTH 17 0
BBX 14 23 1 0
BITMAP
007FF000
01FFFC00
03F4BE00
01901900
00000000
7FC00FF0
7FC00FF0
7FC00FF0
7FC00FF0
7FC00FF0
7FC00FF0
7FC00FF0
7FC00FF0
7FC00FF0
7FC00FF0
7FC00FF0
7FC00FF0
3FC00FF0
3FD01FE0
2FE47FD0
0FFFFF80
07FFFF00
00AFE400
ENDCHAR
STARTCHAR Udieresis
ENCODING 220
SWIDTH 600 0
DWIDTH 17 0
BBX 14 24 1 0
BITMAP
02E02E00
0BF47F40
0BF47F40
02E02E00
00000000
00000000
7FC00FF0
7FC00FF0
7FC00FF0
7FC00FF0
7FC00FF0
7FC00FF0
7FC00FF0
7FC00FF0
7FC00FF0
7FC00FF0
7FC00FF0
7FC00FF0
3FC00FF0
3FD01FE0
2FE47FD0
0FFFFF80
07FFFF00
00AFE400
ENDCHAR
STARTCHAR Yacute
ENCODING 221
SWIDTH 600 0
DWIDTH 17 0
BBX 16 25 0 0
BITMAP
00001800
0000BE00
0002FF40
000BFD00
000FE000
00024000
00000000
7FC001FF
2FE002FE
1FF003FC
0BF407F8
07F80FF0
03FD1FE0
01FE2FC0
00FF7F80
007FFF00
003FFE00
001FFD00
000FF800
000BF400
000BF400
000BF400
000BF400
000BF400
000BF400
ENDCHAR
STARTCHAR Thorn
ENCODING 222
SWIDTH 600 0
DWIDTH 17 0
BBX 14 18 2 0
BITMAP
FF000000
FF000000
FF000000
FFFFE400
FFFFFF40
FFFFFFC0
FF007FE0
FF001FE0
FF001FE0
FF001FE0
FF007FD0
FFFFFF80
FFFFFE00
FFFFE400
FF000000
FF000000
FF000000
FF000000
ENDCHAR
STARTCHAR germandbls
ENCODING 223
SWIDTH 600 0
DWIDTH 17 0
BBX 15 20 1 0
BITMAP
00BFE000
07FFFC00
1FFFFE00
2FE0FF40
3FC0BF40
7FC0BF40
7F80FF00
7F81FE00
7F83FC00
7F83F800
7F83FD00
7F82FF80
7F80FFE0
7F802FF4
7F800BFC
7F8003FC
7F8143FC
7F83FFF8
7F8BFFE0
7F82FF40
ENDCHAR
STARTCHAR agrave
ENCODING 224
SWIDTH 600 0
DWIDTH 17 0
BBX 14 23 1 0
BITMAP
00240000
00BD0000
02FF0000
00FF8000
002FE000
000BE000
00018000
00000000
00000000
01AFE800
1FFFFF40
1FFFFFC0
0B907FE0
00001FE0
005AFFF0
06FFFFF0
1FFFFFF0
3FE50FF0
7F800FF0
7FD07FF0
3FFFFFF0
1FFFEBF0
06FE07F0
ENDCHAR
STARTCHAR aacute
ENCODING 225
SWIDTH 600 0
DWIDTH 17 0
BBX 14 23 1 0
BITMAP
00001800
00007E00
0000FF80
0003FE00
000BF800
000BE000
00024000
00000000
00000000
01AFE800
1FFFFF40
1FFFFFC0
0B907FE0
00001FE0
005AFFF0
06FFFFF0
1FFFFFF0
3FE50FF0
7F800FF0
7FD07FF0
3FFFFFF0
1FFFEBF0
06FE07F0
ENDCHAR
STARTCHAR acircumflex
ENCODING 226
SWIDTH 600 0
DWIDTH 17 0
BBX 14 21 1 0
BITMAP
002FF400
007FFD00
01FEBF40
03F42FC0
01900640
00000000
00000000
01AFE800
1FFFFF40
1FFFFFC0
0B907FE0
00001FE0
005AFFF0
06FFFFF0
1FFFFFF0
3FE50FF0
7F800FF0
7FD07FF0
3FFFFFF0
1FFFEBF0
06FE07F0
ENDCHAR
STARTCHAR atilde
ENCODING 227
SWIDTH 600 0
DWIDTH 17 0
BBX 14 21 1 0
BITMAP
00BD0680
02FF8BD0
03FFFFC0
07E7FF80
0690BE00
00000000
00000000
01AFE800
1FFFFF40
1FFFFFC0
0B907FE0
00001FE0
005AFFF0
06FFFFF0
1FFFFFF0
3FE50FF0
7F800FF0
7FD07FF0
3FFFFFF0
1FFFEBF0
06FE07F0
ENDCHAR
STARTCHAR adieresis
ENCODING 228
SWIDTH 600 0
DWIDTH 17 0
BBX 14 21 1 0
BITMAP
01F41F40
07FC3FC0
07FC3FD0
07FC3FC0
01F41F40
00000000
00000000
01AFE800
1FFFFF40
1FFFFFC0
0B907FE0
00001FE0
005AFFF0
06FFFFF0
1FFFFFF0
3FE50FF0
7F800FF0
7FD07FF0
3FFFFFF0
1FFFEBF0
06FE07F0
ENDCHAR
STARTCHAR aring
ENCODING 229
SWIDTH 600 0
DWIDTH 17 0
BBX 14 23 1 0
BITMAP
001BE400
003FFC00
00BD7D00
00B83E00
00BD7D00
003FFC00
001BE400
00000000
00000000
01AFE800
1FFFFF40
1FFFFFC0
0B907FE0
00001FE0
005AFFF0
06FFFFF0
1FFFFFF0
3FE50FF0
7F800FF0
7FD07FF0
3FFFFFF0
1FFFEBF0
06FE07F0
ENDCHAR
STARTCHAR ae
ENCODING 230
SWIDTH 600 0
DWIDTH 17 0
BBX 17 14 0 0
BITMAP
06F90BE400
3FFF7FFD00
2FFFFFFE00
090BF83F40
0007F02F40
006FFFFF80
0BFFFFFF80
2FFFFFFF80
7FD7F00000
7F43F40000
BF47FD1800
7FFFFFFD00
2FFE7FFF00
0BE41BF900
ENDCHAR
STARTCHAR ccedilla
ENCODING 231
SWIDTH 600 0
DWIDTH 17 0
BBX 13 21 2 -7
BITMAP
006FF900
07FFFF80
1FFFFF40
3FE41A00
BFC00000
FF400000
FF000000
FF000000
FF400000
BF800000
7FE41B40
2FFFFFC0
07FFFF80
006FE900
000B8000
001F4000
002FD000
0007F000
0007F400
00BFE000
007E4000
ENDCHAR
STARTCHAR egrave
ENCODING 232
SWIDTH 600 0
DWIDTH 17 0
BBX 15 23 1 0
BITMAP
00200000
00BC0000
02FE0000
01FF8000
007FD000
000BD000
00024000
00000000
00000000
006FE800
02FFFF40
0BFFFFD0
2FE41FE0
3FC00BF0
7FFFFFF4
7FFFFFF4
7FFFFFF4
7FC00000
3FD00000
2FF80680
0BFFFFD0
02FFFFD0
006FF900
ENDCHAR
STARTCHAR eacute
ENCODING 233
SWIDTH 600 0
DWIDTH 17 0
BBX 15 23 1 0
BITMAP
00002400
00007D00
0001FF40
0007FE00
000FF800
000FD000
00024000
00000000
00000000
006FE800
02FFFF40
0BFFFFD0
2FE41FE0
3FC00BF0
7FFFFFF4
7FFFFFF4
7FFFFFF4
7FC00000
3FD00000
2FF80680
0BFFFFD0
02FFFFD0
006FF900
ENDCHAR
STARTCHAR ecircumflex
ENCODING 234
SWIDTH 600 0
DWIDTH 17 0
BBX 15 21 1 0
BITMAP
002FF400
00BFFD00
01FEFF00
03F42F80
01800600
00000000
00000000
006FE800
02FFFF40
0BFFFFD0
2FE41FE0
3FC00BF0
7FFFFFF4
7FFFFFF4
7FFFFFF4
7FC00000
3FD00000
2FF80680
0BFFFFD0
02FFFFD0
006FF900
ENDCHAR
STARTCHAR edieresis
ENCODING 235
SWIDTH 600 0
DWIDTH 17 0
BBX 15 21 1 0
BITMAP
02E01F40
07F87FC0
0BFC7FC0
07F87FC0
02E01F40
00000000
00000000
006FE800
02FFFF40
0BFFFFD0
2FE41FE0
3FC00BF0
7FFFFFF4
7FFFFFF4
7FFFFFF4
7FC00000
3FD00000
2FF80680
0BFFFFD0
02FFFFD0
006FF900
ENDCHAR
STARTCHAR igrave
ENCODING 236
SWIDTH 600 0
DWIDTH 17 0
BBX 10 23 2 0
BITMAP
002000
00F800
03FE00
01FF80
007FD0
000BD0
000240
000000
000000
BFFFF0
BFFFF0
BFFFF0
001FF0
001FF0
001FF0
001FF0
001FF0
001FF0
001FF0
001FF0
001FF0
001FF0
001FF0
ENDCHAR
STARTCHAR iacute
ENCODING 237
SWIDTH 600 0
DWIDTH 17 0
BBX 13 23 2 0
BITMAP
00002400
0000BD00
0001FF40
0007FE00
000FF400
000FD000
00024000
00000000
00000000
BFFFF000
BFFFF000
BFFFF000
001FF000
001FF000
001FF000
001FF000
001FF000
001FF000
001FF000
001FF000
001FF000
001FF000
001FF000
ENDCHAR
STARTCHAR icircumflex
ENCODING 238
SWIDTH 600 0
DWIDTH 17 0
BBX 13 21 2 0
BITMAP
002FF400
00BFFC00
02FEFE00
07F42F80
01800600
00000000
00000000
BFFFF000
BFFFF000
BFFFF000
001FF000
001FF000
001FF000
001FF000
001FF000
001FF000
001FF000
001FF000
001FF000
001FF000
001FF000
ENDCHAR
STARTCHAR idieresis
ENCODING 239
SWIDTH 600 0
DWIDTH 17 0
BBX 13 21 2 0
BITMAP
02E02E40
07F87F80
0BF87FC0
07F87F80
02E02E40
00000000
00000000
BFFFF000
BFFFF000
BFFFF000
001FF000
001FF000
001FF000
001FF000
001FF000
001FF000
001FF000
001FF000
001FF000
001FF000
001FF000
ENDCHAR
STARTCHAR eth
ENCODING 240
SWIDTH 600 0
DWIDTH 17 0
BBX 15 20 1 0
BITMAP
00A00140
02FD1BD0
02FFFF80
007FF800
01FFFD00
0BF9FF40
07407F80
01BF6FD0
0BFFEFE0
1FFFFFF0
3FE06FF4
7F800FF4
BF4007F4
BF000BF4
BF400BF4
7F800FF0
3FE06FD0
1FFFFF80
07FFFE00
006FE400
ENDCHAR
STARTCHAR ntilde
ENCODING 241
SWIDTH 600 0
DWIDTH 17 0
BBX 13 21 2 0
BITMAP
02F41A00
0BFE2F00
1FFFFF00
1F5FFD00
1A02F400
00000000
00000000
FD0BF800
FE7FFF00
FFFFFF80
FFE0BFC0
FF803FC0
FF003FC0
FF003FC0
FF003FC0
FF003FC0
FF003FC0
FF003FC0
FF003FC0
FF003FC0
FF003FC0
ENDCHAR
STARTCHAR ograve
ENCODING 242
SWIDTH 600 0
DWIDTH 17 0
BBX 15 23 1 0
BITMAP
00600000
01F80000
07FD0000
02FF4000
007FD000
001FD000
00020000
00000000
00000000
006FE400
07FFFE00
1FFFFFC0
2FE07FE0
7FC01FF0
BF800FF4
BF800BF4
BF800BF4
BF800FF4
7FC01FF0
2FE07FE0
1FFFFFC0
07FFFE00
006FE400
ENDCHAR
STARTCHAR oacute
ENCODING 243
SWIDTH 600 0
DWIDTH 17 0
BBX 15 23 1 0
BITMAP
00002000
0000BC00
0002FF00
0007FD00
001FF400
001FC000
00060000
00000000
00000000
006FE400
07FFFE00
1FFFFFC0
2FE07FE0
7FC01FF0
BF800FF4
BF800BF4
BF800BF4
BF800FF4
7FC01FF0
2FE07FE0
1FFFFFC0
07FFFE00
006FE400
ENDCHAR
STARTCHAR ocircumflex
ENCODING 244
SWIDTH 600 0
DWIDTH 17 0
BBX 15 21 1 0
BITMAP
007FF000
00FFF800
02FEFE00
07E07F40
02800A00
00000000
00000000
006FE400
07FFFE00
1FFFFFC0
2FE07FE0
7FC01FF0
BF800FF4
BF800BF4
BF800BF4
BF800FF4
7FC01FF0
2FE07FE0
1FFFFFC0
07FFFE00
006FE400
ENDCHAR
STARTCHAR otilde
ENCODING 245
SWIDTH 600 0
DWIDTH 17 0
BBX 15 21 1 0
BITMAP
01B80A40
07FF5F80
0BFFFF40
0BCBFF00
0A81F900
00000000
00000000
006FE400
07FFFE00
1FFFFFC0
2FE07FE0
7FC01FF0
BF800FF4
BF800BF4
BF800BF4
BF800FF4
7FC01FF0
2FE07FE0
1FFFFFC0
07FFFE00
006FE400
ENDCHAR
STARTCHAR odieresis
ENCODING 246
SWIDTH 600 0
DWIDTH 17 0
BBX 15 21 1 0
BITMAP
02E02E00
0BF4BF80
0FF4BF80
0BF4BF80
02E02E00
00000000
00000000
006FE400
07FFFE00
1FFFFFC0
2FE07FE0
7FC01FF0
BF800FF4
BF800BF4
BF800BF4
BF800FF4
7FC01FF0
2FE07FE0
1FFFFFC0
07FFFE00
006FE400
ENDCHAR
STARTCHAR divide
ENCODING 247
SWIDTH 600 0
DWIDTH 17 0
BBX 13 13 2 3
BITMAP
006E0000
00BF8000
00BF8000
006E0000
00000000
FFFFFFC0
FFFFFFC0
FFFFFFC0
00000000
006E0000
00BF8000
00BF8000
006E0000
ENDCHAR
STARTCHAR oslash
ENCODING 248
SWIDTH 600 0
DWIDTH 17 0
BBX 15 16 1 -1
BITMAP
00000040
006FE5E0
07FFFFD0
1FFFFFC0
2FE07FE0
7FC0BFF0
BF82FFF4
BF8BDBF4
BF9F4BF4
BFFD0FF4
7FF81FF0
2FF47FE0
1FFFFFC0
2FFFFE00
2D6FE400
04000000
ENDCHAR
STARTCHAR ugrave
ENCODING 249
SWIDTH 600 0
DWIDTH 17 0
BBX 14 23 1 0
BITMAP
00600000
01F40000
07FD0000
02FF4000
007FC000
001FC000
00060000
00000000
00000000
7FC01FE0
7FC01FE0
7FC01FE0
7FC01FE0
7FC01FE0
7FC01FE0
7FC01FE0
7FC01FE0
7FC01FE0
7FC03FE0
3FE0BFE0
2FFFFFE0
1FFFDFE0
06FE0BE0
ENDCHAR
STARTCHAR uacute
ENCODING 250
SWIDTH 600 0
DWIDTH 17 0
BBX 14 23 1 0
BITMAP
00002000
0000BC00
0002FF00
000BFD00
001FF400
001F8000
00060000
00000000
00000000
7FC01FE0
7FC01FE0
7FC01FE0
7FC01FE0
7FC01FE0
7FC01FE0
7FC01FE0
7FC01FE0
7FC01FE0
7FC03FE0
3FE0BFE0
2FFFFFE0
1FFFDFE0
06FE0BE0
ENDCHAR
STARTCHAR ucircumflex
ENCODING 251
SWIDTH 600 0
DWIDTH 17 0
BBX 14 21 1 0
BITMAP
007FE000
00FFF800
02FEFE00
0BE07F40
02400900
00000000
00000000
7FC01FE0
7FC01FE0
7FC01FE0
7FC01FE0
7FC01FE0
7FC01FE0
7FC01FE0
7FC01FE0
7FC01FE0
7FC03FE0
3FE0BFE0
2FFFFFE0
1FFFDFE0
06FE0BE0
ENDCHAR
STARTCHAR udieresis
ENCODING 252
SWIDTH 600 0
DWIDTH 17 0
BBX 14 21 1 0
BITMAP
06D02E00
0BF4BF40
0FF4BF80
0BF4BF40
07E02E00
00000000
00000000
7FC01FE0
7FC01FE0
7FC01FE0
7FC01FE0
7FC01FE0
7FC01FE0
7FC01FE0
7FC01FE0
7FC01FE0
7FC03FE0
3FE0BFE0
2FFFFFE0
1FFFDFE0
06FE0BE0
ENDCHAR
STARTCHAR yacute
ENCODING 253
SWIDTH 600 0
DWIDTH 17 0
BBX 15 29 1 -6
BITMAP
00002400
0000BD00
0001FF40
0007FE00
001FF400
000FD000
00024000
00000000
00000000
FF0003F8
7F8007F4
3FC00BF0
2FD00FE0
0FE01FD0
0BF02FC0
07F43F80
02F87F00
01FCBE00
00FDFD00
007FFC00
003FF800
002FF400
001FF000
001FE000
003FC000
00BF8000
2FFF0000
2FFD0000
3FE00000
ENDCHAR
STARTCHAR thorn
ENCODING 254
SWIDTH 600 0
DWIDTH 17 0
BBX 14 26 2 -6
BITMAP
FF000000
FF000000
FF000000
FF000000
FF000000
FF000000
FF1BE400
FFBFFE00
FFFFFF40
FFD1BFC0
FF403FD0
FF003FD0
FF002FD0
FF002FD0
FF003FD0
FF407FC0
FFD1FF80
FFFFFF00
FFBFFD00
FF2FE000
FF000000
FF000000
FF000000
FF000000
FF000000
FF000000
ENDCHAR
STARTCHAR ydieresis
ENCODING 255
SWIDTH 600 0
DWIDTH 17 0
BBX 15 27 1 -6
BITMAP
02E02E00
0BF87F80
0BF87FC0
0BF87F80
02E02E00
00000000
00000000
FF0003F8
7F8007F4
3FC00BF0
2FD00FE0
0FE01FD0
0BF02FC0
07F43F80
02F87F00
01FCBE00
00FDFD00
007FFC00
003FF800
002FF400
001FF000
001FE000
003FC000
00BF8000
2FFF0000
2FFD0000
3FE00000
ENDCHAR
STARTCHAR Amacron
ENCODING 256
SWIDTH 600 0
DWIDTH 17 0
BBX 17 23 0 0
BITMAP
00BFFF8000
00BFFF8000
00BFFF8000
0000000000
0000000000
001FFC0000
002FFD0000
003FFE0000
007FBF0000
007F7F4000
00BE3F8000
00FD3FC000
01FD2FD000
02FC1FE000
03F80FF000
07F80FF400
0BFFFFF400
0FFFFFF800
1FFFFFFC00
2FD002FD00
3FC001FE00
7FC001FF00
BF8000FF40
ENDCHAR
STARTCHAR amacron
ENCODING 257
SWIDTH 600 0
DWIDTH 17 0
BBX 14 19 1 0
BITMAP
01FFFF00
01FFFF00
01FFFF00
00000000
00000000
01AFE800
1FFFFF40
1FFFFFC0
0B907FE0
00001FE0
005AFFF0
06FFFFF0
1FFFFFF0
3FE50FF0
7F800FF0
7FD07FF0
3FFFFFF0
1FFFEBF0
06FE07F0
ENDCHAR
STARTCHAR Abreve
ENCODING 258
SWIDTH 600 0
DWIDTH 17 0
BBX 17 24 0 0
BITMAP
00B4078000
00FD1F8000
007FFF0000
001BF80000
0000000000
0000000000
001FFC0000
002FFD0000
003FFE0000
007FBF0000
007F7F4000
00BE3F8000
00FD3FC000
01FD2FD000
02FC1FE000
03F80FF000
07F80FF400
0BFFFFF400
0FFFFFF800
1FFFFFFC00
2FD002FD00
3FC001FE00
7FC001FF00
BF8000FF40
ENDCHAR
STARTCHAR abreve
ENCODING 259
SWIDTH 600 0
DWIDTH 17 0
BBX 14 22 1 0
BITMAP
00500500
02F00F80
02F82F40
01FFFF00
00BFFD00
001BE400
00000000
00000000
01AFE800
1FFFFF40
1FFFFFC0
0B907FE0
00001FE0
005AFFF0
06FFFFF0
1FFFFFF0
3FE50FF0
7F800FF0
7FD07FF0
3FFFFFF0
1FFFEBF0
06FE07F0
ENDCHAR
STARTCHAR Aogonek
ENCODING 260
SWIDTH 600 0
DWIDTH 17 0
BBX 17 25 0 -7
BITMAP
001FFC0000
002FFD0000
003FFE0000
007FBF0000
007F7F4000
00BE3F8000
00FD3FC000
01FD2FD000
02FC1FE000
03F80FF000
07F80FF400
0BFFFFF400
0FFFFFF800
1FFFFFFC00
2FD002FD00
3FC001FE00
7FC001FF00
BF8000FF40
0000007D00
000001F400
000002F000
000003F400
000003FF80
000002FFC0
000000BE40
ENDCHAR
STARTCHAR aogonek
ENCODING 261
SWIDTH 600 0
DWIDTH 17 0
BBX 15 21 1 -7
BITMAP
01AFE800
1FFFFF40
1FFFFFC0
0B907FE0
00001FE0
005AFFF0
06FFFFF0
1FFFFFF0
3FE50FF0
7F800FF0
7FD07FF0
3FFFFFF0
1FFFEBF0
06FE47F0
00000F90
00003D00
00007C00
0000BD10
0000BFF0
00007FF4
00001FD0
ENDCHAR
STARTCHAR Cacute
ENCODING 262
SWIDTH 600 0
DWIDTH 17 0
BBX 15 25 1 0
BITMAP
00000900
00003F00
0001FF80
0007FE00
0007F400
00028000
00000000
001AFE40
00BFFFE4
03FFFFF4
0BFD06D0
1FF40000
3FD00000
3FC00000
7FC00000
7F800000
7F800000
7FC00000
7FC00000
3FD00000
2FF40040
0FFD06E0
07FFFFF8
00BFFFE0
001BFE40
ENDCHAR
STARTCHAR cacute
ENCODING 263
SWIDTH 600 0
DWIDTH 17 0
BBX 13 23 2 0
BITMAP
00002400
0000BD00
0001FF40
0007FE00
001FF400
001FD000
00060000
00000000
00000000
006FF900
07FFFF80
1FFFFF40
3FE41A00
BFC00000
FF400000
FF000000
FF000000
FF400000
BF800000
7FE41B40
2FFFFFC0
07FFFF80
006FE900
ENDCHAR
STARTCHAR Ccircumflex
ENCODING 264
SWIDTH 600 0
DWIDTH 17 0
BBX 15 23 1 0
BITMAP
000BFE00
002FFF40
007E1FD0
00680280
00000000
001AFE40
00BFFFE4
03FFFFF4
0BFD06D0
1FF40000
3FD00000
3FC00000
7FC00000
7F800000
7F800000
7FC00000
7FC00000
3FD00000
2FF40040
0FFD06E0
07FFFFF8
00BFFFE0
001BFE40
ENDCHAR
STARTCHAR ccircumflex
ENCODING 265
SWIDTH 600 0
DWIDTH 17 0
BBX 13 21 2 0
BITMAP
003FF000
00BFFC00
02FEFE00
07F42F40
02800A00
00000000
00000000
006FF900
07FFFF80
1FFFFF40
3FE41A00
BFC00000
FF400000
FF000000
FF000000
FF400000
BF800000
7FE41B40
2FFFFFC0
07FFFF80
006FE900
ENDCHAR
STARTCHAR Cdotaccent
ENCODING 266
SWIDTH 600 0
DWIDTH 17 0
BBX 15 24 1 0
BITMAP
0002F400
0007FD00
000BFD00
0007FD00
0002F400
00000000
001AFE40
00BFFFE4
03FFFFF4
0BFD06D0
1FF40000
3FD00000
3FC00000
7FC00000
7F800000
7F800000
7FC00000
7FC00000
3FD00000
2FF40040
0FFD06E0
07FFFFF8
00BFFFE0
001BFE40
ENDCHAR
STARTCHAR cdotaccent
ENCODING 267
SWIDTH 600 0
DWIDTH 17 0
BBX 13 21 2 0
BITMAP
001B9000
003FF000
003FF400
003FF000
001BD000
00000000
00000000
006FF900
07FFFF80
1FFFFF40
3FE41A00
BFC00000
FF400000
FF000000
FF000000
FF400000
BF800000
7FE41B40
2FFFFFC0
07FFFF80
006FE900
ENDCHAR
STARTCHAR Ccaron
ENCODING 268
SWIDTH 600 0
DWIDTH 17 0
BBX 15 24 1 0
BITMAP
00680280
007E1FD0
002FFF40
000BFE00
00000000
00000000
001AFE40
00BFFFE4
03FFFFF4
0BFD06D0
1FF40000
3FD00000
3FC00000
7FC00000
7F800000
7F800000
7FC00000
7FC00000
3FD00000
2FF40040
0FFD06E0
07FFFFF8
00BFFFE0
001BFE40
ENDCHAR
STARTCHAR ccaron
ENCODING 269
SWIDTH 600 0
DWIDTH 17 0
BBX 13 21 2 0
BITMAP
02800A00
07F42F40
02FEFE00
00BFFC00
003FF000
00000000
00000000
006FF900
07FFFF80
1FFFFF40
3FE41A00
BFC00000
FF400000
FF000000
FF000000
FF400000
BF800000
7FE41B40
2FFFFFC0
07FFFF80
006FE900
ENDCHAR
STARTCHAR Dcaron
ENCODING 270
SWIDTH 600 0
DWIDTH 17 0
BBX 14 24 2 0
BITMAP
06406400
0FD2F800
07FFF000
01FFC000
00000000
00000000
FFFE4000
FFFFF800
FFFFFE00
FF06FF40
FF00BFC0
FF003FD0
FF002FE0
FF002FE0
FF001FE0
FF001FE0
FF002FE0
FF002FE0
FF003FD0
FF00BFC0
FF06FF40
FFFFFE00
FFFFF800
FFFE4000
ENDCHAR
STARTCHAR dcaron
ENCODING 271
SWIDTH 600 0
DWIDTH 17 0
BBX 17 23 1 0
BITMAP
0000003F80
0000003F80
0000003F80
0000FF3F80
0000FF2F40
0000FF2F40
0000FF2F40
0000FF2F00
0000BF0000
02F9BF0000
0FFFFF0000
2FFFFF0000
7FD2FF0000
BF40FF0000
FF00FF0000
FF00FF0000
FF00FF0000
FF00FF0000
BF40FF0000
7FD2FF0000
3FFFFF0000
1FFFBF0000
06F87F0000
ENDCHAR
STARTCHAR Dcroat
ENCODING 272
SWIDTH 600 0
DWIDTH 17 0
BBX 16 18 0 0
BITMAP
0FFFE400
0FFFFF80
0FFFFFE0
0FF06FF4
0FF00BFC
0FF003FD
0FF002FE
BFFFC2FE
FFFFC1FE
FFFFC1FE
0FF002FE
0FF002FE
0FF003FD
0FF00BFC
0FF06FF4
0FFFFFE0
0FFFFF40
0FFFE400
ENDCHAR
STARTCHAR dcroat
ENCODING 273
SWIDTH 600 0
DWIDTH 17 0
BBX 16 20 1 0
BITMAP
00001FE0
00001FE0
002FFFFE
002FFFFE
002FFFFE
00001FE0
00001FE0
01BE5FE0
0BFFEFE0
1FFFFFE0
3FE46FE0
7FC01FE0
BF801FE0
BF801FE0
BF801FE0
7FC01FE0
3FE07FE0
2FFFFFE0
0BFFEFE0
01BE4BE0
ENDCHAR
STARTCHAR Emacron
ENCODING 274
SWIDTH 600 0
DWIDTH 17 0
BBX 13 23 2 0
BITMAP
07FFFD00
07FFFD00
07FFFD00
00000000
00000000
7FFFFF80
7FFFFF80
7FFFFF80
7F800000
7F800000
7F800000
7F800000
7FFFFD00
7FFFFD00
7FFFFD00
7F800000
7F800000
7F800000
7F800000
7F800000
7FFFFFC0
7FFFFFC0
7FFFFFC0
ENDCHAR
STARTCHAR emacron
ENCODING 275
SWIDTH 600 0
DWIDTH 17 0
BBX 15 19 1 0
BITMAP
01FFFF00
01FFFF00
01FFFF00
00000000
00000000
006FE800
02FFFF40
0BFFFFD0
2FE41FE0
3FC00BF0
7FFFFFF4
7FFFFFF4
7FFFFFF4
7FC00000
3FD00000
2FF80680
0BFFFFD0
02FFFFD0
006FF900
ENDCHAR
STARTCHAR Ebreve
ENCODING 276
SWIDTH 600 0
DWIDTH 17 0
BBX 13 24 2 0
BITMAP
06C02900
07E0BD00
02FFF800
006F9000
00000000
00000000
7FFFFF80
7FFFFF80
7FFFFF80
7F800000
7F800000
7F800000
7F800000
7FFFFD00
7FFFFD00
7FFFFD00
7F800000
7F800000
7F800000
7F800000
7F800000
7FFFFFC0
7FFFFFC0
7FFFFFC0
ENDCHAR
STARTCHAR ebreve
ENCODING 277
SWIDTH 600 0
DWIDTH 17 0
BBX 15 22 1 0
BITMAP
00400400
03E00F40
02F42F40
01FFFF00
00BFFD00
002FE400
00000000
00000000
006FE800
02FFFF40
0BFFFFD0
2FE41FE0
3FC00BF0
7FFFFFF4
7FFFFFF4
7FFFFFF4
7FC00000
3FD00000
2FF80680
0BFFFFD0
02FFFFD0
006FF900
ENDCHAR
STARTCHAR Edotaccent
ENCODING 278
SWIDTH 600 0
DWIDTH 17 0
BBX 13 24 2 0
BITMAP
001F8000
007FD000
007FE000
007FD000
001F8000
00000000
7FFFFF80
7FFFFF80
7FFFFF80
7F800000
7F800000
7F800000
7F800000
7FFFFD00
7FFFFD00
7FFFFD00
7F800000
7F800000
7F800000
7F800000
7F800000
7FFFFFC0
7FFFFFC0
7FFFFFC0
ENDCHAR
STARTCHAR edotaccent
ENCODING 279
SWIDTH 600 0
DWIDTH 17 0
BBX 15 21 1 0
BITMAP
000BD000
002FF400
003FF400
002FF400
000BD000
00000000
00000000
006FE800
02FFFF40
0BFFFFD0
2FE41FE0
3FC00BF0
7FFFFFF4
7FFFFFF4
7FFFFFF4
7FC00000
3FD00000
2FF80680
0BFFFFD0
02FFFFD0
006FF900
ENDCHAR
STARTCHAR Eogonek
ENCODING 280
SWIDTH 600 0
DWIDTH 17 0
BBX 14 25 2 -7
BITMAP
7FFFFF80
7FFFFF80
7FFFFF80
7F800000
7F800000
7F800000
7F800000
7FFFFD00
7FFFFD00
7FFFFD00
7F800000
7F800000
7F800000
7F800000
7F800000
7FFFFFC0
7FFFFFC0
7FFFFFC0
00003E00
0000F800
0001F400
0002F840
0002FFC0
0001FFD0
00006F80
ENDCHAR
STARTCHAR eogonek
ENCODING 281
SWIDTH 600 0
DWIDTH 17 0
BBX 15 21 1 -7
BITMAP
006FE800
02FFFF40
0BFFFFD0
2FE41FE0
3FC00BF0
7FFFFFF4
7FFFFFF4
7FFFFFF4
7FC00000
3FD00000
2FF80680
0BFFFFD0
02FFFFE0
006FFF40
00007D00
0000F400
0001F000
0002F440
0002FFD0
0001FFE0
00006F80
ENDCHAR
STARTCHAR Ecaron
ENCODING 282
SWIDTH 600 0
DWIDTH 17 0
BBX 13 24 2 0
BITMAP
02802800
07F4BD00
01FFF800
00BFE000
00000000
00000000
7FFFFF80
7FFFFF80
7FFFFF80
7F800000
7F800000
7F800000
7F800000
7FFFFD00
7FFFFD00
7FFFFD00
7F800000
7F800000
7F800000
7F800000
7F800000
7FFFFFC0
7FFFFFC0
7FFFFFC0
ENDCHAR
STARTCHAR ecaron
ENCODING 283
SWIDTH 600 0
DWIDTH 17 0
BBX 15 21 1 0
BITMAP
01800600
03F42F80
01FEFF00
00BFFD00
002FF400
00000000
00000000
006FE800
02FFFF40
0BFFFFD0
2FE41FE0
3FC00BF0
7FFFFFF4
7FFFFFF4
7FFFFFF4
7FC00000
3FD00000
2FF80680
0BFFFFD0
02FFFFD0
006FF900
ENDCHAR
STARTCHAR Gcircumflex
ENCODING 284
SWIDTH 600 0
DWIDTH 17 0
BBX 15 23 1 0
BITMAP
001FFC00
007FFE00
01FD2F80
00A00640
00000000
001BF900
01FFFFD0
07FFFFD0
1FF90780
2FE00000
7FD00000
7F800000
BF800000
BF80FFF4
BF80FFF4
BF80FFF4
BF8007F4
7FC007F4
3FE007F4
1FF90BF4
0BFFFFF4
01FFFFE0
001BF900
ENDCHAR
STARTCHAR gcircumflex
ENCODING 285
SWIDTH 600 0
DWIDTH 17 0
BBX 15 27 1 -6
BITMAP
003FF000
00BFF800
02FEFE00
07F47F40
02800A00
00000000
00000000
00BFFFFC
07FFFFFC
1FFFFFFC
2FE0BFFC
3FC03F40
3FC03F80
2FE5BF80
1FFFFF40
07FFFD00
0FEA9000
2F800000
2FFFFE80
1FFFFFF4
0BFFFFF8
2F0007FC
7F0003FC
BF901BF8
7FFFFFF0
2FFFFF80
06BFE400
ENDCHAR
STARTCHAR Gbreve
ENCODING 286
SWIDTH 600 0
DWIDTH 17 0
BBX 15 24 1 0
BITMAP
00B00B80
00F81F40
007FFF00
001BF800
00000000
00000000
001BF900
01FFFFD0
07FFFFD0
1FF90780
2FE00000
7FD00000
7F800000
BF800000
BF80FFF4
BF80FFF4
BF80FFF4
BF8007F4
7FC007F4
3FE007F4
1FF90BF4
0BFFFFF4
01FFFFE0
001BF900
ENDCHAR
STARTCHAR gbreve
ENCODING 287
SWIDTH 600 0
DWIDTH 17 0
BBX 15 28 1 -6
BITMAP
00400400
03D01F40
03F47F00
02FFFE00
00FFFC00
002FE000
00000000
00000000
00BFFFFC
07FFFFFC
1FFFFFFC
2FE0BFFC
3FC03F40
3FC03F80
2FE5BF80
1FFFFF40
07FFFD00
0FEA9000
2F800000
2FFFFE80
1FFFFFF4
0BFFFFF8
2F0007FC
7F0003FC
BF901BF8
7FFFFFF0
2FFFFF80
06BFE400
ENDCHAR
STARTCHAR Gdotaccent
ENCODING 288
SWIDTH 600 0
DWIDTH 17 0
BBX 15 24 1 0
BITMAP
0007E000
000FF800
001FF800
000FF800
0007E000
00000000
001BF900
01FFFFD0
07FFFFD0
1FF90780
2FE00000
7FD00000
7F800000
BF800000
BF80FFF4
BF80FFF4
BF80FFF4
BF8007F4
7FC007F4
3FE007F4
1FF90BF4
0BFFFFF4
01FFFFE0
001BF900
ENDCHAR
STARTCHAR gdotaccent
ENCODING 289
SWIDTH 600 0
DWIDTH 17 0
BBX 15 27 1 -6
BITMAP
001B9000
003FF000
007FF400
003FF000
001B9000
00000000
00000000
00BFFFFC
07FFFFFC
1FFFFFFC
2FE0BFFC
3FC03F40
3FC03F80
2FE5BF80
1FFFFF40
07FFFD00
0FEA9000
2F800000
2FFFFE80
1FFFFFF4
0BFFFFF8
2F0007FC
7F0003FC
BF901BF8
7FFFFFF0
2FFFFF80
06BFE400
ENDCHAR
STARTCHAR uni0122
ENCODING 290
SWIDTH 600 0
DWIDTH 17 0
BBX 15 25 1 -7
BITMAP
001BF900
01FFFFD0
07FFFFD0
1FF90780
2FE00000
7FD00000
7F800000
BF800000
BF80FFF4
BF80FFF4
BF80FFF4
BF8007F4
7FC007F4
3FE007F4
1FF90BF4
0BFFFFF4
01FFFFE0
001BF900
00000000
00079000
000FF400
0002F800
0002F800
003FF000
003E4000
ENDCHAR
STARTCHAR uni0123
ENCODING 291
SWIDTH 600 0
DWIDTH 17 0
BBX 15 27 1 -6
BITMAP
0006F400
002FF800
003F4000
003FD000
000BC000
00000000
00000000
00BFFFFC
07FFFFFC
1FFFFFFC
2FE0BFFC
3FC03F40
3FC03F80
2FE5BF80
1FFFFF40
07FFFD00
0FEA9000
2F800000
2FFFFE80
1FFFFFF4
0BFFFFF8
2F0007FC
7F0003FC
BF901BF8
7FFFFFF0
2FFFFF80
06BFE400
ENDCHAR
STARTCHAR Hcircumflex
ENCODING 292
SWIDTH 600 0
DWIDTH 17 0
BBX 14 23 1 0
BITMAP
007FF000
01FFFC00
03F4BE00
01901900
00000000
7FC00FF0
7FC00FF0
7FC00FF0
7FC00FF0
7FC00FF0
7FC00FF0
7FC00FF0
7FFFFFF0
7FFFFFF0
7FFFFFF0
7FC00FF0
7FC00FF0
7FC00FF0
7FC00FF0
7FC00FF0
7FC00FF0
7FC00FF0
7FC00FF0
ENDCHAR
STARTCHAR hcircumflex
ENCODING 293
SWIDTH 600 0
DWIDTH 17 0
BBX 16 25 -1 0
BITMAP
0BFE0000
1FFF8000
7F4BD000
28029000
00000000
03FC0000
03FC0000
03FC0000
03FC0000
03FC0000
03FC0000
03FC2FE0
03FDFFFC
03FFFFFE
03FF82FF
03FE00FF
03FC00FF
03FC00FF
03FC00FF
03FC00FF
03FC00FF
03FC00FF
03FC00FF
03FC00FF
03FC00FF
ENDCHAR
STARTCHAR Hbar
ENCODING 294
SWIDTH 600 0
DWIDTH 17 0
BBX 17 18 0 0
BITMAP
1FF003FC00
1FF003FC00
BFFFFFFF80
FFFFFFFF80
FFFFFFFF80
1FF003FC00
1FF003FC00
1FFFFFFC00
1FFFFFFC00
1FFFFFFC00
1FF003FC00
1FF003FC00
1FF003FC00
1FF003FC00
1FF003FC00
1FF003FC00
1FF003FC00
1FF003FC00
ENDCHAR
STARTCHAR hbar
ENCODING 295
SWIDTH 600 0
DWIDTH 17 0
BBX 15 20 0 0
BITMAP
0FF00000
0FF00000
BFFFFD00
BFFFFD00
BFFFFD00
0FF00000
0FF00000
0FF0BF80
0FF7FFF0
0FFFFFF8
0FFD0BFC
0FF403FC
0FF003FC
0FF003FC
0FF003FC
0FF003FC
0FF003FC
0FF003FC
0FF003FC
0FF003FC
ENDCHAR
STARTCHAR Itilde
ENCODING 296
SWIDTH 600 0
DWIDTH 17 0
BBX 13 24 2 0
BITMAP
07E42A00
1FFD3E00
2FFFFE00
3F2FFC00
2907E400
00000000
FFFFFF80
FFFFFF80
FFFFFF80
00BF4000
00BF4000
00BF4000
00BF4000
00BF4000
00BF4000
00BF4000
00BF4000
00BF4000
00BF4000
00BF4000
00BF4000
FFFFFF80
FFFFFF80
FFFFFF80
ENDCHAR
STARTCHAR itilde
ENCODING 297
SWIDTH 600 0
DWIDTH 17 0
BBX 13 21 2 0
BITMAP
00B90680
03FF8FC0
07FFFF80
0BD7FF40
0680BD00
00000000
00000000
BFFFF000
BFFFF000
BFFFF000
001FF000
001FF000
001FF000
001FF000
001FF000
001FF000
001FF000
001FF000
001FF000
001FF000
001FF000
ENDCHAR
STARTCHAR Imacron
ENCODING 298
SWIDTH 600 0
DWIDTH 17 0
BBX 13 23 2 0
BITMAP
0BFFF800
0BFFF800
0BFFF800
00000000
00000000
FFFFFF80
FFFFFF80
FFFFFF80
00BF4000
00BF4000
00BF4000
00BF4000
00BF4000
00BF4000
00BF4000
00BF4000
00BF4000
00BF4000
00BF4000
00BF4000
FFFFFF80
FFFFFF80
FFFFFF80
ENDCHAR
STARTCHAR imacron
ENCODING 299
SWIDTH 600 0
DWIDTH 17 0
BBX 12 19 2 0
BITMAP
01FFFE
01FFFE
01FFFE
000000
000000
BFFFF0
BFFFF0
BFFFF0
001FF0
001FF0
001FF0
001FF0
001FF0
001FF0
001FF0
001FF0
001FF0
001FF0
001FF0
ENDCHAR
STARTCHAR Ibreve
ENCODING 300
SWIDTH 600 0
DWIDTH 17 0
BBX 13 24 2 0
BITMAP
0B407800
0FD1F800
07FFF000
01BF8000
00000000
00000000
FFFFFF80
FFFFFF80
FFFFFF80
00BF4000
00BF4000
00BF4000
00BF4000
00BF4000
00BF4000
00BF4000
00BF4000
00BF4000
00BF4000
00BF4000
00BF4000
FFFFFF80
FFFFFF80
FFFFFF80
ENDCHAR
STARTCHAR ibreve
ENCODING 301
SWIDTH 600 0
DWIDTH 17 0
BBX 13 22 2 0
BITMAP
00400400
03E01F40
02F47F40
02FFFF00
00BFFD00
002FE400
00000000
00000000
BFFFF000
BFFFF000
BFFFF000
001FF000
001FF000
001FF000
001FF000
001FF000
001FF000
001FF000
001FF000
001FF000
001FF000
001FF000
ENDCHAR
STARTCHAR Iogonek
ENCODING 302
SWIDTH 600 0
DWIDTH 17 0
BBX 13 25 2 -7
BITMAP
FFFFFF80
FFFFFF80
FFFFFF80
00BF4000
00BF4000
00BF4000
00BF4000
00BF4000
00BF4000
00BF4000
00BF4000
00BF4000
00BF4000
00BF4000
00BF4000
FFFFFF80
FFFFFF80
FFFFFF80
003E0000
00B80000
01F40000
02F84000
02FFC000
01FFD000
006F8000
ENDCHAR
STARTCHAR iogonek
ENCODING 303
SWIDTH 600 0
DWIDTH 17 0
BBX 11 28 2 -7
BITMAP
000BD0
002FF0
003FF4
003FF4
001BD0
000000
000000
BFFFF0
BFFFF0
BFFFF0
001FF0
001FF0
001FF0
001FF0
001FF0
001FF0
001FF0
001FF0
001FF0
001FF0
001FF0
000B90
002E00
003D00
007E00
007FF4
003FF8
001BE0
ENDCHAR
STARTCHAR Idotaccent
ENCODING 304
SWIDTH 600 0
DWIDTH 17 0
BBX 13 24 2 0
BITMAP
006E0000
00FF8000
00FFC000
00FF8000
006E0000
00000000
FFFFFF80
FFFFFF80
FFFFFF80
00BF4000
00BF4000
00BF4000
00BF4000
00BF4000
00BF4000
00BF4000
00BF4000
00BF4000
00BF4000
00BF4000
00BF4000
FFFFFF80
FFFFFF80
FFFFFF80
ENDCHAR
STARTCHAR dotlessi
ENCODING 305
SWIDTH 600 0
DWIDTH 17 0
BBX 10 14 2 0
BITMAP
BFFFF0
BFFFF0
BFFFF0
001FF0
001FF0
001FF0
001FF0
001FF0
001FF0
001FF0
001FF0
001FF0
001FF0
001FF0
ENDCHAR
STARTCHAR IJ
ENCODING 306
SWIDTH 600 0
DWIDTH 17 0
BBX 13 23 2 -5
BITMAP
FF407F80
FF407F80
FF407F80
FF407F80
FF407F80
FF407F80
FF407F80
FF407F80
FF407F80
FF407F80
FF407F80
FF407F80
FF407F80
FF407F80
FF407F80
FF407F80
FF407F80
FF407F80
00007F80
0000FF40
001FFF00
002FFD00
002FE400
ENDCHAR
STARTCHAR ij
ENCODING 307
SWIDTH 600 0
DWIDTH 17 0
BBX 14 26 2 -6
BITMAP
7E002F40
FF807FD0
FF807FD0
7E002F40
00000000
00000000
FF403FC0
FF403FC0
FF403FC0
FF403FC0
FF403FC0
FF403FC0
FF403FC0
FF403FC0
FF403FC0
FF403FC0
FF403FC0
FF403FC0
FF403FC0
FF403FC0
00003FC0
00007F80
0000BF80
000FFF40
000FFE00
001FE400
ENDCHAR
STARTCHAR Jcircumflex
ENCODING 308
SWIDTH 600 0
DWIDTH 17 0
BBX 13 23 2 0
BITMAP
007FE000
01FFF800
07F4BE00
02802900
00000000
2FFFFF40
2FFFFF40
2FFFFF40
0000BF40
0000BF40
0000BF40
0000BF40
0000BF40
0000BF40
0000BF40
0000BF40
0000BF40
0000BF40
1800FF40
7E42FF00
FFFFFD00
7FFFF400
06FE8000
ENDCHAR
STARTCHAR jcircumflex
ENCODING 309
SWIDTH 600 0
DWIDTH 17 0
BBX 14 27 1 -6
BITMAP
000BFD00
002FFF00
00BFBF80
01FD0BE0
00600180
00000000
00000000
2FFFFC00
2FFFFC00
2FFFFC00
0007FC00
0007FC00
0007FC00
0007FC00
0007FC00
0007FC00
0007FC00
0007FC00
0007FC00
0007FC00
0007FC00
0007FC00
0007F800
141FF400
3FFFF000
BFFFD000
6BF90000
ENDCHAR
STARTCHAR uni0136
ENCODING 310
SWIDTH 600 0
DWIDTH 17 0
BBX 15 25 2 -7
BITMAP
FF002FE0
FF00BFC0
FF01FF40
FF03FD00
FF0BF800
FF1FF000
FF7FD000
FFFFC000
FFFFD000
FFFFF000
FFFBF400
FFD7FC00
FF82FE00
FF01FF00
FF00BF80
FF007FD0
FF002FE0
FF001FF4
00000000
001E4000
002FD000
000BE000
000BE000
00FFC000
00B90000
ENDCHAR
STARTCHAR uni0137
ENCODING 311
SWIDTH 600 0
DWIDTH 17 0
BBX 14 27 2 -7
BITMAP
FF400000
FF400000
FF400000
FF400000
FF400000
FF400000
FF403FD0
FF40FF80
FF42FE00
FF4BF800
FF6FE000
FFBFC000
FFFFD000
FFFFF000
FFFBF800
FFD3FD00
FF41FF00
FF40BF80
FF403FD0
FF401FF0
00000000
001E4000
002FD000
000BE000
000BE000
00FFC000
00F90000
ENDCHAR
STARTCHAR kgreenlandic
ENCODING 312
SWIDTH 600 0
DWIDTH 17 0
BBX 14 14 2 0
BITMAP
FF403FD0
FF40FF80
FF42FE00
FF4BF800
FF6FE000
FFBFC000
FFFFD000
FFFFF000
FFFBF800
FFD3FD00
FF41FF00
FF40BF80
FF403FD0
FF401FF0
ENDCHAR
STARTCHAR Lacute
ENCODING 313
SWIDTH 600 0
DWIDTH 17 0
BBX 13 25 3 0
BITMAP
01800000
07E00000
2FF40000
BFD00000
FE000000
24000000
00000000
FF000000
FF000000
FF000000
FF000000
FF000000
FF000000
FF000000
FF000000
FF000000
FF000000
FF000000
FF000000
FF000000
FF000000
FF000000
FFFFFF40
FFFFFF40
FFFFFF40
ENDCHAR
STARTCHAR lacute
ENCODING 314
SWIDTH 600 0
DWIDTH 17 0
BBX 14 27 1 0
BITMAP
00008000
0007E000
001FF800
00BFE000
00BE4000
00240000
00000000
BFFFC000
BFFFC000
BFFFC000
007FC000
007FC000
007FC000
007FC000
007FC000
007FC000
007FC000
007FC000
007FC000
007FC000
007FC000
007FC000
003FC000
003FE040
001FFFE0
000BFFF0
0001BFA0
ENDCHAR
STARTCHAR uni013B
ENCODING 315
SWIDTH 600 0
DWIDTH 17 0
BBX 13 25 3 -7
BITMAP
FF000000
FF000000
FF000000
FF000000
FF000000
FF000000
FF000000
FF000000
FF000000
FF000000
FF000000
FF000000
FF000000
FF000000
FF000000
FFFFFF40
FFFFFF40
FFFFFF40
00000000
00390000
007F8000
001FC000
001FC000
02FF4000
02E80000
ENDCHAR
STARTCHAR uni013C
ENCODING 316
SWIDTH 600 0
DWIDTH 17 0
BBX 14 27 1 -7
BITMAP
BFFFC000
BFFFC000
BFFFC000
007FC000
007FC000
007FC000
007FC000
007FC000
007FC000
007FC000
007FC000
007FC000
007FC000
007FC000
007FC000
003FC000
003FE040
001FFFE0
000BFFF0
0001BFA0
00000000
0001E400
0002FE00
00007F00
00007E00
000BFD00
000BA000
ENDCHAR
STARTCHAR Lcaron
ENCODING 317
SWIDTH 600 0
DWIDTH 17 0
BBX 13 22 3 0
BITMAP
0003F800
0002F800
0002F800
0002F800
FF02F800
FF02F400
FF02F400
FF02F000
FF000000
FF000000
FF000000
FF000000
FF000000
FF000000
FF000000
FF000000
FF000000
FF000000
FF000000
FFFFFF40
FFFFFF40
FFFFFF40
ENDCHAR
STARTCHAR lcaron
ENCODING 318
SWIDTH 600 0
DWIDTH 17 0
BBX 14 23 1 0
BITMAP
00000BF0
00000BF0
00000BF0
BFFFCBF0
BFFFC7E0
BFFFC7E0
007FC7E0
007FC7D0
007FC000
007FC000
007FC000
007FC000
007FC000
007FC000
007FC000
007FC000
007FC000
007FC000
003FC000
003FE040
001FFFE0
000BFFF0
0001BFA0
ENDCHAR
STARTCHAR Ldot
ENCODING 319
SWIDTH 600 0
DWIDTH 17 0
BBX 13 18 3 0
BITMAP
FF000000
FF000000
FF000000
FF000000
FF000000
FF000000
FF007E00
FF01FF80
FF01FFC0
FF01FF80
FF007E00
FF000000
FF000000
FF000000
FF000000
FFFFFF40
FFFFFF40
FFFFFF40
ENDCHAR
STARTCHAR ldot
ENCODING 320
SWIDTH 600 0
DWIDTH 17 0
BBX 19 20 0 0
BITMAP
FFFF800000
FFFF800000
FFFF800000
00BF800000
00BF800000
00BF800000
00BF800000
00BF800000
00BF801B90
00BF803FF0
00BF803FF4
00BF803FF0
00BF801B90
00BF800000
00BF800000
007F800000
007FD04000
003FFFD000
001FFFE000
0002FF9000
ENDCHAR
STARTCHAR Lslash
ENCODING 321
SWIDTH 600 0
DWIDTH 17 0
BBX 16 18 0 0
BITMAP
03FC0000
03FC0000
03FC0000
03FC0000
03FC0000
03FC0780
03FC7FD0
03FEFF80
03FFF900
0BFFD000
BFFE0000
BFFC0000
7BFC0000
03FC0000
03FC0000
03FFFFFD
03FFFFFD
03FFFFFD
ENDCHAR
STARTCHAR lslash
ENCODING 322
SWIDTH 600 0
DWIDTH 17 0
BBX 14 20 1 0
BITMAP
BFFFC000
BFFFC000
BFFFC000
007FC000
007FC000
007FC680
007FEFD0
007FFFD0
00BFFE00
07FFE400
2FFFC000
1FFFC000
0D7FC000
007FC000
007FC000
003FC000
003FE040
001FFFE0
000BFFF0
0001BFA0
ENDCHAR
STARTCHAR Nacute
ENCODING 323
SWIDTH 600 0
DWIDTH 17 0
BBX 13 25 2 0
BITMAP
00008000
0007E000
001FF800
00BFD000
00BE4000
00240000
00000000
FF403FC0
FF803FC0
FFC03FC0
FFE03FC0
FFF03FC0
FEF43FC0
FDFC3FC0
FDBD3FC0
FE7E3FC0
FE3F2FC0
FE1FAFC0
FE0FEFC0
FE0BEFC0
FE07FFC0
FE02FFC0
FE01FFC0
FE00FFC0
FE007FC0
ENDCHAR
STARTCHAR nacute
ENCODING 324
SWIDTH 600 0
DWIDTH 17 0
BBX 13 23 2 0
BITMAP
00009000
0001F400
0007FD00
000FF800
003FE000
002F4000
00090000
00000000
00000000
FD0BF800
FE7FFF00
FFFFFF80
FFE0BFC0
FF803FC0
FF003FC0
FF003FC0
FF003FC0
FF003FC0
FF003FC0
FF003FC0
FF003FC0
FF003FC0
FF003FC0
ENDCHAR
STARTCHAR uni0145
ENCODING 325
SWIDTH 600 0
DWIDTH 17 0
BBX 13 25 2 -7
BITMAP
FF403FC0
FF803FC0
FFC03FC0
FFE03FC0
FFF03FC0
FEF43FC0
FDFC3FC0
FDBD3FC0
FE7E3FC0
FE3F2FC0
FE1FAFC0
FE0FEFC0
FE0BEFC0
FE07FFC0
FE02FFC0
FE01FFC0
FE00FFC0
FE007FC0
00000000
00390000
007F8000
001FC000
001FC000
02FF4000
02E90000
ENDCHAR
STARTCHAR uni0146
ENCODING 326
SWIDTH 600 0
DWIDTH 17 0
BBX 13 21 2 -7
BITMAP
FD0BF800
FE7FFF00
FFFFFF80
FFE0BFC0
FF803FC0
FF003FC0
FF003FC0
FF003FC0
FF003FC0
FF003FC0
FF003FC0
FF003FC0
FF003FC0
FF003FC0
00000000
003A0000
007FC000
001FD000
001FC000
01FF8000
01E90000
ENDCHAR
STARTCHAR Ncaron
ENCODING 327
SWIDTH 600 0
DWIDTH 17 0
BBX 13 24 2 0
BITMAP
06402400
0BE1FC00
02FFF400
00FFD000
00000000
00000000
FF403FC0
FF803FC0
FFC03FC0
FFE03FC0
FFF03FC0
FEF43FC0
FDFC3FC0
FDBD3FC0
FE7E3FC0
FE3F2FC0
FE1FAFC0
FE0FEFC0
FE0BEFC0
FE07FFC0
FE02FFC0
FE01FFC0
FE00FFC0
FE007FC0
ENDCHAR
STARTCHAR ncaron
ENCODING 328
SWIDTH 600 0
DWIDTH 17 0
BBX 13 21 2 0
BITMAP
06001800
0FD0BE00
07FBFC00
02FFF400
00BFD000
00000000
00000000
FD0BF800
FE7FFF00
FFFFFF80
FFE0BFC0
FF803FC0
FF003FC0
FF003FC0
FF003FC0
FF003FC0
FF003FC0
FF003FC0
FF003FC0
FF003FC0
FF003FC0
ENDCHAR
STARTCHAR napostrophe
ENCODING 329
SWIDTH 600 0
DWIDTH 17 0
BBX 20 19 -2 0
BITMAP
1B90000000
3FF0000000
7FF4000000
3FF8000000
1FF8000000
01F8FD1BE4
02F4FE7FFC
07E0FFFFFE
2FD0FFD2FE
3F40FF81FF
1800FF00FF
0000FF00FF
0000FF00FF
0000FF00FF
0000FF00FF
0000FF00FF
0000FF00FF
0000FF00FF
0000FF00FF
ENDCHAR
STARTCHAR Eng
ENCODING 330
SWIDTH 600 0
DWIDTH 17 0
BBX 15 18 1 0
BITMAP
7F86F900
7FEFFF40
7FFFFFD0
7FF47FE0
7FD01FF0
7FC00FF4
7FC00BF4
7FC00BF4
7FC00BF8
7FC00BF8
7FC00BF8
7FC00BF4
7FC00FF4
7FC00FF0
7FC01FF0
7FC2FFD0
7FC3FF80
7FC2F900
ENDCHAR
STARTCHAR eng
ENCODING 331
SWIDTH 600 0
DWIDTH 17 0
BBX 13 20 2 -6
BITMAP
FD0BF800
FE7FFF00
FFFFFF80
FFE0BFC0
FF807FC0
FF003FC0
FF003FC0
FF003FC0
FF003FC0
FF003FC0
FF003FC0
FF003FC0
FF003FC0
FF003FC0
00003FC0
00003FC0
00007F80
000BFF40
000BFE00
000BF800
ENDCHAR
STARTCHAR Omacron
ENCODING 332
SWIDTH 600 0
DWIDTH 17 0
BBX 15 23 1 0
BITMAP
02FFFE00
02FFFE00
02FFFE00
00000000
00000000
006FE400
07FFFE00
0FFFFF80
2FF47FE0
3FD01FF0
BF800FF4
BF400BF8
FF400BF8
FF400BF8
FF400BF8
FF400BF8
BF800BF4
7F800FF4
3FD01FF0
2FF47FD0
0FFFFF80
03FFFE00
006FE400
ENDCHAR
STARTCHAR omacron
ENCODING 333
SWIDTH 600 0
DWIDTH 17 0
BBX 15 19 1 0
BITMAP
02FFFE00
02FFFE00
02FFFE00
00000000
00000000
006FE400
07FFFE00
1FFFFFC0
2FE07FE0
7FC01FF0
BF800FF4
BF800BF4
BF800BF4
BF800FF4
7FC01FF0
2FE07FE0
1FFFFFC0
07FFFE00
006FE400
ENDCHAR
STARTCHAR Obreve
ENCODING 334
SWIDTH 600 0
DWIDTH 17 0
BBX 15 24 1 0
BITMAP
02D01E00
03F47E00
01FFFC00
006FE000
00000000
00000000
006FE400
07FFFE00
0FFFFF80
2FF47FE0
3FD01FF0
BF800FF4
BF400BF8
FF400BF8
FF400BF8
FF400BF8
FF400BF8
BF800BF4
7F800FF4
3FD01FF0
2FF47FD0
0FFFFF80
03FFFE00
006FE400
ENDCHAR
STARTCHAR obreve
ENCODING 335
SWIDTH 600 0
DWIDTH 17 0
BBX 15 22 1 0
BITMAP
00400400
07D02F00
03F47F00
02FFFE00
01FFFC00
002FE000
00000000
00000000
006FE400
07FFFE00
1FFFFFC0
2FE07FE0
7FC01FF0
BF800FF4
BF800BF4
BF800BF4
BF800FF4
7FC01FF0
2FE07FE0
1FFFFFC0
07FFFE00
006FE400
ENDCHAR
STARTCHAR Ohungarumlaut
ENCODING 336
SWIDTH 600 0
DWIDTH 17 0
BBX 15 25 1 0
BITMAP
00090280
002F87F0
007E0FD0
00FC2F40
00A01D00
00000000
00000000
006FE400
07FFFE00
0FFFFF80
2FF47FE0
3FD01FF0
BF800FF4
BF400BF8
FF400BF8
FF400BF8
FF400BF8
FF400BF8
BF800BF4
7F800FF4
3FD01FF0
2FF47FD0
0FFFFF80
03FFFE00
006FE400
ENDCHAR
STARTCHAR ohungarumlaut
ENCODING 337
SWIDTH 600 0
DWIDTH 17 0
BBX 15 22 1 0
BITMAP
00090240
002F8BE0
003F0FC0
00BD2F80
00FC3F00
00641900
00000000
00000000
006FE400
07FFFE00
1FFFFFC0
2FE07FE0
7FC01FF0
BF800FF4
BF800BF4
BF800BF4
BF800FF4
7FC01FF0
2FE07FE0
1FFFFFC0
07FFFE00
006FE400
ENDCHAR
STARTCHAR OE
ENCODING 338
SWIDTH 600 0
DWIDTH 17 0
BBX 17 18 0 0
BITMAP
002BFFFF40
01FFFFFF40
0BFFFFFF40
1FF4BF0000
2FD0BF0000
3FC0BF0000
7FC0BF0000
7F80BFFD00
7F80BFFD00
7F80BFFD00
7F80BF0000
7FC0BF0000
3FC0BF0000
2FE0BF0000
1FF4BF0000
0BFFFFFF80
02FFFFFF80
006FFFFF80
ENDCHAR
STARTCHAR oe
ENCODING 339
SWIDTH 600 0
DWIDTH 17 0
BBX 17 14 0 0
BITMAP
01F907E400
0BFF6FFD00
2FFFFFFE00
3F87F83F40
7F43F42F40
BF02FFFF80
BF02FFFF80
BF02FFFF80
BF02F40000
7F43F80000
3F87FD0400
2FFFFFFD00
0BFF6FFF00
02FD06F900
ENDCHAR
STARTCHAR Racute
ENCODING 340
SWIDTH 600 0
DWIDTH 17 0
BBX 14 25 2 0
BITMAP
00018000
0007E000
002FF400
00BFD000
00FE0000
00240000
00000000
FFFFA400
FFFFFE00
FFFFFF80
FF01BFC0
FF003FD0
FF002FD0
FF002FD0
FF003FD0
FF01BFC0
FFFFFF40
FFFFFD00
FFFFF400
FF07FC00
FF03FE00
FF01FF40
FF00BF80
FF003FD0
FF002FF0
ENDCHAR
STARTCHAR racute
ENCODING 341
SWIDTH 600 0
DWIDTH 17 0
BBX 12 23 3 0
BITMAP
000090
0001F4
0007FD
001FF8
003FE0
002F40
000900
000000
000000
BE06FE
BE2FFF
BFBFFE
BFF901
BFD000
BF8000
BF4000
BF4000
BF4000
BF4000
BF4000
BF4000
BF4000
BF4000
ENDCHAR
STARTCHAR uni0156
ENCODING 342
SWIDTH 600 0
DWIDTH 17 0
BBX 14 25 2 -7
BITMAP
FFFFA400
FFFFFE00
FFFFFF80
FF01BFC0
FF003FD0
FF002FD0
FF002FD0
FF003FD0
FF01BFC0
FFFFFF40
FFFFFD00
FFFFF400
FF07FC00
FF03FE00
FF01FF40
FF00BF80
FF003FD0
FF002FF0
00000000
002E4000
003FD000
000BE000
001BD000
00FFC000
00F90000
ENDCHAR
STARTCHAR uni0157
ENCODING 343
SWIDTH 600 0
DWIDTH 17 0
BBX 13 21 2 -7
BITMAP
2F81BF80
2F8BFFC0
2FEFFF80
2FFE4040
2FF40000
2FE00000
2FD00000
2FD00000
2FD00000
2FD00000
2FD00000
2FD00000
2FD00000
2FD00000
00000000
0E800000
1FE00000
07F00000
07F00000
BFD00000
7A400000
ENDCHAR
STARTCHAR Rcaron
ENCODING 344
SWIDTH 600 0
DWIDTH 17 0
BBX 14 24 2 0
BITMAP
06406400
0FD2F800
03FFF000
01FFC000
00000000
00000000
FFFFA400
FFFFFE00
FFFFFF80
FF01BFC0
FF003FD0
FF002FD0
FF002FD0
FF003FD0
FF01BFC0
FFFFFF40
FFFFFD00
FFFFF400
FF07FC00
FF03FE00
FF01FF40
FF00BF80
FF003FD0
FF002FF0
ENDCHAR
STARTCHAR rcaron
ENCODING 345
SWIDTH 600 0
DWIDTH 17 0
BBX 12 21 3 0
BITMAP
060018
0FD0BE
07FBFC
02FFF4
00BFD0
000000
000000
BE06FE
BE2FFF
BFBFFE
BFF901
BFD000
BF8000
BF4000
BF4000
BF4000
BF4000
BF4000
BF4000
BF4000
BF4000
ENDCHAR
STARTCHAR Sacute
ENCODING 346
SWIDTH 600 0
DWIDTH 17 0
BBX 15 25 1 0
BITMAP
00002400
0000FC00
0007FE00
001FF800
001FD000
000A0000
00000000
006FF900
02FFFF90
0FFFFFD0
2FE41B80
2FD00100
3FE00000
2FF90000
1FFFE000
07FFFE00
01BFFFD0
000BFFF0
00007FF4
00000FF4
09000FF4
1F901FF0
7FFFFFD0
1FFFFF40
01BFE400
ENDCHAR
STARTCHAR sacute
ENCODING 347
SWIDTH 600 0
DWIDTH 17 0
BBX 14 23 1 0
BITMAP
00002400
00007D00
0001FF40
0007FE00
000FF800
000FD000
00024000
00000000
00000000
006FE900
07FFFF90
1FFFFFD0
2FE01B80
2FE00000
1FFF9000
0BFFFE40
01BFFFD0
0006BFF0
04001FF0
2F901FF0
7FFFFFE0
1FFFFF80
01BFE900
ENDCHAR
STARTCHAR Scircumflex
ENCODING 348
SWIDTH 600 0
DWIDTH 17 0
BBX 15 23 1 0
BITMAP
002FF800
00BFFD00
01F87F40
00A00A00
00000000
006FF900
02FFFF90
0FFFFFD0
2FE41B80
2FD00100
3FE00000
2FF90000
1FFFE000
07FFFE00
01BFFFD0
000BFFF0
00007FF4
00000FF4
09000FF4
1F901FF0
7FFFFFD0
1FFFFF40
01BFE400
ENDCHAR
STARTCHAR scircumflex
ENCODING 349
SWIDTH 600 0
DWIDTH 17 0
BBX 14 21 1 0
BITMAP
002FF400
00BFFD00
01FEFF00
03F42F80
01800600
00000000
00000000
006FE900
07FFFF90
1FFFFFD0
2FE01B80
2FE00000
1FFF9000
0BFFFE40
01BFFFD0
0006BFF0
04001FF0
2F901FF0
7FFFFFE0
1FFFFF80
01BFE900
ENDCHAR
STARTCHAR uni015E
ENCODING 350
SWIDTH 600 0
DWIDTH 17 0
BBX 15 25 1 -7
BITMAP
006FF900
02FFFF90
0FFFFFD0
2FE41B80
2FD00100
3FE00000
2FF90000
1FFFE000
07FFFE00
01BFFFD0
000BFFF0
00007FF4
00000FF4
09000FF4
1F901FF0
7FFFFFD0
1FFFFF40
01BFE400
000B8000
001F4000
002FD000
0007F000
0007F000
00BFE000
007E4000
ENDCHAR
STARTCHAR uni015F
ENCODING 351
SWIDTH 600 0
DWIDTH 17 0
BBX 14 21 1 -7
BITMAP
006FE900
07FFFF90
1FFFFFD0
2FE01B80
2FE00000
1FFF9000
0BFFFE40
01BFFFD0
0006BFF0
04001FF0
2F901FF0
7FFFFFE0
1FFFFF80
01BFE900
000BC000
000F4000
001FD000
0006F400
0006F400
007FE000
007E4000
ENDCHAR
STARTCHAR Scaron
ENCODING 352
SWIDTH 600 0
DWIDTH 17 0
BBX 15 24 1 0
BITMAP
00A00A00
01F87F40
00BFFD00
002FF800
00000000
00000000
006FF900
02FFFF90
0FFFFFD0
2FE41B80
2FD00100
3FE00000
2FF90000
1FFFE000
07FFFE00
01BFFFD0
000BFFF0
00007FF4
00000FF4
09000FF4
1F901FF0
7FFFFFD0
1FFFFF40
01BFE400
ENDCHAR
STARTCHAR scaron
ENCODING 353
SWIDTH 600 0
DWIDTH 17 0
BBX 14 21 1 0
BITMAP
01800600
03F42F80
01FEFF00
00BFFD00
002FF400
00000000
00000000
006FE900
07FFFF90
1FFFFFD0
2FE01B80
2FE00000
1FFF9000
0BFFFE40
01BFFFD0
0006BFF0
04001FF0
2F901FF0
7FFFFFE0
1FFFFF80
01BFE900
ENDCHAR
STARTCHAR uni0162
ENCODING 354
SWIDTH 600 0
DWIDTH 17 0
BBX 15 25 1 -7
BITMAP
FFFFFFFC
FFFFFFFC
FFFFFFFC
002FD000
002FD000
002FD000
002FD000
002FD000
002FD000
002FD000
002FD000
002FD000
002FD000
002FD000
002FD000
002FD000
002FD000
002FD000
000F8000
001F0000
002F9000
0007F000
0007F000
00BFE000
00BA4000
ENDCHAR
STARTCHAR uni0163
ENCODING 355
SWIDTH 600 0
DWIDTH 17 0
BBX 15 25 1 -7
BITMAP
007F0000
00BF0000
00BF0000
00FF0000
BFFFFFF0
BFFFFFF0
BFFFFFF0
00FF0000
00FF0000
00FF0000
00FF0000
00FF0000
00FF0000
00FF4000
00BFD050
007FFFF0
002FFFF4
0006FFA0
0000B800
0001F400
0002FD00
00007F00
00007F00
000BFE00
0007E400
ENDCHAR
STARTCHAR Tcaron
ENCODING 356
SWIDTH 600 0
DWIDTH 17 0
BBX 15 24 1 0
BITMAP
01901900
03F4BE00
01FFFC00
007FF000
00000000
00000000
FFFFFFFC
FFFFFFFC
FFFFFFFC
002FD000
002FD000
002FD000
002FD000
002FD000
002FD000
002FD000
002FD000
002FD000
002FD000
002FD000
002FD000
002FD000
002FD000
002FD000
ENDCHAR
STARTCHAR tcaron
ENCODING 357
SWIDTH 600 0
DWIDTH 17 0
BBX 15 23 1 0
BITMAP
00001FD0
00001FD0
00001FD0
00001FC0
00001FC0
007F1FC0
00BF1F80
00BF1F80
00FF0000
BFFFFFF0
BFFFFFF0
BFFFFFF0
00FF0000
00FF0000
00FF0000
00FF0000
00FF0000
00FF0000
00FF4000
00BFD050
007FFFF0
002FFFF4
0006FFA0
ENDCHAR
STARTCHAR Tbar
ENCODING 358
SWIDTH 600 0
DWIDTH 17 0
BBX 15 18 1 0
BITMAP
FFFFFFFC
FFFFFFFC
FFFFFFFC
002FD000
002FD000
002FD000
002FD000
1FFFFFD0
1FFFFFD0
1FFFFFD0
002FD000
002FD000
002FD000
002FD000
002FD000
002FD000
002FD000
002FD000
ENDCHAR
STARTCHAR tbar
ENCODING 359
SWIDTH 600 0
DWIDTH 17 0
BBX 15 19 1 0
BITMAP
00150000
00BF0000
00BF0000
00BF0000
00FF0000
BFFFFFF0
BFFFFFF0
BFFFFFF0
00FF0000
00FF0000
7FFFFFD0
BFFFFFD0
BFFFFFD0
00FF0000
00FF4000
00FF9050
007FFFF0
002FFFF4
0006FFA0
ENDCHAR
STARTCHAR Utilde
ENCODING 360
SWIDTH 600 0
DWIDTH 17 0
BBX 14 24 1 0
BITMAP
01F90A80
07FF4F80
0BFFFF80
0FCBFF00
0A41F900
00000000
7FC00FF0
7FC00FF0
7FC00FF0
7FC00FF0
7FC00FF0
7FC00FF0
7FC00FF0
7FC00FF0
7FC00FF0
7FC00FF0
7FC00FF0
7FC00FF0
3FC00FF0
3FD01FE0
2FE47FD0
0FFFFF80
07FFFF00
00AFE400
ENDCHAR
STARTCHAR utilde
ENCODING 361
SWIDTH 600 0
DWIDTH 17 0
BBX 14 21 1 0
BITMAP
01B80A40
07FF5F80
0BFFFF40
0FCBFF00
0A41F800
00000000
00000000
7FC01FE0
7FC01FE0
7FC01FE0
7FC01FE0
7FC01FE0
7FC01FE0
7FC01FE0
7FC01FE0
7FC01FE0
7FC03FE0
3FE0BFE0
2FFFFFE0
1FFFDFE0
06FE0BE0
ENDCHAR
STARTCHAR Umacron
ENCODING 362
SWIDTH 600 0
DWIDTH 17 0
BBX 14 23 1 0
BITMAP
02FFFE00
02FFFE00
02FFFE00
00000000
00000000
7FC00FF0
7FC00FF0
7FC00FF0
7FC00FF0
7FC00FF0
7FC00FF0
7FC00FF0
7FC00FF0
7FC00FF0
7FC00FF0
7FC00FF0
7FC00FF0
3FC00FF0
3FD01FE0
2FE47FD0
0FFFFF80
07FFFF00
00AFE400
ENDCHAR
STARTCHAR umacron
ENCODING 363
SWIDTH 600 0
DWIDTH 17 0
BBX 14 19 1 0
BITMAP
02FFFD00
02FFFD00
02FFFD00
00000000
00000000
7FC01FE0
7FC01FE0
7FC01FE0
7FC01FE0
7FC01FE0
7FC01FE0
7FC01FE0
7FC01FE0
7FC01FE0
7FC03FE0
3FE0BFE0
2FFFFFE0
1FFFDFE0
06FE0BE0
ENDCHAR
STARTCHAR Ubreve
ENCODING 364
SWIDTH 600 0
DWIDTH 17 0
BBX 14 24 1 0
BITMAP
02D01E00
03F47E00
01FFFC00
006FE000
00000000
00000000
7FC00FF0
7FC00FF0
7FC00FF0
7FC00FF0
7FC00FF0
7FC00FF0
7FC00FF0
7FC00FF0
7FC00FF0
7FC00FF0
7FC00FF0
7FC00FF0
3FC00FF0
3FD01FE0
2FE47FD0
0FFFFF80
07FFFF00
00AFE400
ENDCHAR
STARTCHAR ubreve
ENCODING 365
SWIDTH 600 0
DWIDTH 17 0
BBX 14 22 1 0
BITMAP
00400400
07D02F00
03E47F00
03FFFD00
01FFF800
006FE000
00000000
00000000
7FC01FE0
7FC01FE0
7FC01FE0
7FC01FE0
7FC01FE0
7FC01FE0
7FC01FE0
7FC01FE0
7FC01FE0
7FC03FE0
3FE0BFE0
2FFFFFE0
1FFFDFE0
06FE0BE0
ENDCHAR
STARTCHAR Uring
ENCODING 366
SWIDTH 600 0
DWIDTH 17 0
BBX 14 25 1 0
BITMAP
001F9000
007FF400
00B4B800
00B4B800
007FF400
001F9000
00000000
7FC00FF0
7FC00FF0
7FC00FF0
7FC00FF0
7FC00FF0
7FC00FF0
7FC00FF0
7FC00FF0
7FC00FF0
7FC00FF0
7FC00FF0
7FC00FF0
3FC00FF0
3FD01FE0
2FE47FD0
0FFFFF80
07FFFF00
00AFE400
ENDCHAR
STARTCHAR uring
ENCODING 367
SWIDTH 600 0
DWIDTH 17 0
BBX 14 23 1 0
BITMAP
002FD000
00BFF400
01F4BC00
01F0BC00
01F4BC00
00BFF400
002FD000
00000000
00000000
7FC01FE0
7FC01FE0
7FC01FE0
7FC01FE0
7FC01FE0
7FC01FE0
7FC01FE0
7FC01FE0
7FC01FE0
7FC03FE0
3FE0BFE0
2FFFFFE0
1FFFDFE0
06FE0BE0
ENDCHAR
STARTCHAR Uhungarumlaut
ENCODING 368
SWIDTH 600 0
DWIDTH 17 0
BBX 14 25 1 0
BITMAP
00090280
002F87F0
007E0FD0
00FC2F40
00A01D00
00000000
00000000
7FC00FF0
7FC00FF0
7FC00FF0
7FC00FF0
7FC00FF0
7FC00FF0
7FC00FF0
7FC00FF0
7FC00FF0
7FC00FF0
7FC00FF0
7FC00FF0
3FC00FF0
3FD01FE0
2FE47FD0
0FFFFF80
07FFFF00
00AFE400
ENDCHAR
STARTCHAR uhungarumlaut
ENCODING 369
SWIDTH 600 0
DWIDTH 17 0
BBX 14 22 1 0
BITMAP
00090240
002F8BE0
003F0FC0
00BD2F40
00F83E00
00641900
00000000
00000000
7FC01FE0
7FC01FE0
7FC01FE0
7FC01FE0
7FC01FE0
7FC01FE0
7FC01FE0
7FC01FE0
7FC01FE0
7FC03FE0
3FE0BFE0
2FFFFFE0
1FFFDFE0
06FE0BE0
ENDCHAR
STARTCHAR Uogonek
ENCODING 370
SWIDTH 600 0
DWIDTH 17 0
BBX 14 25 1 -7
BITMAP
7FC00FF0
7FC00FF0
7FC00FF0
7FC00FF0
7FC00FF0
7FC00FF0
7FC00FF0
7FC00FF0
7FC00FF0
7FC00FF0
7FC00FF0
7FC00FF0
3FC00FF0
3FD01FE0
2FE47FD0
0FFFFF80
07FFFE00
00AFF400
000BC000
002F0000
003E0000
007F0000
003FF400
002FFC00
000BE400
ENDCHAR
STARTCHAR uogonek
ENCODING 371
SWIDTH 600 0
DWIDTH 17 0
BBX 15 21 1 -7
BITMAP
7FC01FE0
7FC01FE0
7FC01FE0
7FC01FE0
7FC01FE0
7FC01FE0
7FC01FE0
7FC01FE0
7FC01FE0
7FC03FE0
3FE0BFE0
2FFFFFE0
1FFFDFE0
06FE0BE0
00001F40
00007D00
0000B800
0000FD00
0000FFE0
0000BFF4
00002F90
ENDCHAR
STARTCHAR Wcircumflex
ENCODING 372
SWIDTH 600 0
DWIDTH 17 0
BBX 17 23 0 0
BITMAP
001FFC0000
007FFF0000
00FD2F8000
0064064000
0000000000
BF40007F80
BF40007F80
BF80007F40
7F80007F40
7F8150BF00
3F83F0BF00
3F87F4BF00
3F87F8BE00
2FCBF8BE00
2FCFBCBE00
1FCFBDFD00
1FDF7DFD00
1FEF3EFC00
0FEE3FFC00
0FFD2FFC00
0BFD1FF800
0BFC1FF800
0BFC0FF800
ENDCHAR
STARTCHAR wcircumflex
ENCODING 373
SWIDTH 600 0
DWIDTH 17 0
BBX 17 21 0 0
BITMAP
001FFC0000
003FFE0000
00BFBF8000
01F81FD000
00A0028000
0000000000
0000000000
BF00007F80
BF40007F40
7F43F07F40
7F87F4BF00
3F8BF8BF00
3F8BF8BF00
3FCFBCFE00
2FCF7CFE00
2FDF7DFD00
1FEF3EFD00
1FFE3FFC00
0FFE2FFC00
0FFD2FF800
0BFD1FF800
ENDCHAR
STARTCHAR Ycircumflex
ENCODING 374
SWIDTH 600 0
DWIDTH 17 0
BBX 16 23 0 0
BITMAP
001FFC00
007FFF00
00FD2F80
00640640
00000000
7FC001FF
2FE002FE
1FF003FC
0BF407F8
07F80FF0
03FD1FE0
01FE2FC0
00FF7F80
007FFF00
003FFE00
001FFD00
000FF800
000BF400
000BF400
000BF400
000BF400
000BF400
000BF400
ENDCHAR
STARTCHAR ycircumflex
ENCODING 375
SWIDTH 600 0
DWIDTH 17 0
BBX 15 27 1 -6
BITMAP
003FF400
00BFFC00
02FEFE00
07F42F80
01800A00
00000000
00000000
FF0003F8
7F8007F4
3FC00BF0
2FD00FE0
0FE01FD0
0BF02FC0
07F43F80
02F87F00
01FCBE00
00FDFD00
007FFC00
003FF800
002FF400
001FF000
001FE000
003FC000
00BF8000
2FFF0000
2FFD0000
3FE00000
ENDCHAR
STARTCHAR Ydieresis
ENCODING 376
SWIDTH 600 0
DWIDTH 17 0
BBX 16 24 0 0
BITMAP
00B80B80
02FD1FD0
02FD1FD0
00B80B80
00000000
00000000
7FC001FF
2FE002FE
1FF003FC
0BF407F8
07F80FF0
03FD1FE0
01FE2FC0
00FF7F80
007FFF00
003FFE00
001FFD00
000FF800
000BF400
000BF400
000BF400
000BF400
000BF400
000BF400
ENDCHAR
STARTCHAR Zacute
ENCODING 377
SWIDTH 600 0
DWIDTH 17 0
BBX 15 25 1 0
BITMAP
00002400
0000FC00
0007FE00
001FF800
001FD000
000A0000
00000000
2FFFFFF4
2FFFFFF4
2FFFFFF0
00007FD0
0000FF80
0002FF00
0007FD00
000BF800
002FF000
007FD000
00BF8000
01FF0000
07FD0000
0BF80000
1FF00000
3FFFFFF4
7FFFFFF4
7FFFFFF4
ENDCHAR
STARTCHAR zacute
ENCODING 378
SWIDTH 600 0
DWIDTH 17 0
BBX 13 23 2 0
BITMAP
00006000
0000F800
0002FE00
000BFD00
002FF000
002F8000
00060000
00000000
00000000
7FFFFFC0
7FFFFFC0
7FFFFF40
0007FE00
000FF800
002FF000
00BFD000
01FF4000
07FE0000
0FF80000
2FF00000
BFFFFFC0
FFFFFFC0
FFFFFFC0
ENDCHAR
STARTCHAR Zdotaccent
ENCODING 379
SWIDTH 600 0
DWIDTH 17 0
BBX 15 24 1 0
BITMAP
000BD000
001FF400
002FF400
001FF400
000BD000
00000000
2FFFFFF4
2FFFFFF4
2FFFFFF0
00007FD0
0000FF80
0002FF00
0007FD00
000BF800
002FF000
007FD000
00BF8000
01FF0000
07FD0000
0BF80000
1FF00000
3FFFFFF4
7FFFFFF4
7FFFFFF4
ENDCHAR
STARTCHAR zdotaccent
ENCODING 380
SWIDTH 600 0
DWIDTH 17 0
BBX 13 21 2 0
BITMAP
001F8000
007FE000
00BFF000
007FE000
001F8000
00000000
00000000
7FFFFFC0
7FFFFFC0
7FFFFF40
0007FE00
000FF800
002FF000
00BFD000
01FF4000
07FE0000
0FF80000
2FF00000
BFFFFFC0
FFFFFFC0
FFFFFFC0
ENDCHAR
STARTCHAR Zcaron
ENCODING 381
SWIDTH 600 0
DWIDTH 17 0
BBX 15 24 1 0
BITMAP
00A00A00
01F87F40
00BFFD00
002FF800
00000000
00000000
2FFFFFF4
2FFFFFF4
2FFFFFF0
00007FD0
0000FF80
0002FF00
0007FD00
000BF800
002FF000
007FD000
00BF8000
01FF0000
07FD0000
0BF80000
1FF00000
3FFFFFF4
7FFFFFF4
7FFFFFF4
ENDCHAR
STARTCHAR zcaron
ENCODING 382
SWIDTH 600 0
DWIDTH 17 0
BBX 13 21 2 0
BITMAP
02400900
0BE07F00
03FEFD00
01FFF800
007FE000
00000000
00000000
7FFFFFC0
7FFFFFC0
7FFFFF40
0007FE00
000FF800
002FF000
00BFD000
01FF4000
07FE0000
0FF80000
2FF00000
BFFFFFC0
FFFFFFC0
FFFFFFC0
ENDCHAR
STARTCHAR longs
ENCODING 383
SWIDTH 600 0
DWIDTH 17 0
BBX 14 20 2 0
BITMAP
0002BFA0
001FFFF0
007FFFF0
00BF9050
00FF4000
00FF0000
BFFF0000
BFFF0000
BFFF0000
00FF0000
00FF0000
00FF0000
00FF0000
00FF0000
00FF0000
00FF0000
00FF0000
00FF0000
00FF0000
00FF0000
ENDCHAR
STARTCHAR uni0180
ENCODING 384
SWIDTH 600 0
DWIDTH 17 0
BBX 16 20 0 0
BITMAP
0FF00000
0FF00000
BFFFFD00
BFFFFD00
BFFFFD00
0FF00000
0FF00000
0FF1BE40
0FFBFFE0
0FFFFFF8
0FFD0BFC
0FF403FD
0FF003FD
0FF002FD
0FF003FD
0FF403FC
0FFD1FF8
0FFFFFF4
0FEFFFD0
0FD2FE00
ENDCHAR
STARTCHAR uni018A
ENCODING 394
SWIDTH 600 0
DWIDTH 17 0
BBX 17 18 0 0
BITMAP
01AFF90000
0BFFFFD000
2FFFFFF400
7FAFC7FC00
BE2FC1FE00
FD2FC0FF00
FD2FC0BF00
BE2FC0BF40
7F6FC0BF40
2F6FC0BF40
0A2FC0BF00
002FC0BF00
002FC0FE00
002FC1FD00
002FC7FC00
002FFFF400
002FFFD000
002FFA0000
ENDCHAR
STARTCHAR uni018F
ENCODING 399
SWIDTH 600 0
DWIDTH 17 0
BBX 15 18 1 0
BITMAP
00AFE400
07FFFE00
07FFFF80
02D07FD0
00001FF0
00000FF4
00000BF4
00000BF8
BFFFFFF8
BFFFFFF8
BFFFFFF8
7F800BF4
7F800BF4
3FC00FF0
1FE47FD0
0BFFFF80
02FFFE00
006FE400
ENDCHAR
STARTCHAR uni0192
ENCODING 402
SWIDTH 600 0
DWIDTH 17 0
BBX 15 21 1 -3
BITMAP
00006FE4
0002FFF0
0007FFF0
000FF800
000FE000
001FE000
03FFFF80
03FFFF80
03FFFF80
002FC000
003FC000
003FC000
003F8000
007F8000
007F8000
00BF4000
00BF4000
01FF0000
7FFD0000
BFF80000
7F900000
ENDCHAR
STARTCHAR uni0193
ENCODING 403
SWIDTH 600 0
DWIDTH 17 0
BBX 16 23 1 0
BITMAP
000001BE
000007FE
00000FFD
00001FD0
00001FC0
001BFFD0
01FFFFE0
07FFFFD0
1FF90740
2FE00000
7FD00000
7F800000
BF800000
BF80FFF4
BF80FFF4
BF80FFF4
BF8007F4
7FC007F4
3FE007F4
1FF90BF4
0BFFFFF4
01FFFFE0
001BF900
ENDCHAR
STARTCHAR Ohorn
ENCODING 416
SWIDTH 600 0
DWIDTH 17 0
BBX 16 23 1 0
BITMAP
00000018
000000FD
000000FE
000000BE
000000FD
006FE6F8
07FFFF90
0FFFFFC0
2FF47FE0
3FD01FF0
BF800FF4
BF400BF8
FF400BF8
FF400BF8
FF400BF8
FF400BF8
BF800BF4
7F800FF4
3FD01FF0
2FF47FD0
0FFFFF80
03FFFE00
006FE400
ENDCHAR
STARTCHAR ohorn
ENCODING 417
SWIDTH 600 0
DWIDTH 17 0
BBX 16 19 1 0
BITMAP
00000018
000000FD
000000FE
000000FD
000001FC
006FEBF4
07FFFF80
1FFFFFC0
2FE07FE0
7FC01FF0
BF800FF4
BF800BF4
BF800BF4
BF800FF4
7FC01FF0
2FE07FE0
1FFFFF80
07FFFE00
006FE400
ENDCHAR
STARTCHAR Uhorn
ENCODING 431
SWIDTH 600 0
DWIDTH 17 0
BBX 18 23 1 0
BITMAP
0000000280
0000001FD0
0000000FD0
0000000FD0
0000002FD0
7FC00FFF80
7FC00FFD00
7FC00FF000
7FC00FF000
7FC00FF000
7FC00FF000
7FC00FF000
7FC00FF000
7FC00FF000
7FC00FF000
7FC00FF000
7FC00FF000
3FC00FF000
3FD01FE000
2FE47FD000
0FFFFFC000
07FFFF4000
00AFE40000
ENDCHAR
STARTCHAR uhorn
ENCODING 432
SWIDTH 600 0
DWIDTH 17 0
BBX 17 20 1 0
BITMAP
0000000A00
0000007F40
0000003F40
0000003F40
0000007F00
000001BE00
7FC01FF800
7FC01FE000
7FC01FE000
7FC01FE000
7FC01FE000
7FC01FE000
7FC01FE000
7FC01FE000
7FC01FE000
7FC03FE000
3FE0BFE000
2FFFFFE000
1FFFDFE000
06FE0BE000
ENDCHAR
STARTCHAR uni01C2
ENCODING 450
SWIDTH 600 0
DWIDTH 17 0
BBX 13 26 2 -6
BITMAP
00BF4000
00BF4000
00BF4000
00BF4000
00BF4000
00BF4000
00BF4000
00BF4000
BFFFFFC0
FFFFFFC0
FFFFFFC0
00BF4000
00BF4000
00BF4000
BFFFFFC0
FFFFFFC0
FFFFFFC0
00BF4000
00BF4000
00BF4000
00BF4000
00BF4000
00BF4000
00BF4000
00BF4000
00BF4000
ENDCHAR
STARTCHAR uni01CD
ENCODING 461
SWIDTH 600 0
DWIDTH 17 0
BBX 17 24 0 0
BITMAP
0064064000
00FD2F8000
007FFF0000
001FFC0000
0000000000
0000000000
001FFC0000
002FFD0000
003FFE0000
007FBF0000
007F7F4000
00BE3F8000
00FD3FC000
01FD2FD000
02FC1FE000
03F80FF000
07F80FF400
0BFFFFF400
0FFFFFF800
1FFFFFFC00
2FD002FD00
3FC001FE00
7FC001FF00
BF8000FF40
ENDCHAR
STARTCHAR uni01CE
ENCODING 462
SWIDTH 600 0
DWIDTH 17 0
BBX 14 21 1 0
BITMAP
01900640
03F42FC0
01FEBF40
007FFD00
002FF400
00000000
00000000
01AFE800
1FFFFF40
1FFFFFC0
0B907FE0
00001FE0
005AFFF0
06FFFFF0
1FFFFFF0
3FE50FF0
7F800FF0
7FD07FF0
3FFFFFF0
1FFFEBF0
06FE07F0
ENDCHAR
STARTCHAR uni01CF
ENCODING 463
SWIDTH 600 0
DWIDTH 17 0
BBX 13 24 2 0
BITMAP
06406400
0FD2F800
07FFF000
01FFC000
00000000
00000000
FFFFFF80
FFFFFF80
FFFFFF80
00BF4000
00BF4000
00BF4000
00BF4000
00BF4000
00BF4000
00BF4000
00BF4000
00BF4000
00BF4000
00BF4000
00BF4000
FFFFFF80
FFFFFF80
FFFFFF80
ENDCHAR
STARTCHAR uni01D0
ENCODING 464
SWIDTH 600 0
DWIDTH 17 0
BBX 13 21 2 0
BITMAP
01800600
07F42F80
02FEFE00
00BFFC00
002FF400
00000000
00000000
BFFFF000
BFFFF000
BFFFF000
001FF000
001FF000
001FF000
001FF000
001FF000
001FF000
001FF000
001FF000
001FF000
001FF000
001FF000
ENDCHAR
STARTCHAR uni01D1
ENCODING 465
SWIDTH 600 0
DWIDTH 17 0
BBX 15 24 1 0
BITMAP
01901900
03F4BE00
01FFFC00
007FF000
00000000
00000000
006FE400
07FFFE00
0FFFFF80
2FF47FE0
3FD01FF0
BF800FF4
BF400BF8
FF400BF8
FF400BF8
FF400BF8
FF400BF8
BF800BF4
7F800FF4
3FD01FF0
2FF47FD0
0FFFFF80
03FFFE00
006FE400
ENDCHAR
STARTCHAR uni01D2
ENCODING 466
SWIDTH 600 0
DWIDTH 17 0
BBX 15 21 1 0
BITMAP
02800A00
07E07F40
02FEFE00
00FFF800
007FF000
00000000
00000000
006FE400
07FFFE00
1FFFFFC0
2FE07FE0
7FC01FF0
BF800FF4
BF800BF4
BF800BF4
BF800FF4
7FC01FF0
2FE07FE0
1FFFFFC0
07FFFE00
006FE400
ENDCHAR
STARTCHAR uni01D3
ENCODING 467
SWIDTH 600 0
DWIDTH 17 0
BBX 14 24 1 0
BITMAP
01901900
03F4BE00
01FFFC00
007FF000
00000000
00000000
7FC00FF0
7FC00FF0
7FC00FF0
7FC00FF0
7FC00FF0
7FC00FF0
7FC00FF0
7FC00FF0
7FC00FF0
7FC00FF0
7FC00FF0
7FC00FF0
3FC00FF0
3FD01FE0
2FE47FD0
0FFFFF80
07FFFF00
00AFE400
ENDCHAR
STARTCHAR uni01D4
ENCODING 468
SWIDTH 600 0
DWIDTH 17 0
BBX 14 21 1 0
BITMAP
02400900
0BE07F40
03FEFE00
00FFF800
007FE000
00000000
00000000
7FC01FE0
7FC01FE0
7FC01FE0
7FC01FE0
7FC01FE0
7FC01FE0
7FC01FE0
7FC01FE0
7FC01FE0
7FC03FE0
3FE0BFE0
2FFFFFE0
1FFFDFE0
06FE0BE0
ENDCHAR
STARTCHAR uni01D5
ENCODING 469
SWIDTH 600 0
DWIDTH 17 0
BBX 14 26 1 0
BITMAP
02FFFE00
02FFFE00
00000000
02E02E00
07F07F00
02E02E00
00000000
00000000
7FC00FF0
7FC00FF0
7FC00FF0
7FC00FF0
7FC00FF0
7FC00FF0
7FC00FF0
7FC00FF0
7FC00FF0
7FC00FF0
7FC00FF0
7FC00FF0
3FC00FF0
3FD01FE0
2FE47FD0
0FFFFF80
07FFFF00
00AFE400
ENDCHAR
STARTCHAR uni01D6
ENCODING 470
SWIDTH 600 0
DWIDTH 17 0
BBX 14 23 1 0
BITMAP
02FFFD00
02FFFD00
00000000
00000000
02D02E00
07F07F00
02D02E00
00000000
00000000
7FC01FE0
7FC01FE0
7FC01FE0
7FC01FE0
7FC01FE0
7FC01FE0
7FC01FE0
7FC01FE0
7FC01FE0
7FC03FE0
3FE0BFE0
2FFFFFE0
1FFFDFE0
06FE0BE0
ENDCHAR
STARTCHAR uni01D7
ENCODING 471
SWIDTH 600 0
DWIDTH 17 0
BBX 14 28 1 0
BITMAP
00009000
0001F800
0007F400
000BD000
00064000
02E02E00
07F07F00
02E02E00
00000000
00000000
7FC00FF0
7FC00FF0
7FC00FF0
7FC00FF0
7FC00FF0
7FC00FF0
7FC00FF0
7FC00FF0
7FC00FF0
7FC00FF0
7FC00FF0
7FC00FF0
3FC00FF0
3FD01FE0
2FE47FD0
0FFFFF80
07FFFF00
00AFE400
ENDCHAR
STARTCHAR uni01D8
ENCODING 472
SWIDTH 600 0
DWIDTH 17 0
BBX 14 25 1 0
BITMAP
00008000
0002F000
0007E000
000B8000
00060000
00000000
02D02E00
07F07F00
02D02E00
00000000
00000000
7FC01FE0
7FC01FE0
7FC01FE0
7FC01FE0
7FC01FE0
7FC01FE0
7FC01FE0
7FC01FE0
7FC01FE0
7FC03FE0
3FE0BFE0
2FFFFFE0
1FFFDFE0
06FE0BE0
ENDCHAR
STARTCHAR uni01D9
ENCODING 473
SWIDTH 600 0
DWIDTH 17 0
BBX 14 28 1 0
BITMAP
01902800
02F8BD00
00BFF400
002FE000
00000000
02E02E00
07F07F00
02E02E00
00000000
00000000
7FC00FF0
7FC00FF0
7FC00FF0
7FC00FF0
7FC00FF0
7FC00FF0
7FC00FF0
7FC00FF0
7FC00FF0
7FC00FF0
7FC00FF0
7FC00FF0
3FC00FF0
3FD01FE0
2FE47FD0
0FFFFF80
07FFFF00
00AFE400
ENDCHAR
STARTCHAR uni01DA
ENCODING 474
SWIDTH 600 0
DWIDTH 17 0
BBX 14 25 1 0
BITMAP
00902800
02F9BD00
00BFF400
002FD000
00000000
00000000
02D02E00
07F07F00
02D02E00
00000000
00000000
7FC01FE0
7FC01FE0
7FC01FE0
7FC01FE0
7FC01FE0
7FC01FE0
7FC01FE0
7FC01FE0
7FC01FE0
7FC03FE0
3FE0BFE0
2FFFFFE0
1FFFDFE0
06FE0BE0
ENDCHAR
STARTCHAR uni01DB
ENCODING 475
SWIDTH 600 0
DWIDTH 17 0
BBX 14 28 1 0
BITMAP
00280000
00FD0000
007F0000
001F8000
00064000
02E02E00
07F07F00
02E02E00
00000000
00000000
7FC00FF0
7FC00FF0
7FC00FF0
7FC00FF0
7FC00FF0
7FC00FF0
7FC00FF0
7FC00FF0
7FC00FF0
7FC00FF0
7FC00FF0
7FC00FF0
3FC00FF0
3FD01FE0
2FE47FD0
0FFFFF80
07FFFF00
00AFE400
ENDCHAR
STARTCHAR uni01DC
ENCODING 476
SWIDTH 600 0
DWIDTH 17 0
BBX 14 25 1 0
BITMAP
00180000
007D0000
003F0000
000F4000
00060000
00000000
02D02E00
07F07F00
02D02E00
00000000
00000000
7FC01FE0
7FC01FE0
7FC01FE0
7FC01FE0
7FC01FE0
7FC01FE0
7FC01FE0
7FC01FE0
7FC01FE0
7FC03FE0
3FE0BFE0
2FFFFFE0
1FFFDFE0
06FE0BE0
ENDCHAR
STARTCHAR uni01E2
ENCODING 482
SWIDTH 600 0
DWIDTH 17 0
BBX 17 23 0 0
BITMAP
0007FFFD00
0007FFFD00
0007FFFD00
0000000000
0000000000
000FFFFF40
001FFFFF40
003FFFFF40
007FBF4000
00BFBF4000
00FF7F4000
01FE7F4000
02FD7FFE00
03FC7FFE00
07F87FFE00
0BF87F4000
0FFFFF4000
1FFFFF4000
2FFFFF4000
3FD07F4000
7FC07FFF80
BF807FFF80
FF407FFF80
ENDCHAR
STARTCHAR uni01E3
ENCODING 483
SWIDTH 600 0
DWIDTH 17 0
BBX 17 19 0 0
BITMAP
007FFF8000
007FFF8000
007FFF8000
0000000000
0000000000
06F90BE400
3FFF7FFD00
2FFFFFFE00
090BF83F40
0007F02F40
006FFFFF80
0BFFFFFF80
2FFFFFFF80
7FD7F00000
7F43F40000
BF47FD1800
7FFFFFFD00
2FFE7FFF00
0BE41BF900
ENDCHAR
STARTCHAR Gcaron
ENCODING 486
SWIDTH 600 0
DWIDTH 17 0
BBX 15 24 1 0
BITMAP
00A00640
01FD2F80
007FFE00
001FFC00
00000000
00000000
001BF900
01FFFFD0
07FFFFD0
1FF90780
2FE00000
7FD00000
7F800000
BF800000
BF80FFF4
BF80FFF4
BF80FFF4
BF8007F4
7FC007F4
3FE007F4
1FF90BF4
0BFFFFF4
01FFFFE0
001BF900
ENDCHAR
STARTCHAR gcaron
ENCODING 487
SWIDTH 600 0
DWIDTH 17 0
BBX 15 27 1 -6
BITMAP
02800A00
07F47F40
02FEFE00
00BFF800
003FF000
00000000
00000000
00BFFFFC
07FFFFFC
1FFFFFFC
2FE0BFFC
3FC03F40
3FC03F80
2FE5BF80
1FFFFF40
07FFFD00
0FEA9000
2F800000
2FFFFE80
1FFFFFF4
0BFFFFF8
2F0007FC
7F0003FC
BF901BF8
7FFFFFF0
2FFFFF80
06BFE400
ENDCHAR
STARTCHAR uni01EA
ENCODING 490
SWIDTH 600 0
DWIDTH 17 0
BBX 15 25 1 -7
BITMAP
006FE400
03FFFE00
0FFFFF80
2FF47FD0
3FC01FF0
7F800FF4
BF400BF8
FF400BF8
FF400BF8
FF400BF8
FF400BF8
BF400BF8
7F800FF4
3FC01FF0
2FF47FD0
0FFFFF80
02FFFE00
006FF400
000B8000
002F0000
003E0000
007F0000
003FF400
002FFC00
000BE400
ENDCHAR
STARTCHAR uni01EB
ENCODING 491
SWIDTH 600 0
DWIDTH 17 0
BBX 15 21 1 -7
BITMAP
006FE400
07FFFE00
1FFFFFC0
2FE07FE0
7FC01FF0
BF800FF4
BF800BF4
BF800BF4
BF800FF4
7FC01FF0
2FE07FE0
1FFFFF80
07FFFE00
006FE400
000F8000
002F0000
003E0000
007F0000
003FF800
002FFC00
000BE400
ENDCHAR
STARTCHAR uni01F4
ENCODING 500
SWIDTH 600 0
DWIDTH 17 0
BBX 15 25 1 0
BITMAP
00001800
0000BD00
0002FF00
001FFD00
001FE000
00064000
00000000
001BF900
01FFFFD0
07FFFFD0
1FF90780
2FE00000
7FD00000
7F800000
BF800000
BF80FFF4
BF80FFF4
BF80FFF4
BF8007F4
7FC007F4
3FE007F4
1FF90BF4
0BFFFFF4
01FFFFE0
001BF900
ENDCHAR
STARTCHAR uni01F5
ENCODING 501
SWIDTH 600 0
DWIDTH 17 0
BBX 15 29 1 -6
BITMAP
00002400
0000BD00
0002FF00
0007FD00
001FF400
001FD000
00060000
00000000
00000000
00BFFFFC
07FFFFFC
1FFFFFFC
2FE0BFFC
3FC03F40
3FC03F80
2FE5BF80
1FFFFF40
07FFFD00
0FEA9000
2F800000
2FFFFE80
1FFFFFF4
0BFFFFF8
2F0007FC
7F0003FC
BF901BF8
7FFFFFF0
2FFFFF80
06BFE400
ENDCHAR
STARTCHAR uni01F8
ENCODING 504
SWIDTH 600 0
DWIDTH 17 0
BBX 13 25 2 0
BITMAP
00900000
01F80000
07FE0000
01FFC000
002FC000
00064000
00000000
FF403FC0
FF803FC0
FFC03FC0
FFE03FC0
FFF03FC0
FEF43FC0
FDFC3FC0
FDBD3FC0
FE7E3FC0
FE3F2FC0
FE1FAFC0
FE0FEFC0
FE0BEFC0
FE07FFC0
FE02FFC0
FE01FFC0
FE00FFC0
FE007FC0
ENDCHAR
STARTCHAR uni01F9
ENCODING 505
SWIDTH 600 0
DWIDTH 17 0
BBX 13 23 2 0
BITMAP
00900000
02F00000
0BF80000
07FE0000
00FF8000
002F8000
00090000
00000000
00000000
FD0BF800
FE7FFF00
FFFFFF80
FFE0BFC0
FF803FC0
FF003FC0
FF003FC0
FF003FC0
FF003FC0
FF003FC0
FF003FC0
FF003FC0
FF003FC0
FF003FC0
ENDCHAR
STARTCHAR Aringacute
ENCODING 506
SWIDTH 600 0
DWIDTH 17 0
BBX 17 28 0 0
BITMAP
0000040000
00002D0000
0000BF0000
0003F40000
000FB80000
002D2D0000
002E2E0000
001FFD0000
0007E40000
0000000000
001FFC0000
002FFD0000
003FFE0000
007FBF0000
007F7F4000
00BE3F8000
00FD3FC000
01FD2FD000
02FC1FE000
03F80FF000
07F80FF400
0BFFFFF400
0FFFFFF800
1FFFFFFC00
2FD002FD00
3FC001FE00
7FC001FF00
BF8000FF40
ENDCHAR
STARTCHAR aringacute
ENCODING 507
SWIDTH 600 0
DWIDTH 17 0
BBX 14 25 1 0
BITMAP
00001000
0000B800
0002FD00
001FE000
007D7C00
00B83E00
00BC7E00
007FFD00
001BE400
00000000
00000000
01AFE800
1FFFFF40
1FFFFFC0
0B907FE0
00001FE0
005AFFF0
06FFFFF0
1FFFFFF0
3FE50FF0
7F800FF0
7FD07FF0
3FFFFFF0
1FFFEBF0
06FE07F0
ENDCHAR
STARTCHAR AEacute
ENCODING 508
SWIDTH 600 0
DWIDTH 17 0
BBX 17 25 0 0
BITMAP
0000009000
000002F000
00001FF800
00007FE000
00007F4000
0000280000
0000000000
000FFFFF40
001FFFFF40
003FFFFF40
007FBF4000
00BFBF4000
00FF7F4000
01FE7F4000
02FD7FFE00
03FC7FFE00
07F87FFE00
0BF87F4000
0FFFFF4000
1FFFFF4000
2FFFFF4000
3FD07F4000
7FC07FFF80
BF807FFF80
FF407FFF80
ENDCHAR
STARTCHAR aeacute
ENCODING 509
SWIDTH 600 0
DWIDTH 17 0
BBX 17 23 0 0
BITMAP
0000090000
00002F4000
00007FD000
0001FF8000
0003FD0000
0003F40000
0000900000
0000000000
0000000000
06F90BE400
3FFF7FFD00
2FFFFFFE00
090BF83F40
0007F02F40
006FFFFF80
0BFFFFFF80
2FFFFFFF80
7FD7F00000
7F43F40000
BF47FD1800
7FFFFFFD00
2FFE7FFF00
0BE41BF900
ENDCHAR
STARTCHAR Oslashacute
ENCODING 510
SWIDTH 600 0
DWIDTH 17 0
BBX 16 26 0 -1
BITMAP
00001800
0000BE00
0002FF40
000BFD00
000FE000
00024000
00000018
001BF93F
01FFFFFE
03FFFFF8
0BFD1FF8
0FF00FFC
2FE02FFD
2FD07FFE
3FD1FEFE
3FD3F6FE
3FDBE2FE
3FEFC2FE
2FFF42FD
1FFD03FD
0FF807FC
0BFD1FF4
0FFFFFE0
2FFFFF80
7E1BF900
08000000
ENDCHAR
STARTCHAR oslashacute
ENCODING 511
SWIDTH 600 0
DWIDTH 17 0
BBX 15 24 1 -1
BITMAP
00002000
0000BC00
0002FF00
0007FD00
001FF400
001FC000
00060000
00000000
00000040
006FE5E0
07FFFFD0
1FFFFFC0
2FE07FE0
7FC0BFF0
BF82FFF4
BF8BDBF4
BF9F4BF4
BFFD0FF4
7FF81FF0
2FF47FE0
1FFFFFC0
2FFFFE00
2D6FE400
04000000
ENDCHAR
STARTCHAR uni0218
ENCODING 536
SWIDTH 600 0
DWIDTH 17 0
BBX 15 25 1 -7
BITMAP
006FF900
02FFFF90
0FFFFFD0
2FE41B80
2FD00100
3FE00000
2FF90000
1FFFE000
07FFFE00
01BFFFD0
000BFFF0
00007FF4
00000FF4
09000FF4
1F901FF0
7FFFFFD0
1FFFFF40
01BFE400
00000000
000E8000
001FE000
0007F000
0007F000
00BFD000
007A4000
ENDCHAR
STARTCHAR uni0219
ENCODING 537
SWIDTH 600 0
DWIDTH 17 0
BBX 14 21 1 -7
BITMAP
006FE900
07FFFF90
1FFFFFD0
2FE01B80
2FE00000
1FFF9000
0BFFFE40
01BFFFD0
0006BFF0
04001FF0
2F901FF0
7FFFFFE0
1FFFFF80
01BFE900
00000000
000E8000
001FF000
0007F400
0007F000
007FE000
007A4000
ENDCHAR
STARTCHAR uni021A
ENCODING 538
SWIDTH 600 0
DWIDTH 17 0
BBX 15 25 1 -7
BITMAP
FFFFFFFC
FFFFFFFC
FFFFFFFC
002FD000
002FD000
002FD000
002FD000
002FD000
002FD000
002FD000
002FD000
002FD000
002FD000
002FD000
002FD000
002FD000
002FD000
002FD000
00000000
000E4000
001FE000
0007F000
0007F000
00BFD000
00BA4000
ENDCHAR
STARTCHAR uni021B
ENCODING 539
SWIDTH 600 0
DWIDTH 17 0
BBX 15 25 1 -7
BITMAP
007F0000
00BF0000
00BF0000
00FF0000
BFFFFFF0
BFFFFFF0
BFFFFFF0
00FF0000
00FF0000
00FF0000
00FF0000
00FF0000
00FF0000
00FF4000
00BFD050
007FFFF0
002FFFF4
0006FFA0
00000000
0001E400
0002FE00
00007F00
00007E00
000BFD00
000BA000
ENDCHAR
STARTCHAR uni0237
ENCODING 567
SWIDTH 600 0
DWIDTH 17 0
BBX 11 20 1 -6
BITMAP
2FFFFC
2FFFFC
2FFFFC
0007FC
0007FC
0007FC
0007FC
0007FC
0007FC
0007FC
0007FC
0007FC
0007FC
0007FC
0007FC
0007F8
141FF4
3FFFF0
BFFFD0
6BF900
ENDCHAR
STARTCHAR uni0243
ENCODING 579
SWIDTH 600 0
DWIDTH 17 0
BBX 16 18 0 0
BITMAP
0BFFFE40
0BFFFFF4
0BFFFFF8
0BF407FC
0BF407F4
0BFFFFD0
0BFFFF80
0BFFFFF4
0BF40BFC
0BF402FE
BFFFD1FE
BFFFD1FE
BFFFD1FE
0BF402FE
0BF40BFD
0BFFFFF8
0BFFFFE0
0BFFFE40
ENDCHAR
STARTCHAR uni0250
ENCODING 592
SWIDTH 600 0
DWIDTH 17 0
BBX 14 14 2 0
BITMAP
FD1BF900
FEBFFF40
FFFFFFC0
FFE47FD0
FF402FD0
FF05BFC0
FFFFFF40
FFFFF900
FFFA5000
BF400000
BFD06E00
3FFFFF40
1FFFFF40
02BFA400
ENDCHAR
STARTCHAR uni0251
ENCODING 593
SWIDTH 600 0
DWIDTH 17 0
BBX 14 14 1 0
BITMAP
01BF4BE0
07FFEBE0
1FFFFFE0
3FE47FE0
7FC02FE0
BF801FE0
BF801FE0
BF801FE0
BF801FE0
7FC02FE0
3FE07FE0
2FFFFFE0
0BFFEFE0
01BE4BE0
ENDCHAR
STARTCHAR uni0252
ENCODING 594
SWIDTH 600 0
DWIDTH 17 0
BBX 14 14 2 0
BITMAP
FD1BE400
FEBFFE00
FFFFFF40
FFD1FFC0
FF407FD0
FF003FD0
FF002FD0
FF002FD0
FF003FD0
FF407FC0
FFD1FF80
FFFFFF00
FEFFFD00
FD2FE000
ENDCHAR
STARTCHAR uni0253
ENCODING 595
SWIDTH 600 0
DWIDTH 17 0
BBX 14 20 2 0
BITMAP
02FF8000
1FFFC000
3FFF8000
BFD04000
FF400000
FF000000
FF1BE400
FFBFFE00
FFFFFF40
FFD1BFC0
FF407FC0
FF003FD0
FF002FD0
FF002FD0
FF003FD0
FF407FC0
FFD1FF80
FFFFFF00
FEFFFD00
FD2FE000
ENDCHAR
STARTCHAR uni0254
ENCODING 596
SWIDTH 600 0
DWIDTH 17 0
BBX 14 14 1 0
BITMAP
06FF9000
2FFFFD00
2FFFFF40
0A41FFC0
00007FD0
00002FE0
00001FF0
00001FF0
00002FE0
00003FD0
1E01FFC0
3FFFFF40
6FFFFD00
06FF9000
ENDCHAR
STARTCHAR uni0255
ENCODING 597
SWIDTH 600 0
DWIDTH 17 0
BBX 14 16 2 -2
BITMAP
006FF900
07FFFF80
1FFFFF80
7FE41A00
BF800000
FF000000
FF02FE00
FF1FFFC0
FFBFFFD0
BFFE4BE0
3FF81BD0
1FFFFFC0
2FFFFF40
7FAFF900
BF000000
1A000000
ENDCHAR
STARTCHAR uni0256
ENCODING 598
SWIDTH 600 0
DWIDTH 17 0
BBX 17 26 1 -6
BITMAP
00001FE000
00001FE000
00001FE000
00001FE000
00001FE000
00001FE000
01BE5FE000
07FFFFE000
1FFFFFE000
3FE47FE000
7FC02FE000
BF801FE000
BF801FE000
BF801FE000
BF801FE000
7FC02FE000
3FE07FE000
2FFFFFE000
0BFFEFE000
01BE5FE000
00001FE000
00001FE000
00000FF000
00000BFF00
000007FF00
000001BF40
ENDCHAR
STARTCHAR uni0257
ENCODING 599
SWIDTH 600 0
DWIDTH 17 0
BBX 17 20 1 0
BITMAP
000001BF40
000007FF00
00000FFE00
00001FF000
00001FE000
00001FE000
01BE5FE000
07FFFFE000
1FFFFFE000
3FE07FE000
7FC02FE000
BF802FE000
BF802FE000
BF802FE000
BF802FE000
7FC02FE000
3FE0BFE000
2FFFFFE000
0BFFEFE000
01BE4FE000
ENDCHAR
STARTCHAR uni0258
ENCODING 600
SWIDTH 600 0
DWIDTH 17 0
BBX 15 14 1 0
BITMAP
00AFE400
07FFFE00
1FFFFF80
3FD07FD0
7F400FF0
7FFFFFF0
7FFFFFF4
7FFFFFF4
00000FF0
00002FE0
0A41BFD0
1FFFFF80
2FFFFE00
02BFA000
ENDCHAR
STARTCHAR uni0259
ENCODING 601
SWIDTH 600 0
DWIDTH 17 0
BBX 15 14 1 0
BITMAP
01BFE400
1FFFFE00
0FFFFF80
0640BFD0
00001FF0
00000FF0
7FFFFFF4
7FFFFFF4
7FFFFFF0
7F400FE0
3FD06FD0
1FFFFF80
07FFFE00
00BFE400
ENDCHAR
STARTCHAR uni025A
ENCODING 602
SWIDTH 600 0
DWIDTH 17 0
BBX 18 14 0 0
BITMAP
0AFE400000
3FFFD00000
2FFFF5E400
090BFFF800
0003FFFC00
006FFEBFC0
06FFFD3FD0
6FFAFD1B80
FF91FD0000
BE02FD0000
7F47FC0000
3FFFF40000
1FFFE00000
02FE400000
ENDCHAR
STARTCHAR uni025B
ENCODING 603
SWIDTH 600 0
DWIDTH 17 0
BBX 13 14 2 0
BITMAP
02BFE900
1FFFFF80
7FFFFF40
7FD01A00
7FD00000
1FFFD000
07FFD000
7FFFD000
BF800000
FF000000
FF901B40
7FFFFF80
2FFFFF80
06BFE900
ENDCHAR
STARTCHAR uni025C
ENCODING 604
SWIDTH 600 0
DWIDTH 17 0
BBX 14 14 1 0
BITMAP
06BFE900
2FFFFF80
3FFFFFD0
1E402FE0
00002FD0
00BFFF80
00BFFE00
00BFFFD0
00001FF0
00000FF0
2E406FF0
7FFFFFE0
6FFFFF80
06BFE800
ENDCHAR
STARTCHAR uni025E
ENCODING 606
SWIDTH 600 0
DWIDTH 17 0
BBX 15 14 1 0
BITMAP
006FF900
07FFFF80
1FFFFFD0
2FF42FE0
7FC01FD0
BF83FF80
BF43FE40
BF43FFD0
BF801FF0
7FC00BF4
3FE41FF0
1FFFFFE0
07FFFF80
006FF900
ENDCHAR
STARTCHAR uni025F
ENCODING 607
SWIDTH 600 0
DWIDTH 17 0
BBX 15 20 1 -6
BITMAP
2FFFFC00
2FFFFC00
2FFFFC00
0007FC00
0007FC00
0007FC00
0BFFFFF8
0FFFFFF8
0FFFFFF8
0007FC00
0007FC00
0007FC00
0007FC00
0007FC00
0007FC00
0007F800
141FF400
3FFFF000
BFFFD000
6BF90000
ENDCHAR
STARTCHAR uni0260
ENCODING 608
SWIDTH 600 0
DWIDTH 17 0
BBX 17 24 1 -6
BITMAP
000001BF40
000007FF00
00000FFF00
00001FF400
00BE5FE000
07FFEFE000
1FFFFFE000
2FE07FE000
7FC02FE000
7F801FE000
BF801FE000
BF801FE000
BF801FE000
7FC02FE000
3FE07FE000
1FFFFFE000
0BFFFFE000
01FF5FE000
00001FE000
00002FE000
0A40BFD000
1FFFFF8000
1FFFFE0000
06BFE40000
ENDCHAR
STARTCHAR uni0261
ENCODING 609
SWIDTH 600 0
DWIDTH 17 0
BBX 14 20 1 -6
BITMAP
01BE4BE0
07FFEBE0
1FFFFFE0
3FF47FE0
7FC02FE0
BF801FE0
BF801FE0
BF801FE0
BF801FE0
7FC01FE0
3FE07FE0
1FFFFFE0
0BFFFFE0
01BE4FE0
00001FE0
00002FE0
0A40BFD0
1FFFFF80
2FFFFE00
06BFE400
ENDCHAR
STARTCHAR uni0262
ENCODING 610
SWIDTH 600 0
DWIDTH 17 0
BBX 13 14 2 0
BITMAP
006FE800
07FFFF40
1FFFFF40
7FE41E00
BF800000
FF400000
FF07FFC0
FF07FFC0
FF47FFC0
BF802FC0
7FE02FC0
2FFFFFC0
0BFFFF40
01AFE400
ENDCHAR
STARTCHAR uni0263
ENCODING 611
SWIDTH 600 0
DWIDTH 17 0
BBX 15 20 1 -6
BITMAP
FF4007F8
7F800BF4
3FC00FF0
2FD01FD0
1FE02FC0
0BF03F80
07F47F40
03F8BF00
02FCFD00
00FEFC00
00BFF800
007FF400
00BFF800
01FEFD00
02F8BE00
03F47F00
03F8BF00
02FFFE00
00FFFC00
002FE000
ENDCHAR
STARTCHAR uni0264
ENCODING 612
SWIDTH 600 0
DWIDTH 17 0
BBX 15 14 1 0
BITMAP
BF901BE4
BFF8BFF8
7FFFFFF0
11FFF910
00BFF800
02FFFD00
07FDFF40
0FF47F80
0FE03FC0
0FE03FC0
0FF47F80
0BFFFF40
02FFFE00
006FE400
ENDCHAR
STARTCHAR uni0265
ENCODING 613
SWIDTH 600 0
DWIDTH 17 0
BBX 14 20 1 -6
BITMAP
7F801FE0
7F801FE0
7F801FE0
7F801FE0
7F801FE0
7F801FE0
7F801FE0
7F801FE0
7F801FE0
7FC02FE0
3FD0BFE0
2FFFFFE0
1FFFDFE0
06FE1FE0
00001FE0
00001FE0
00001FE0
00001FE0
00001FE0
00001FE0
ENDCHAR
STARTCHAR uni0266
ENCODING 614
SWIDTH 600 0
DWIDTH 17 0
BBX 13 20 2 0
BITMAP
02FF8000
1FFFC000
3FFF8000
BFD04000
FF400000
FF000000
FF0BF800
FF7FFF00
FFFFFF80
FFE0BFC0
FF807FC0
FF003FC0
FF003FC0
FF003FC0
FF003FC0
FF003FC0
FF003FC0
FF003FC0
FF003FC0
FF003FC0
ENDCHAR
STARTCHAR uni0267
ENCODING 615
SWIDTH 600 0
DWIDTH 17 0
BBX 13 26 2 -6
BITMAP
02FF8000
1FFFC000
3FFF8000
BFD04000
FF400000
FF000000
FF0BF800
FF7FFF00
FFFFFF80
FFE0BFC0
FF807FC0
FF003FC0
FF003FC0
FF003FC0
FF003FC0
FF003FC0
FF003FC0
FF003FC0
FF003FC0
FF003FC0
00003FC0
00003FC0
0000BF80
000FFF40
000FFE00
001FF400
ENDCHAR
STARTCHAR uni0268
ENCODING 616
SWIDTH 600 0
DWIDTH 17 0
BBX 14 21 2 0
BITMAP
000BD000
002FF000
003FF400
003FF400
001BD000
00000000
00000000
BFFFF000
BFFFF000
BFFFF000
001FF000
001FF000
001FF000
2BFFFFE0
2FFFFFE0
2FFFFFE0
001FF000
001FF000
001FF000
001FF000
001FF000
ENDCHAR
STARTCHAR uni026A
ENCODING 618
SWIDTH 600 0
DWIDTH 17 0
BBX 13 14 2 0
BITMAP
BFFFFF80
BFFFFF80
BFFFFF80
00BF4000
00BF4000
00BF4000
00BF4000
00BF4000
00BF4000
00BF4000
00BF4000
BFFFFF80
BFFFFF80
BFFFFF80
ENDCHAR
STARTCHAR uni026B
ENCODING 619
SWIDTH 600 0
DWIDTH 17 0
BBX 14 20 1 0
BITMAP
BFFFC000
BFFFC000
BFFFC000
007FC000
007FC000
007FC000
007FC000
0BFFC540
3FFFCBC0
7FFFFFC0
7D7FFF80
187FFE00
007FC000
007FC000
007FC000
003FC000
003FE040
001FFFE0
000BFFF0
0001BFA0
ENDCHAR
STARTCHAR uni026C
ENCODING 620
SWIDTH 600 0
DWIDTH 17 0
BBX 14 20 1 0
BITMAP
BFFFC000
BFFFC000
BFFFC000
007FC000
1FBFC000
7FFFC000
BFFFC000
B8BFC000
B87FC000
BFFFFF80
3FFFFF80
0BFFFF80
007FC000
007FC000
007FC000
003FC000
003FE040
002FFFE0
000BFFF0
0001BFA0
ENDCHAR
STARTCHAR uni026D
ENCODING 621
SWIDTH 600 0
DWIDTH 17 0
BBX 14 26 1 -6
BITMAP
BFFFC000
BFFFC000
BFFFC000
007FC000
007FC000
007FC000
007FC000
007FC000
007FC000
007FC000
007FC000
007FC000
007FC000
007FC000
007FC000
007FC000
007FC000
007FC000
007FC000
007FC000
007FC000
003FC000
003FE040
001FFFE0
000BFFF0
0001BFA0
ENDCHAR
STARTCHAR uni026E
ENCODING 622
SWIDTH 600 0
DWIDTH 17 0
BBX 16 26 1 -6
BITMAP
FF400000
FF400000
FF400000
FF400000
FF400000
FF400000
FFFFFFFC
FFFFFFFC
FFFFFFFC
FF401FF4
FF402FE0
FF40BF80
FF41FF00
FF43FD00
FF4BFF80
FF4FFFF4
FF47FFFC
FF4107FD
FF4002FE
FF4001FE
000001FE
001002FD
00790BFC
00FFFFF8
00BFFFE0
001BFE40
ENDCHAR
STARTCHAR uni026F
ENCODING 623
SWIDTH 600 0
DWIDTH 17 0
BBX 16 14 0 0
BITMAP
7F87F0FE
7F87F0FE
7F87F0FE
7F87F0FE
7F87F0FE
7F87F0FE
7F87F0FE
7F87F0FE
7F87F0FE
7F8BF1FE
7F8FF2FE
3FFFFFFE
2FF6FFBE
0BE1B97E
ENDCHAR
STARTCHAR uni0270
ENCODING 624
SWIDTH 600 0
DWIDTH 17 0
BBX 16 20 0 -6
BITMAP
7F87F0FE
7F87F0FE
7F87F0FE
7F87F0FE
7F87F0FE
7F87F0FE
7F87F0FE
7F87F0FE
7F87F0FE
7F87F0FE
7F8BF2FE
3FFFFFFE
2FFFFFFE
0BE1F9FE
000000FE
000000FE
000000FE
000000FE
000000FE
000000FE
ENDCHAR
STARTCHAR uni0271
ENCODING 625
SWIDTH 600 0
DWIDTH 17 0
BBX 15 20 1 -6
BITMAP
FC7E0BD0
FEFFAFF4
FFFFFFF8
FF9FE3FC
FF0FD3FC
FF0FC3FC
FF0FC3FC
FF0FC3FC
FF0FC3FC
FF0FC3FC
FF0FC3FC
FF0FC3FC
FF0FC3FC
FF0FC3FC
000003FC
000003FC
000003FC
00002FF8
00003FF4
00003F90
ENDCHAR
STARTCHAR uni0272
ENCODING 626
SWIDTH 600 0
DWIDTH 17 0
BBX 16 20 -1 -6
BITMAP
02F82FE0
02FDFFFC
02FFFFFE
02FF82FF
02FF00FF
02FD00FF
02FD00FF
02FD00FF
02FD00FF
02FD00FF
02FD00FF
02FD00FF
02FD00FF
02FD00FF
02FD0000
02FD0000
03FD0000
3FFC0000
3FF40000
7F900000
ENDCHAR
STARTCHAR uni0273
ENCODING 627
SWIDTH 600 0
DWIDTH 17 0
BBX 16 20 2 -6
BITMAP
FD1BF800
FE7FFE00
FFFFFF40
FFE0BF80
FF807F80
FF007F80
FF007FC0
FF007FC0
FF007FC0
FF007FC0
FF007FC0
FF007FC0
FF007FC0
FF007FC0
00007FC0
00003FC0
00003FD0
00002FFC
00000FFD
000002FD
ENDCHAR
STARTCHAR uni0274
ENCODING 628
SWIDTH 600 0
DWIDTH 17 0
BBX 13 14 2 0
BITMAP
FF403F80
FF803F80
FFD03F80
FFF03F80
FFF83F80
FEFD3F80
FEBF3F80
FE3F7F80
FF2FFF80
FF0FFF80
FF07FF80
FF02FF80
FF00FF80
FF007F80
ENDCHAR
STARTCHAR uni0275
ENCODING 629
SWIDTH 600 0
DWIDTH 17 0
BBX 15 14 1 0
BITMAP
006FE400
07FFFE00
1FFFFFC0
2FD02FE0
7F800BF0
BFFFFFF4
BFFFFFF4
BFFFFFF4
BF400BF4
7F800FF0
2FE06FE0
1FFFFFC0
07FFFE00
006FE400
ENDCHAR
STARTCHAR uni0276
ENCODING 630
SWIDTH 600 0
DWIDTH 17 0
BBX 17 14 0 0
BITMAP
00BFFFFF40
07FFFFFF40
1FFFFFFF40
2FE4BF0000
3FD0BF0000
7FC0BFFD00
7F80BFFD00
7F80BFFD00
7FC0BF0000
3FC0BF0000
2FE0BF0000
1FFFFFFF80
07FFFFFF80
00BFFFFF80
ENDCHAR
STARTCHAR uni0278
ENCODING 632
SWIDTH 600 0
DWIDTH 17 0
BBX 16 26 0 -6
BITMAP
0007F000
0007F000
0007F000
0007F000
0007F000
0007F000
006FFE40
03FFFFE0
0FFFFFF8
2FE7F6FD
3F87F0FE
3F47F0BF
7F47F0BF
7F47F0BF
3F47F0BF
3F87F0FE
2FE7F6FD
0FFFFFF8
03FFFFE0
006FFE40
0007F000
0007F000
0007F000
0007F000
0007F000
0007F000
ENDCHAR
STARTCHAR uni0279
ENCODING 633
SWIDTH 600 0
DWIDTH 17 0
BBX 13 14 1 0
BITMAP
0000BF80
0000BF80
0000BF80
0000BF80
0000BF80
0000BF80
0000BF80
0000BF80
0000FF80
0002FF80
101FFF80
3FFF7F80
7FFD3F80
7FA03F80
ENDCHAR
STARTCHAR uni027A
ENCODING 634
SWIDTH 600 0
DWIDTH 17 0
BBX 13 20 1 0
BITMAP
0000BF80
0000BF80
0000BF80
0000BF80
0000BF80
0000BF80
0000BF80
0000BF80
0000BF80
0000BF80
0000BF80
0000BF80
0000BF80
0000BF80
0000FF80
0002FF80
101FFF80
3FFF7F80
7FFD3F80
7F903F80
ENDCHAR
STARTCHAR uni027B
ENCODING 635
SWIDTH 600 0
DWIDTH 17 0
BBX 15 20 1 -6
BITMAP
0003FD00
0003FD00
0003FD00
0003FD00
0003FD00
0003FD00
0003FD00
0003FD00
0007FD00
000BFD00
106FFD00
3FFEFD00
7FF5FD00
7F91FD00
0001FD00
0001FD00
0001FE00
0000FFF0
00007FF4
00001BF4
ENDCHAR
STARTCHAR uni027D
ENCODING 637
SWIDTH 600 0
DWIDTH 17 0
BBX 12 20 3 -6
BITMAP
BE02FE
BE1FFF
BF7FFE
BFF901
BFE000
BFC000
BF4000
BF4000
BF4000
BF4000
BF4000
BF4000
BF4000
BF4000
BF4000
BF8000
7FD010
3FFFF4
1FFFF8
02BFA4
ENDCHAR
STARTCHAR uni027E
ENCODING 638
SWIDTH 600 0
DWIDTH 17 0
BBX 12 14 3 0
BITMAP
006FFE
07FFFF
1FFFFE
3FF405
7FD000
BF8000
BF4000
BF4000
BF4000
BF4000
BF4000
BF4000
BF4000
BF4000
ENDCHAR
STARTCHAR uni0280
ENCODING 640
SWIDTH 600 0
DWIDTH 17 0
BBX 14 14 2 0
BITMAP
FFFFE400
FFFFFE00
FFFFFF40
FF40BF80
FF407FC0
FF40BF80
FFFFFF40
FFFFFD00
FFFFF400
FF4BFC00
FF43FE00
FF41FF40
FF40BF80
FF403FE0
ENDCHAR
STARTCHAR uni0281
ENCODING 641
SWIDTH 600 0
DWIDTH 17 0
BBX 14 14 1 0
BITMAP
BFC01FE0
2FE01FE0
0FF41FE0
07FD1FE0
02FFFFE0
0BFFFFE0
1FFFFFE0
2FE01FE0
3FC01FE0
3FC01FE0
3FE01FE0
2FFFFFE0
0BFFFFE0
01BFFFE0
ENDCHAR
STARTCHAR uni0282
ENCODING 642
SWIDTH 600 0
DWIDTH 17 0
BBX 14 20 1 -6
BITMAP
006FE900
07FFFF90
1FFFFFD0
2FE01B80
2FE00000
1FFF9000
0BFFFE40
01BFFFD0
0006BFF0
04001FF0
2F901FF0
7FFFFFE0
BFFFFF80
BFAFE900
7F000000
7F400000
7F800000
3FFC0000
1FFC0000
06FD0000
ENDCHAR
STARTCHAR uni0283
ENCODING 643
SWIDTH 600 0
DWIDTH 17 0
BBX 15 26 1 -6
BITMAP
0000BFE4
0007FFF4
000FFFF0
001FF410
001FE000
002FE000
002FE000
002FE000
002FE000
002FE000
002FE000
002FE000
002FE000
002FE000
002FE000
002FE000
002FE000
002FE000
002FE000
002FE000
002FD000
002FD000
147FD000
3FFF8000
BFFF4000
6FF80000
ENDCHAR
STARTCHAR uni0284
ENCODING 644
SWIDTH 600 0
DWIDTH 17 0
BBX 15 26 1 -6
BITMAP
0000BFE4
0007FFF4
000FFFF0
001FF410
002FE000
002FE000
002FE000
002FE000
002FE000
002FE000
002FE000
2FFFFFE0
2FFFFFE0
2FFFFFE0
002FE000
002FE000
002FE000
002FE000
002FE000
002FE000
002FD000
002FD000
147FD000
3FFF8000
BFFF4000
6FF80000
ENDCHAR
STARTCHAR uni0287
ENCODING 647
SWIDTH 600 0
DWIDTH 17 0
BBX 15 18 1 -4
BITMAP
6BFE0000
7FFFD000
3FFFF000
101FF800
0007F800
0007FC00
0007FC00
0007FC00
0007FC00
0007FC00
0007FC00
3FFFFFF4
3FFFFFF4
3FFFFFF4
0007F800
0007F800
0007F400
0007F400
ENDCHAR
STARTCHAR uni0288
ENCODING 648
SWIDTH 600 0
DWIDTH 17 0
BBX 15 24 1 -6
BITMAP
007F0000
00BF0000
00BF0000
00FF0000
BFFFFFF0
BFFFFFF0
BFFFFFF0
00FF0000
00FF0000
00FF0000
00FF0000
00FF0000
00FF0000
00FF0000
00FF0000
00FF0000
00FF0000
00FF0000
00FF0000
00FF4000
00BFD050
007FFFF0
001FFFF4
0006FFA0
ENDCHAR
STARTCHAR uni0289
ENCODING 649
SWIDTH 600 0
DWIDTH 17 0
BBX 18 14 -1 0
BITMAP
03FC02FD00
03FC02FD00
03FC02FD00
7FFFFFFFE0
7FFFFFFFE0
7FFFFFFFE0
03FC02FD00
03FC02FD00
03FC02FD00
03FD03FD00
02FE0BFD00
01FFFFFD00
00FFFDFD00
002FE0FD00
ENDCHAR
STARTCHAR uni028A
ENCODING 650
SWIDTH 600 0
DWIDTH 17 0
BBX 15 15 1 0
BITMAP
00001550
FFF47FF8
FFF47FF8
FFF47FF8
0BE02F90
2FC01FD0
3F800FF0
7F800BF4
BF800BF4
BF800FF4
7FC01FF0
3FE07FE0
1FFFFFC0
07FFFF40
006FE400
ENDCHAR
STARTCHAR uni028B
ENCODING 651
SWIDTH 600 0
DWIDTH 17 0
BBX 15 14 1 0
BITMAP
7FC1FE40
7FC0FFD0
7FC0FFF0
7FC01FF4
7FC00FF4
7FC00BF4
7FC00BF4
7FC00FF4
7FC00FF0
3FD01FF0
2FE47FD0
1FFFFF80
07FFFE00
00AFE400
ENDCHAR
STARTCHAR uni028C
ENCODING 652
SWIDTH 600 0
DWIDTH 17 0
BBX 15 14 1 0
BITMAP
007FF000
00BFF400
00FFF800
01FEFC00
02FDFD00
03F8FE00
07F4BF00
0BF07F80
0FE03FC0
1FD02FD0
3FC01FE0
7F800FF0
BF400BF4
FF0007F8
ENDCHAR
STARTCHAR uni028D
ENCODING 653
SWIDTH 600 0
DWIDTH 17 0
BBX 17 14 0 0
BITMAP
0FFC1FF800
0FFD2FF800
0FFD2FF800
1FFE3FFC00
1FEE3EFC00
2FDF7DFD00
2F9F7DFD00
3F8FB8FE00
3F8FF4FE00
7F4BF4FF00
7F4BF0BF00
BF47F0BF40
BF00007F40
BF00007F80
ENDCHAR
STARTCHAR uni028E
ENCODING 654
SWIDTH 600 0
DWIDTH 17 0
BBX 15 20 1 0
BITMAP
00002FE0
0001FFE0
0003FFD0
000BF800
000FE000
002FD000
003FC000
007FD000
00BFE000
00FFF000
01FAF800
03F9FC00
07F4FD00
0BF0BF00
0FE07F40
1FD03FC0
2FC02FD0
7F800FE0
BF400BF4
FF0007F8
ENDCHAR
STARTCHAR uni028F
ENCODING 655
SWIDTH 600 0
DWIDTH 17 0
BBX 15 14 1 0
BITMAP
BF800BF8
7FC00FF0
2FE02FE0
0FF03FC0
0BF47F40
03F8FF00
01FEFD00
00FFF800
007FF400
002FE000
002FE000
002FE000
002FE000
002FE000
ENDCHAR
STARTCHAR uni0290
ENCODING 656
SWIDTH 600 0
DWIDTH 17 0
BBX 16 20 2 -6
BITMAP
7FFFFFC0
7FFFFFC0
7FFFFF40
0007FE00
000FF800
002FF000
00BFD000
01FF4000
07FE0000
0FF80000
2FF00000
BFFFFFC0
FFFFFFC0
FFFFFFC0
00003FC0
00003FC0
00002FD0
00001FFD
00000BFD
000002FE
ENDCHAR
STARTCHAR uni0291
ENCODING 657
SWIDTH 600 0
DWIDTH 17 0
BBX 15 17 2 -3
BITMAP
7FFFFE00
7FFFFE00
7FFFFD00
000BF800
001FF000
007FD000
00FF4B90
02FE2FF0
07FC7FF4
1FF4F8F4
3FE1F1F4
BFFFFFF0
FFFFFFD0
FFFFFE40
000B8000
000B4000
000B0000
ENDCHAR
STARTCHAR uni0292
ENCODING 658
SWIDTH 600 0
DWIDTH 17 0
BBX 14 20 1 -6
BITMAP
2FFFFFD0
2FFFFFD0
2FFFFF80
0001FF00
0003FD00
000BF400
002FE000
00BF8000
02FFF800
03FFFF40
01FFFFC0
0040BFE0
00002FF0
00001FF0
00001FF0
08002FE0
2F41BFD0
7FFFFF80
1FFFFD00
01BFA000
ENDCHAR
STARTCHAR uni0294
ENCODING 660
SWIDTH 600 0
DWIDTH 17 0
BBX 14 20 1 0
BITMAP
01BFA400
1FFFFE00
7FFFFF80
2F41BFD0
08002FE0
00001FE0
00001FE0
00003FE0
0000BFC0
0002FF80
001FFE00
007FF400
007FD000
007FC000
007FC000
007FC000
007FC000
007FC000
007FC000
007FC000
ENDCHAR
STARTCHAR uni0295
ENCODING 661
SWIDTH 600 0
DWIDTH 17 0
BBX 13 20 2 0
BITMAP
01BFE400
0BFFFF40
3FFFFFC0
BFD02F40
FF400600
FF000000
FF400000
FF800000
7FD00000
2FF80000
0BFF4000
02FFC000
00BFC000
003FC000
003FC000
003FC000
003FC000
003FC000
003FC000
003FC000
ENDCHAR
STARTCHAR uni0298
ENCODING 664
SWIDTH 600 0
DWIDTH 17 0
BBX 15 20 1 0
BITMAP
006FE400
02FFFE00
0BFFFF40
1FF47FC0
2FC01FE0
3F800FF0
7F400BF0
BF4007F4
BF4F87F4
BF2FD7F4
BF1FD7F4
BF4B87F4
BF4007F4
7F400BF0
3F800FF0
2FC01FE0
1FE47FC0
0BFFFF40
02FFFE00
006FE400
ENDCHAR
STARTCHAR uni0299
ENCODING 665
SWIDTH 600 0
DWIDTH 17 0
BBX 13 14 3 0
BITMAP
FFFFE400
FFFFFE00
FFFFFF40
FF00BF40
FF00BF40
FFFFFE00
FFFFF800
FFFFFF40
FF00BF80
FF003FC0
FF00BFC0
FFFFFF80
FFFFFE00
FFFFE400
ENDCHAR
STARTCHAR uni029C
ENCODING 668
SWIDTH 600 0
DWIDTH 17 0
BBX 13 14 2 0
BITMAP
FF007F80
FF007F80
FF007F80
FF007F80
FF007F80
FF007F80
FFFFFF80
FFFFFF80
FFFFFF80
FF007F80
FF007F80
FF007F80
FF007F80
FF007F80
ENDCHAR
STARTCHAR uni029D
ENCODING 669
SWIDTH 600 0
DWIDTH 17 0
BBX 15 28 0 -7
BITMAP
0000BD00
0002FF00
0003FF40
0003FF40
0001BD00
00000000
00000000
0BFFFF00
0BFFFF00
0BFFFF00
0001FF00
0001FF00
0001FF00
0001FF00
0001FF00
0001FF00
0001FF00
0001FF00
0001FF00
06FEFF00
1FFFFF00
3FFFFF00
7F02FF40
7F47FFC0
3FFFFFE0
1FFFFBF4
02FE43F4
00000280
ENDCHAR
STARTCHAR uni029E
ENCODING 670
SWIDTH 600 0
DWIDTH 17 0
BBX 15 20 0 -6
BITMAP
2FD007F8
0FF007F8
07F807F8
02FD0BF8
00FF1FF8
007FBFF8
002FFFF8
000FFFF8
001FFBF8
007FD7F8
01FF47F8
07FE07F8
1FF807F8
7FE007F8
000007F8
000007F8
000007F8
000007F8
000007F8
000007F8
ENDCHAR
STARTCHAR uni029F
ENCODING 671
SWIDTH 600 0
DWIDTH 17 0
BBX 12 14 3 0
BITMAP
BF8000
BF8000
BF8000
BF8000
BF8000
BF8000
BF8000
BF8000
BF8000
BF8000
BF8000
BFFFFF
BFFFFF
BFFFFF
ENDCHAR
STARTCHAR uni02A1
ENCODING 673
SWIDTH 600 0
DWIDTH 17 0
BBX 14 20 1 0
BITMAP
01BFE400
1FFFFE00
7FFFFF80
2F40BFD0
08002FE0
00001FE0
00001FE0
00003FD0
0000BF80
0002FF00
001BFC00
7FFFFFF0
7FFFFFF0
7FFFFFF0
007FC000
007FC000
007FC000
007FC000
007FC000
007FC000
ENDCHAR
STARTCHAR uni02A2
ENCODING 674
SWIDTH 600 0
DWIDTH 17 0
BBX 15 20 1 0
BITMAP
006FF900
07FFFF90
0FFFFFF0
2FF41BD0
3FD00180
3FC00000
3FD00000
2FE00000
0FF40000
07FD0000
01FF8000
7FFFFFF4
7FFFFFF4
7FFFFFF4
000FF000
000FF000
000FF000
000FF000
000FF000
000FF000
ENDCHAR
STARTCHAR uni02A4
ENCODING 676
SWIDTH 600 0
DWIDTH 17 0
BBX 19 26 -1 -6
BITMAP
0002F80000
0002F80000
0002F80000
0002F80000
0002F80000
0002F80000
02FAFFFFE0
0BFFFFFFE0
1FFFFFFFD0
2FD7F81FC0
3F82F83F40
3F42F87F00
7F42F8FD00
7F42F9FC00
3F42FBFE40
3F82FAFFC0
2FD7F9FFE0
1FFFF81FF0
0BFEF807F0
02F8A407F4
00000007F4
0000000BF0
0000051FE0
00000FFFD0
00001FFF80
000006F900
ENDCHAR
STARTCHAR uni02A6
ENCODING 678
SWIDTH 600 0
DWIDTH 17 0
BBX 17 18 0 0
BITMAP
07F4000000
07F4000000
0BF4000000
0BF4000000
BFFFFFF900
BFFFFFFF40
BFFFFFFF00
0FF4FF0500
0FF4BF4000
0FF43FE000
0FF41FFD00
0FF402FE00
0FF400BF40
0BF4003F40
0BFD00BF40
03FFFFFF00
01FFFFFD00
001BFF9000
ENDCHAR
STARTCHAR uni02A7
ENCODING 679
SWIDTH 600 0
DWIDTH 17 0
BBX 18 26 0 -6
BITMAP
0000001BF0
000000BFF0
07F401FFE0
07F402FE00
0BF403FD00
0BF403FD00
BFFFFFFD00
BFFFFFFD00
BFFFFFFD00
0FF403FD00
0FF403FD00
0FF403FD00
0FF403FD00
0FF403FD00
0FF403FD00
0BF403FD00
0BF803FD00
07FFD3FD00
02FFD3FD00
00BF93FD00
000003FC00
000003FC00
000007FC00
00007FF800
0000BFE000
0000BF8000
ENDCHAR
STARTCHAR h.sups
ENCODING 688
SWIDTH 600 0
DWIDTH 17 0
BBX 9 14 4 10
BITMAP
540000
BD0000
BD0000
BD0000
BDBE00
BEFF80
BFFFC0
BE0FC0
BD0BC0
BD0BC0
BD0BC0
BD0BC0
BD0BC0
BD0BC0
ENDCHAR
STARTCHAR j.sups
ENCODING 690
SWIDTH 600 0
DWIDTH 17 0
BBX 7 17 4 7
BITMAP
01B8
02FC
01F8
0000
BFFC
BFFC
BFFC
00FC
00FC
00FC
00FC
00FC
00FC
41F8
BFF8
FFF0
BF80
ENDCHAR
STARTCHAR r.sups
ENCODING 691
SWIDTH 600 0
DWIDTH 17 0
BBX 8 10 6 10
BITMAP
F47E
FAFE
FBFD
FF40
FD00
FC00
FC00
FC00
FC00
FC00
ENDCHAR
STARTCHAR w.sups
ENCODING 695
SWIDTH 600 0
DWIDTH 17 0
BBX 14 10 1 10
BITMAP
BC1F43E0
BD2F83D0
7D2FC7D0
3E3FCBC0
3E7ADB80
2F7AEF80
1FB5EF40
1FF1FF00
0FF0FF00
0BE0FE00
ENDCHAR
STARTCHAR y.sups
ENCODING 696
SWIDTH 600 0
DWIDTH 17 0
BBX 10 13 3 7
BITMAP
7E02F0
2F03E0
1F47D0
0F8BC0
07CF80
03DF40
02FF00
01FE00
00FD00
01FC00
1FF400
1FE000
1F8000
ENDCHAR
STARTCHAR uni02B9
ENCODING 697
SWIDTH 600 0
DWIDTH 17 0
BBX 5 9 6 10
BITMAP
3FC0
3FC0
3F80
7F80
7F40
7F00
7E00
7E00
BD00
ENDCHAR
STARTCHAR uni02BB
ENCODING 699
SWIDTH 600 0
DWIDTH 17 0
BBX 6 11 5 8
BITMAP
0190
07E0
1FE0
3F40
7D00
BC00
BF90
BFF0
BFF0
7FF0
1F90
ENDCHAR
STARTCHAR uni02BC
ENCODING 700
SWIDTH 600 0
DWIDTH 17 0
BBX 7 11 5 8
BITMAP
1F90
3FF0
7FF4
3FF8
1FF8
01F4
02F4
07E0
2FC0
3F40
1800
ENDCHAR
STARTCHAR uni02BE
ENCODING 702
SWIDTH 600 0
DWIDTH 17 0
BBX 6 9 6 15
BITMAP
B900
BF80
BFD0
0BE0
07E0
0BE0
BFD0
BF80
B900
ENDCHAR
STARTCHAR uni02BF
ENCODING 703
SWIDTH 600 0
DWIDTH 17 0
BBX 6 9 5 15
BITMAP
0AE0
3FE0
BFE0
FE00
FC00
FE00
BFE0
3FE0
0AE0
ENDCHAR
STARTCHAR uni02C1
ENCODING 705
SWIDTH 600 0
DWIDTH 17 0
BBX 9 12 4 12
BITMAP
06F900
2FFF40
7FFF80
BE0700
FC0000
BD0000
7F0000
2FD000
0BF400
02F400
02F400
015000
ENDCHAR
STARTCHAR circumflex
ENCODING 710
SWIDTH 600 0
DWIDTH 17 0
BBX 11 5 3 16
BITMAP
07FF00
0FFF80
2FEFE0
7E07F4
2800A0
ENDCHAR
STARTCHAR caron
ENCODING 711
SWIDTH 600 0
DWIDTH 17 0
BBX 11 5 3 16
BITMAP
2800A0
7E07F4
2FEFE0
0FFF80
07FF00
ENDCHAR
STARTCHAR uni02C8
ENCODING 712
SWIDTH 600 0
DWIDTH 17 0
BBX 5 10 6 11
BITMAP
BF40
BF40
BF40
7F40
7F00
7F00
7F00
3F00
3E00
3E00
ENDCHAR
STARTCHAR uni02C9
ENCODING 713
SWIDTH 600 0
DWIDTH 17 0
BBX 9 3 4 16
BITMAP
BFFF80
BFFF80
BFFF80
ENDCHAR
STARTCHAR uni02CA
ENCODING 714
SWIDTH 600 0
DWIDTH 17 0
BBX 7 7 6 16
BITMAP
0080
02F0
0BFC
1FF4
7FD0
7F00
1800
ENDCHAR
STARTCHAR uni02CB
ENCODING 715
SWIDTH 600 0
DWIDTH 17 0
BBX 8 7 3 16
BITMAP
0600
1F80
7FD0
2FF4
07FD
01FD
0020
ENDCHAR
STARTCHAR uni02CC
ENCODING 716
SWIDTH 600 0
DWIDTH 17 0
BBX 5 10 6 -7
BITMAP
3E00
3E00
3F00
7F00
7F00
7F00
7F40
BF40
BF40
BF40
ENDCHAR
STARTCHAR uni02D0
ENCODING 720
SWIDTH 600 0
DWIDTH 17 0
BBX 7 15 5 0
BITMAP
FFFC
BFF4
3FE0
1FD0
0B80
0700
0000
0000
0000
0200
0B40
1FC0
3FE0
BFF4
FFFC
ENDCHAR
STARTCHAR uni02D1
ENCODING 721
SWIDTH 600 0
DWIDTH 17 0
BBX 7 6 5 9
BITMAP
FFFC
BFF4
3FE0
1FC0
0B40
0200
ENDCHAR
STARTCHAR breve
ENCODING 728
SWIDTH 600 0
DWIDTH 17 0
BBX 10 6 3 16
BITMAP
040040
7D02F0
3F47F0
2FFFE0
1FFFC0
02FE00
ENDCHAR
STARTCHAR dotaccent
ENCODING 729
SWIDTH 600 0
DWIDTH 17 0
BBX 6 5 5 16
BITMAP
1F90
3FF0
7FF0
3FF0
1F90
ENDCHAR
STARTCHAR ring
ENCODING 730
SWIDTH 600 0
DWIDTH 17 0
BBX 8 7 4 16
BITMAP
0BF4
2FFD
3E2F
7D1F
3E2F
2FFD
0BF4
ENDCHAR
STARTCHAR ogonek
ENCODING 731
SWIDTH 600 0
DWIDTH 17 0
BBX 7 6 5 -6
BITMAP
0B40
2E00
7D00
7E10
7FF8
1BE4
ENDCHAR
STARTCHAR tilde
ENCODING 732
SWIDTH 600 0
DWIDTH 17 0
BBX 11 5 3 16
BITMAP
1B80A4
7FF5F8
BFFFF4
BCBFF0
A81F90
ENDCHAR
STARTCHAR hungarumlaut
ENCODING 733
SWIDTH 600 0
DWIDTH 17 0
BBX 10 6 5 16
BITMAP
090240
2F8BE0
3F0FC0
BD2F80
FC3F00
641900
ENDCHAR
STARTCHAR uni02DE
ENCODING 734
SWIDTH 600 0
DWIDTH 17 0
BBX 10 7 2 6
BITMAP
00A000
1BF000
7FF400
7FF800
79BFC0
403FD0
001B90
ENDCHAR
STARTCHAR uni02E0
ENCODING 736
SWIDTH 600 0
DWIDTH 17 0
BBX 9 13 4 7
BITMAP
F80BC0
BC0F80
7D1F40
3E2E00
2F3D00
1FBC00
0BF800
0BF400
0FBC00
1F3D00
1F3D00
1FFC00
07F400
ENDCHAR
STARTCHAR l.sups
ENCODING 737
SWIDTH 600 0
DWIDTH 17 0
BBX 8 14 5 10
BITMAP
FFC0
FFC0
FFC0
0FC0
0FC0
0FC0
0FC0
0FC0
0FC0
0FC0
0FD0
0BFE
07FF
01FE
ENDCHAR
STARTCHAR s.sups
ENCODING 738
SWIDTH 600 0
DWIDTH 17 0
BBX 9 10 4 10
BITMAP
0BF800
3FFF40
7FFF40
3E0500
1B9000
016E00
241F80
BFFF80
7FFF40
1BF900
ENDCHAR
STARTCHAR x.sups
ENCODING 739
SWIDTH 600 0
DWIDTH 17 0
BBX 10 9 3 11
BITMAP
3F07E0
1F8BD0
0BDF80
03FF00
02FD00
07FE00
0FEF40
2F4BD0
7E07F0
ENDCHAR
STARTCHAR uni02E4
ENCODING 740
SWIDTH 600 0
DWIDTH 17 0
BBX 9 14 4 10
BITMAP
06F900
2FFF40
7FFF80
BE0700
FC0000
BD0000
7F0000
2FD000
0BF400
02F400
02F400
02F400
02F400
02F400
ENDCHAR
STARTCHAR uni0300
ENCODING 768
SWIDTH 600 0
DWIDTH 17 0
BBX 8 7 3 16
BITMAP
0600
1F80
7FD0
2FF4
07FD
01FD
0020
ENDCHAR
STARTCHAR uni0301
ENCODING 769
SWIDTH 600 0
DWIDTH 17 0
BBX 7 7 6 16
BITMAP
0080
02F0
0BFC
1FF4
7FD0
7F00
1800
ENDCHAR
STARTCHAR uni0302
ENCODING 770
SWIDTH 600 0
DWIDTH 17 0
BBX 11 5 3 16
BITMAP
07FF00
0FFF80
2FEFE0
7E07F4
2800A0
ENDCHAR
STARTCHAR uni0303
ENCODING 771
SWIDTH 600 0
DWIDTH 17 0
BBX 11 5 3 16
BITMAP
1B80A4
7FF5F8
BFFFF4
BCBFF0
A81F90
ENDCHAR
STARTCHAR uni0304
ENCODING 772
SWIDTH 600 0
DWIDTH 17 0
BBX 9 3 4 16
BITMAP
BFFF80
BFFF80
BFFF80
ENDCHAR
STARTCHAR uni0305
ENCODING 773
SWIDTH 600 0
DWIDTH 17 0
BBX 9 3 4 16
BITMAP
BFFF80
BFFF80
BFFF80
ENDCHAR
STARTCHAR uni0306
ENCODING 774
SWIDTH 600 0
DWIDTH 17 0
BBX 10 6 3 16
BITMAP
040040
7D02F0
3F47F0
2FFFE0
1FFFC0
02FE00
ENDCHAR
STARTCHAR uni0307
ENCODING 775
SWIDTH 600 0
DWIDTH 17 0
BBX 6 5 5 16
BITMAP
1F90
3FF0
7FF0
3FF0
1F90
ENDCHAR
STARTCHAR uni0308
ENCODING 776
SWIDTH 600 0
DWIDTH 17 0
BBX 11 5 3 16
BITMAP
2E02E0
BF4BF8
FF4BF8
BF4BF8
2E02E0
ENDCHAR
STARTCHAR uni0309
ENCODING 777
SWIDTH 600 0
DWIDTH 17 0
BBX 5 7 6 16
BITMAP
F900
FF40
FFC0
1FC0
1FC0
3F40
2900
ENDCHAR
STARTCHAR uni030A
ENCODING 778
SWIDTH 600 0
DWIDTH 17 0
BBX 8 7 4 16
BITMAP
0BF4
2FFD
3E2F
7D1F
3E2F
2FFD
0BF4
ENDCHAR
STARTCHAR uni030B
ENCODING 779
SWIDTH 600 0
DWIDTH 17 0
BBX 10 6 5 16
BITMAP
090240
2F8BE0
3F0FC0
BD2F80
FC3F00
641900
ENDCHAR
STARTCHAR uni030C
ENCODING 780
SWIDTH 600 0
DWIDTH 17 0
BBX 11 5 3 16
BITMAP
2800A0
7E07F4
2FEFE0
0FFF80
07FF00
ENDCHAR
STARTCHAR uni030F
ENCODING 783
SWIDTH 600 0
DWIDTH 17 0
BBX 10 6 2 16
BITMAP
280A00
FD3F40
7E1F80
2F4BD0
0F83E0
064190
ENDCHAR
STARTCHAR uni0310
ENCODING 784
SWIDTH 600 0
DWIDTH 17 0
BBX 11 8 3 16
BITMAP
001000
01FC00
02FD00
16FD50
B8A4F4
7E06F0
2FFFD0
06FE40
ENDCHAR
STARTCHAR uni0311
ENCODING 785
SWIDTH 600 0
DWIDTH 17 0
BBX 10 6 3 15
BITMAP
02FE00
1FFFC0
2FFFE0
3F47F0
7D02F0
040040
ENDCHAR
STARTCHAR uni0312
ENCODING 786
SWIDTH 600 0
DWIDTH 17 0
BBX 5 7 6 16
BITMAP
0600
2E00
7800
BE00
BF40
7F40
2E00
ENDCHAR
STARTCHAR uni0313
ENCODING 787
SWIDTH 600 0
DWIDTH 17 0
BBX 5 7 6 15
BITMAP
7D00
BF40
BF40
7F40
0B00
7D00
2400
ENDCHAR
STARTCHAR uni0318
ENCODING 792
SWIDTH 600 0
DWIDTH 17 0
BBX 6 7 6 -7
BITMAP
02E0
02E0
FFE0
FFE0
FFE0
02E0
02E0
ENDCHAR
STARTCHAR uni0319
ENCODING 793
SWIDTH 600 0
DWIDTH 17 0
BBX 6 7 5 -7
BITMAP
B400
B800
BFF0
BFF0
BFF0
B800
B400
ENDCHAR
STARTCHAR uni031A
ENCODING 794
SWIDTH 600 0
DWIDTH 17 0
BBX 6 6 6 14
BITMAP
FFD0
FFD0
FFD0
03D0
03D0
0140
ENDCHAR
STARTCHAR uni031B
ENCODING 795
SWIDTH 600 0
DWIDTH 17 0
BBX 6 7 8 12
BITMAP
0280
1FD0
0FD0
0FD0
1FC0
BF40
A800
ENDCHAR
STARTCHAR uni031C
ENCODING 796
SWIDTH 600 0
DWIDTH 17 0
BBX 6 6 5 -7
BITMAP
0BD0
3FD0
7E00
7E00
3FD0
0BD0
ENDCHAR
STARTCHAR uni031D
ENCODING 797
SWIDTH 600 0
DWIDTH 17 0
BBX 7 5 5 -6
BITMAP
0B80
0B80
FFFC
FFFC
FFFC
ENDCHAR
STARTCHAR uni031E
ENCODING 798
SWIDTH 600 0
DWIDTH 17 0
BBX 7 5 5 -7
BITMAP
FFFC
FFFC
FFFC
0B80
0B80
ENDCHAR
STARTCHAR uni031F
ENCODING 799
SWIDTH 600 0
DWIDTH 17 0
BBX 7 7 5 -7
BITMAP
0B40
0B80
FFFC
FFFC
FFFC
0B80
0B40
ENDCHAR
STARTCHAR uni0320
ENCODING 800
SWIDTH 600 0
DWIDTH 17 0
BBX 7 3 5 -4
BITMAP
FFFC
FFFC
FFFC
ENDCHAR
STARTCHAR uni0323
ENCODING 803
SWIDTH 600 0
DWIDTH 17 0
BBX 6 5 5 -7
BITMAP
1F90
3FF0
7FF0
3FF0
1F90
ENDCHAR
STARTCHAR uni0324
ENCODING 804
SWIDTH 600 0
DWIDTH 17 0
BBX 11 5 3 -6
BITMAP
2E02E0
BF4BF8
FF4BF8
BF4BF8
2E02E0
ENDCHAR
STARTCHAR uni0325
ENCODING 805
SWIDTH 600 0
DWIDTH 17 0
BBX 8 7 4 -7
BITMAP
0BF4
2FFD
3E2F
7D1F
3E2F
2FFD
0BF4
ENDCHAR
STARTCHAR uni0326
ENCODING 806
SWIDTH 600 0
DWIDTH 17 0
BBX 6 6 5 -7
BITMAP
0E40
1FE0
07F0
07F0
BFD0
BA40
ENDCHAR
STARTCHAR uni0327
ENCODING 807
SWIDTH 600 0
DWIDTH 17 0
BBX 6 7 5 -7
BITMAP
0F80
1F00
2F90
07F0
07F0
BFE0
BA40
ENDCHAR
STARTCHAR uni0328
ENCODING 808
SWIDTH 600 0
DWIDTH 17 0
BBX 7 6 5 -6
BITMAP
0B40
2E00
7D00
7E10
7FF8
1BE4
ENDCHAR
STARTCHAR uni0329
ENCODING 809
SWIDTH 600 0
DWIDTH 17 0
BBX 4 6 6 -8
BITMAP
3F
3F
3F
7F
7F
7F
ENDCHAR
STARTCHAR uni032A
ENCODING 810
SWIDTH 600 0
DWIDTH 17 0
BBX 8 5 4 -6
BITMAP
7FFF
7FFF
7FFF
7C0F
7C0F
ENDCHAR
STARTCHAR uni032C
ENCODING 812
SWIDTH 600 0
DWIDTH 17 0
BBX 11 5 3 -6
BITMAP
2800A0
7E07F4
2FEFE0
0FFF80
07FF00
ENDCHAR
STARTCHAR uni032E
ENCODING 814
SWIDTH 600 0
DWIDTH 17 0
BBX 10 6 3 -7
BITMAP
040040
7D02F0
3F47F0
2FFFE0
1FFFC0
02FE00
ENDCHAR
STARTCHAR uni032F
ENCODING 815
SWIDTH 600 0
DWIDTH 17 0
BBX 10 6 3 -8
BITMAP
02FE00
1FFFC0
2FFFE0
3F47F0
7D02F0
040040
ENDCHAR
STARTCHAR uni0330
ENCODING 816
SWIDTH 600 0
DWIDTH 17 0
BBX 11 5 3 -6
BITMAP
1B80A4
7FF5F8
BFFFF4
BCBFF0
A81F90
ENDCHAR
STARTCHAR uni0331
ENCODING 817
SWIDTH 600 0
DWIDTH 17 0
BBX 9 3 4 -6
BITMAP
BFFF80
BFFF80
BFFF80
ENDCHAR
STARTCHAR uni0334
ENCODING 820
SWIDTH 600 0
DWIDTH 17 0
BBX 13 5 2 5
BITMAP
1B900500
7FFE1F80
BFFFFF80
FC6FFF00
5406F900
ENDCHAR
STARTCHAR uni0339
ENCODING 825
SWIDTH 600 0
DWIDTH 17 0
BBX 5 6 6 -7
BITMAP
7E00
BF80
0BC0
0BC0
BF80
7E00
ENDCHAR
STARTCHAR uni033A
ENCODING 826
SWIDTH 600 0
DWIDTH 17 0
BBX 8 5 4 -6
BITMAP
7C0F
7C0F
7FFF
7FFF
7FFF
ENDCHAR
STARTCHAR uni033B
ENCODING 827
SWIDTH 600 0
DWIDTH 17 0
BBX 8 5 4 -7
BITMAP
7FFF
7C0F
7C0F
7FFF
7FFF
ENDCHAR
STARTCHAR uni033C
ENCODING 828
SWIDTH 600 0
DWIDTH 17 0
BBX 11 5 3 -7
BITMAP
1F4BD0
7FEFF4
BFFFF8
F8F8B8
B4B4B8
ENDCHAR
STARTCHAR uni033D
ENCODING 829
SWIDTH 600 0
DWIDTH 17 0
BBX 7 6 5 16
BITMAP
1010
79F4
2FE0
1FD0
7EF4
7460
ENDCHAR
STARTCHAR uni0342
ENCODING 834
SWIDTH 600 0
DWIDTH 17 0
BBX 11 5 3 16
BITMAP
1B80A4
7FF5F8
BFFFF4
BCBFF0
A81F90
ENDCHAR
STARTCHAR uni0345
ENCODING 837
SWIDTH 600 0
DWIDTH 17 0
BBX 6 5 6 -6
BITMAP
7E00
3E00
3FD0
2FD0
0BD0
ENDCHAR
STARTCHAR uni035F
ENCODING 863
SWIDTH 600 0
DWIDTH 17 0
BBX 29 3 -6 -5
BITMAP
BFFFFFFFFFFFFF80
BFFFFFFFFFFFFF80
BFFFFFFFFFFFFF80
ENDCHAR
STARTCHAR uni0361
ENCODING 865
SWIDTH 600 0
DWIDTH 17 0
BBX 25 6 -4 16
BITMAP
0005AFFE900000
01BFFFFFFF8000
1BFFFFFFFFF800
BFFA50016BFF80
FE400000006FC0
A0000000000640
ENDCHAR
STARTCHAR uni0374
ENCODING 884
SWIDTH 600 0
DWIDTH 17 0
BBX 5 8 6 11
BITMAP
3FC0
3FC0
3F80
7F40
7F40
7F00
7E00
7D00
ENDCHAR
STARTCHAR uni0375
ENCODING 885
SWIDTH 600 0
DWIDTH 17 0
BBX 6 8 5 0
BITMAP
0BD0
0BD0
0FC0
1FC0
2FC0
3FC0
3FC0
7F80
ENDCHAR
STARTCHAR uni037A
ENCODING 890
SWIDTH 600 0
DWIDTH 17 0
BBX 6 5 6 -6
BITMAP
7E00
3E00
3FD0
2FD0
0BD0
ENDCHAR
STARTCHAR uni037E
ENCODING 894
SWIDTH 600 0
DWIDTH 17 0
BBX 7 23 5 -7
BITMAP
1F90
7FF0
BFF4
BFF8
BFF4
7FF0
1B90
0000
0000
0000
1BD0
7FF4
BFF8
BFFC
7FFC
1BFC
01FC
02F8
07F4
6FE0
BF80
7D00
1000
ENDCHAR
STARTCHAR tonos
ENCODING 900
SWIDTH 600 0
DWIDTH 17 0
BBX 5 8 7 15
BITMAP
7A40
7F80
7F40
BF00
BE00
FD00
FC00
A800
ENDCHAR
STARTCHAR dieresistonos
ENCODING 901
SWIDTH 600 0
DWIDTH 17 0
BBX 11 7 3 16
BITMAP
003A00
007E00
007D00
B8BCB4
FDB9FC
B8F4B4
00B000
ENDCHAR
STARTCHAR Alphatonos
ENCODING 902
SWIDTH 600 0
DWIDTH 17 0
BBX 17 20 0 0
BITMAP
2E40000000
3F80000000
3F4BFE0000
3F4BFF0000
7F0FFF4000
7E1FFF8000
BE2FAF8000
BD3FAFC000
BC7F5FD000
A87F4FE000
00BF0FF000
00FE0BF400
01FE07F400
02FFFFF800
03FFFFFC00
03FFFFFD00
07F802FE00
0BF401FF00
0FF400FF00
1FF000FF40
ENDCHAR
STARTCHAR anoteleia
ENCODING 903
SWIDTH 600 0
DWIDTH 17 0
BBX 7 7 5 9
BITMAP
1F90
7FF0
BFF4
BFF8
BFF4
7FF0
1B90
ENDCHAR
STARTCHAR Epsilontonos
ENCODING 904
SWIDTH 600 0
DWIDTH 17 0
BBX 15 20 0 0
BITMAP
2A400000
3F800000
3F4FFFF8
7F0FFFF8
7F0FFFF8
BE0FE000
BD0FE000
BD0FE000
FC0FE000
A80FFFD0
000FFFD0
000FFFD0
000FE000
000FE000
000FE000
000FE000
000FE000
000FFFFC
000FFFFC
000FFFFC
ENDCHAR
STARTCHAR Etatonos
ENCODING 905
SWIDTH 600 0
DWIDTH 17 0
BBX 16 20 0 0
BITMAP
2A400000
3F800000
3F5FD1FD
7F1FD1FD
7F1FD1FD
BE1FD1FD
BD1FD1FD
BD1FD1FD
FC1FD1FD
A81FFFFD
001FFFFD
001FFFFD
001FD1FD
001FD1FD
001FD1FD
001FD1FD
001FD1FD
001FD1FD
001FD1FD
001FD1FD
ENDCHAR
STARTCHAR Iotatonos
ENCODING 906
SWIDTH 600 0
DWIDTH 17 0
BBX 15 20 0 0
BITMAP
2A400000
3F800000
3F5FFFF8
7F1FFFF8
7F1FFFF8
BE00FF40
BD00FF40
BD00FF40
FC00FF40
A800FF40
0000FF40
0000FF40
0000FF40
0000FF40
0000FF40
0000FF40
0000FF40
001FFFF8
001FFFF8
001FFFF8
ENDCHAR
STARTCHAR Omicrontonos
ENCODING 908
SWIDTH 600 0
DWIDTH 17 0
BBX 16 20 0 0
BITMAP
2A400000
3F800000
3F41BE40
7F0BFFD0
7F1FFFF4
BE3FC7F8
BD7F42FC
BDBF41FD
FCBF01FE
A8FF01FE
00FF00FE
00FF01FE
00BF01FE
00BF01FE
00BF41FD
007F42FC
003FC7F8
001FFFF4
000BFFD0
0001BE40
ENDCHAR
STARTCHAR Upsilontonos
ENCODING 910
SWIDTH 600 0
DWIDTH 17 0
BBX 18 20 0 0
BITMAP
1E80000000
2FC0000000
2F9FE01FD0
3F4FE02FC0
3F47F02F80
3F03F43F40
7E02F87F00
7E01F8BE00
BD00FCFD00
6C00BDFC00
00007FF800
00003FF400
00002FF000
00001FE000
00001FD000
00001FD000
00001FD000
00001FD000
00001FD000
00001FD000
ENDCHAR
STARTCHAR Omegatonos
ENCODING 911
SWIDTH 600 0
DWIDTH 17 0
BBX 16 20 0 0
BITMAP
2A400000
3F800000
3F41BE40
7F0BFFD0
7F1FFFF4
BE3FC7F8
BD7F42FD
BDBF41FD
FCBF01FE
A8FF01FE
00FF01FE
00BF01FE
00BF01FD
007F41FD
003F42FC
002F82F4
000FC3F0
00FFD7FF
00FFD7FF
00FFD7FF
ENDCHAR
STARTCHAR iotadieresistonos
ENCODING 912
SWIDTH 600 0
DWIDTH 17 0
BBX 14 23 1 0
BITMAP
000A8000
000BC000
000F8000
1F4F6E00
2F9F3F40
1F5E2E00
001D0000
00000000
00000000
7FFFC000
7FFFC000
7FFF8000
007F8000
007F8000
007F8000
007F8000
007F8000
007F8000
003F8000
003FD040
002FFFE0
000FFFF0
0002FF90
ENDCHAR
STARTCHAR Alpha
ENCODING 913
SWIDTH 600 0
DWIDTH 17 0
BBX 17 18 0 0
BITMAP
001FFC0000
002FFD0000
003FFE0000
007FBF0000
007F7F4000
00BE3F8000
00FD3FC000
01FD2FD000
02FC1FE000
03F80FF000
07F80FF400
0BFFFFF400
0FFFFFF800
1FFFFFFC00
2FD002FD00
3FC001FE00
7FC001FF00
BF8000FF40
ENDCHAR
STARTCHAR Beta
ENCODING 914
SWIDTH 600 0
DWIDTH 17 0
BBX 14 18 2 0
BITMAP
FFFFA400
FFFFFE00
FFFFFF40
FF41BF80
FF407FC0
FF407F80
FF41FF40
FFFFFD00
FFFFF800
FFFFFF40
FF407FD0
FF401FE0
FF401FE0
FF402FE0
FF407FD0
FFFFFFC0
FFFFFE00
FFFFE400
ENDCHAR
STARTCHAR Gamma
ENCODING 915
SWIDTH 600 0
DWIDTH 17 0
BBX 12 18 3 0
BITMAP
FFFFFF
FFFFFF
FFFFFF
FF4000
FF4000
FF4000
FF4000
FF4000
FF4000
FF4000
FF4000
FF4000
FF4000
FF4000
FF4000
FF4000
FF4000
FF4000
ENDCHAR
STARTCHAR uni0394
ENCODING 916
SWIDTH 600 0
DWIDTH 17 0
BBX 15 18 1 0
BITMAP
007FF000
00BFF400
00FFF800
01FEFC00
02FDFD00
03F8FE00
07F4FF00
0BF4BF40
0FF07F80
0FE03FC0
1FD02FD0
2FD02FE0
3FC01FF0
7F800FF4
BF400BF8
FFFFFFFC
FFFFFFFC
FFFFFFFC
ENDCHAR
STARTCHAR Epsilon
ENCODING 917
SWIDTH 600 0
DWIDTH 17 0
BBX 13 18 2 0
BITMAP
7FFFFF80
7FFFFF80
7FFFFF80
7F800000
7F800000
7F800000
7F800000
7FFFFD00
7FFFFD00
7FFFFD00
7F800000
7F800000
7F800000
7F800000
7F800000
7FFFFFC0
7FFFFFC0
7FFFFFC0
ENDCHAR
STARTCHAR Zeta
ENCODING 918
SWIDTH 600 0
DWIDTH 17 0
BBX 15 18 1 0
BITMAP
2FFFFFF4
2FFFFFF4
2FFFFFF0
00007FD0
0000FF80
0002FF00
0007FD00
000BF800
002FF000
007FD000
00BF8000
01FF0000
07FD0000
0BF80000
1FF00000
3FFFFFF4
7FFFFFF4
7FFFFFF4
ENDCHAR
STARTCHAR Eta
ENCODING 919
SWIDTH 600 0
DWIDTH 17 0
BBX 14 18 1 0
BITMAP
7FC00FF0
7FC00FF0
7FC00FF0
7FC00FF0
7FC00FF0
7FC00FF0
7FC00FF0
7FFFFFF0
7FFFFFF0
7FFFFFF0
7FC00FF0
7FC00FF0
7FC00FF0
7FC00FF0
7FC00FF0
7FC00FF0
7FC00FF0
7FC00FF0
ENDCHAR
STARTCHAR Theta
ENCODING 920
SWIDTH 600 0
DWIDTH 17 0
BBX 15 18 1 0
BITMAP
006FE400
03FFFE00
0FFFFF80
2FF47FD0
3FD01FF0
7F800FF4
BF800BF8
FF6FDBF8
FF6FDBF8
FF6FDBF8
FF400BF8
BF800BF4
7F800FF4
3FD01FF0
2FF47FD0
0FFFFF80
02FFFE00
006FE400
ENDCHAR
STARTCHAR Iota
ENCODING 921
SWIDTH 600 0
DWIDTH 17 0
BBX 13 18 2 0
BITMAP
FFFFFF80
FFFFFF80
FFFFFF80
00BF4000
00BF4000
00BF4000
00BF4000
00BF4000
00BF4000
00BF4000
00BF4000
00BF4000
00BF4000
00BF4000
00BF4000
FFFFFF80
FFFFFF80
FFFFFF80
ENDCHAR
STARTCHAR Kappa
ENCODING 922
SWIDTH 600 0
DWIDTH 17 0
BBX 15 18 2 0
BITMAP
FF002FE0
FF00BFC0
FF01FF40
FF03FD00
FF0BF800
FF1FF000
FF7FD000
FFFFC000
FFFFD000
FFFFF000
FFFBF400
FFD7FC00
FF82FE00
FF01FF00
FF00BF80
FF007FD0
FF002FE0
FF001FF4
ENDCHAR
STARTCHAR Lambda
ENCODING 923
SWIDTH 600 0
DWIDTH 17 0
BBX 17 18 0 0
BITMAP
001FFC0000
002FFD0000
003FFE0000
003FFF0000
007FBF4000
00BE7F8000
00FE3FC000
01FD2FC000
02FC1FD000
03F81FE000
07F80FF000
0BF40BF400
0FF007F800
1FE003FC00
2FE003FD00
2FD002FE00
3FC001FF00
7F8000FF40
ENDCHAR
STARTCHAR Mu
ENCODING 924
SWIDTH 600 0
DWIDTH 17 0
BBX 15 18 1 0
BITMAP
7FC01FF4
7FD02FF4
7FE03FF4
7FF03FF4
7FF47FF4
7EF4BBF4
7EB8F7F4
7E7DF7F4
7F7EF3F4
7F3FE7F4
7F2FD7F4
7F1FC7F4
7F0F87F4
7F0107F4
7F0007F4
7F0007F4
7F0007F4
7F0007F4
ENDCHAR
STARTCHAR Nu
ENCODING 925
SWIDTH 600 0
DWIDTH 17 0
BBX 13 18 2 0
BITMAP
FF403FC0
FF803FC0
FFC03FC0
FFE03FC0
FFF03FC0
FEF43FC0
FDFC3FC0
FDBD3FC0
FE7E3FC0
FE3F2FC0
FE1FAFC0
FE0FEFC0
FE0BEFC0
FE07FFC0
FE02FFC0
FE01FFC0
FE00FFC0
FE007FC0
ENDCHAR
STARTCHAR Xi
ENCODING 926
SWIDTH 600 0
DWIDTH 17 0
BBX 13 18 2 0
BITMAP
FFFFFF80
FFFFFF80
FFFFFF80
00000000
00000000
00000000
00000000
1FFFFC00
1FFFFC00
1FFFFC00
00000000
00000000
00000000
00000000
00000000
FFFFFFC0
FFFFFFC0
FFFFFFC0
ENDCHAR
STARTCHAR Omicron
ENCODING 927
SWIDTH 600 0
DWIDTH 17 0
BBX 15 18 1 0
BITMAP
006FE400
07FFFE00
0FFFFF80
2FF47FE0
3FD01FF0
BF800FF4
BF400BF8
FF400BF8
FF400BF8
FF400BF8
FF400BF8
BF800BF4
7F800FF4
3FD01FF0
2FF47FD0
0FFFFF80
03FFFE00
006FE400
ENDCHAR
STARTCHAR Pi
ENCODING 928
SWIDTH 600 0
DWIDTH 17 0
BBX 14 18 1 0
BITMAP
7FFFFFF0
7FFFFFF0
7FFFFFF0
7FC00FF0
7FC00FF0
7FC00FF0
7FC00FF0
7FC00FF0
7FC00FF0
7FC00FF0
7FC00FF0
7FC00FF0
7FC00FF0
7FC00FF0
7FC00FF0
7FC00FF0
7FC00FF0
7FC00FF0
ENDCHAR
STARTCHAR Rho
ENCODING 929
SWIDTH 600 0
DWIDTH 17 0
BBX 14 18 2 0
BITMAP
FFFFE400
FFFFFE00
FFFFFF80
FF40BFD0
FF402FE0
FF401FE0
FF401FE0
FF402FD0
FF40BFC0
FFFFFF80
FFFFFE00
FFFFA400
FF400000
FF400000
FF400000
FF400000
FF400000
FF400000
ENDCHAR
STARTCHAR Sigma
ENCODING 931
SWIDTH 600 0
DWIDTH 17 0
BBX 14 18 1 0
BITMAP
3FFFFFD0
3FFFFFD0
2FFFFFD0
0FF40000
07FD0000
01FF0000
00BF8000
002FE000
000FF400
000FF000
002FD000
00BF8000
01FE0000
07FC0000
0FF40000
2FFFFFF0
7FFFFFF0
7FFFFFF0
ENDCHAR
STARTCHAR Tau
ENCODING 932
SWIDTH 600 0
DWIDTH 17 0
BBX 15 18 1 0
BITMAP
FFFFFFFC
FFFFFFFC
FFFFFFFC
002FD000
002FD000
002FD000
002FD000
002FD000
002FD000
002FD000
002FD000
002FD000
002FD000
002FD000
002FD000
002FD000
002FD000
002FD000
ENDCHAR
STARTCHAR Upsilon
ENCODING 933
SWIDTH 600 0
DWIDTH 17 0
BBX 16 18 0 0
BITMAP
7FC001FF
2FE002FE
1FF003FC
0BF407F8
07F80FF0
03FD1FE0
01FE2FC0
00FF7F80
007FFF00
003FFE00
001FFD00
000FF800
000BF400
000BF400
000BF400
000BF400
000BF400
000BF400
ENDCHAR
STARTCHAR Phi
ENCODING 934
SWIDTH 600 0
DWIDTH 17 0
BBX 17 18 0 0
BITMAP
0007F00000
0007F00000
001BF90000
02FFFFE000
0FFFFFF800
2FFBFBFE00
7FC7F0FF00
7F47F0BF40
BF07F07F40
BF07F07F40
7F47F0BF40
3FC7F1FF00
2FFBFBFD00
0FFFFFF800
02FFFFE000
001BF90000
0007F00000
0007F00000
ENDCHAR
STARTCHAR Chi
ENCODING 935
SWIDTH 600 0
DWIDTH 17 0
BBX 16 18 0 0
BITMAP
3FE002FE
1FF403FC
0BF80BF8
07FD0FF0
02FE2FD0
00FF7FC0
007FFF40
003FFE00
001FFD00
002FFD00
007FFF00
00BFBF40
01FE7FC0
03FD2FE0
07F81FF4
0FF40BF8
2FE003FD
7FD002FF
ENDCHAR
STARTCHAR Psi
ENCODING 936
SWIDTH 600 0
DWIDTH 17 0
BBX 17 18 0 0
BITMAP
7F47F0BF40
7F47F0BF40
7F47F0BF40
7F47F0BF40
7F47F0BF40
7F47F0BF40
7F47F0BF00
7F87F0FF00
3FE7F6FE00
1FFFFFFD00
07FFFFF400
00AFFE4000
0007F00000
0007F00000
0007F00000
0007F00000
0007F00000
0007F00000
ENDCHAR
STARTCHAR uni03A9
ENCODING 937
SWIDTH 600 0
DWIDTH 17 0
BBX 15 18 1 0
BITMAP
006FE400
03FFFE00
0FFFFF80
2FF47FE0
7FD01FF0
BF800FF4
BF400BF8
FF400BF8
FF400BF8
BF400BF8
BF400BF4
7F800BF0
3FC00FE0
1FD01FD0
0BE03F40
FFF47FFC
FFF47FFC
FFF47FFC
ENDCHAR
STARTCHAR Iotadieresis
ENCODING 938
SWIDTH 600 0
DWIDTH 17 0
BBX 13 24 2 0
BITMAP
0B80B800
2FD1FD00
2FD1FD00
0B80B800
00000000
00000000
FFFFFF80
FFFFFF80
FFFFFF80
00BF4000
00BF4000
00BF4000
00BF4000
00BF4000
00BF4000
00BF4000
00BF4000
00BF4000
00BF4000
00BF4000
00BF4000
FFFFFF80
FFFFFF80
FFFFFF80
ENDCHAR
STARTCHAR Upsilondieresis
ENCODING 939
SWIDTH 600 0
DWIDTH 17 0
BBX 16 24 0 0
BITMAP
00B80B80
02FD1FD0
02FD1FD0
00B80B80
00000000
00000000
7FC001FF
2FE002FE
1FF003FC
0BF407F8
07F80FF0
03FD1FE0
01FE2FC0
00FF7F80
007FFF00
003FFE00
001FFD00
000FF800
000BF400
000BF400
000BF400
000BF400
000BF400
000BF400
ENDCHAR
STARTCHAR alphatonos
ENCODING 940
SWIDTH 600 0
DWIDTH 17 0
BBX 16 23 1 0
BITMAP
0001E900
0002FD00
0002FC00
0003F800
0003F400
0003F400
0007F000
0006E000
00000000
01BE4BF4
0BFFDBF4
1FFFFFF0
3FE1FFE0
7FC07FE0
BF803FD0
BF402FD0
BF403FC0
BF803FC0
BF807F80
7FD1FFC0
2FFFFFFC
0FFF9FFD
02FE06FD
ENDCHAR
STARTCHAR epsilontonos
ENCODING 941
SWIDTH 600 0
DWIDTH 17 0
BBX 13 23 2 0
BITMAP
0007A400
0007F800
000BF400
000BF000
000FE000
000FD000
000FC000
000B8000
00000000
02BFE800
1FFFFF80
7FFFFF40
7FD01B00
7F900000
1FFFD000
07FFD000
7FFFD000
BF800000
FF000000
FF901B40
BFFFFF80
2FFFFF80
06BFE900
ENDCHAR
STARTCHAR etatonos
ENCODING 942
SWIDTH 600 0
DWIDTH 17 0
BBX 13 29 2 -6
BITMAP
000BA400
000BF400
000FF000
000FE000
000FD000
001FC000
001F8000
001B4000
00000000
FE0BF800
FE3FFE00
FFFFFF40
FFE0BF80
FFC03F80
FF403FC0
FF403FC0
FF403FC0
FF403FC0
FF403FC0
FF403FC0
FF403FC0
FF403FC0
FF403FC0
00003FC0
00007FC0
00007FC0
00007FC0
00007FC0
00007FC0
ENDCHAR
STARTCHAR iotatonos
ENCODING 943
SWIDTH 600 0
DWIDTH 17 0
BBX 14 23 1 0
BITMAP
000A9000
000FF000
000FE000
001FD000
001FC000
001F8000
002F4000
001B4000
00000000
7FFFC000
7FFFC000
7FFF8000
007F8000
007F8000
007F8000
007F8000
007F8000
007F8000
003F8000
003FD040
002FFFE0
000FFFF0
0002FF90
ENDCHAR
STARTCHAR upsilondieresistonos
ENCODING 944
SWIDTH 600 0
DWIDTH 17 0
BBX 14 23 1 0
BITMAP
00079000
0007D000
000BC000
0B8B9F40
1FCF6F80
0B8F1F40
000A0000
00000000
00000000
7F8016C0
3FC02FD0
3FC02FE0
3FC01FE0
3FC01FF0
3FC01FF0
3FC00FF0
3FC00FF0
3FC01FF0
3FC02FE0
2FE07FD0
1FFFFF80
07FFFE00
00AFE400
ENDCHAR
STARTCHAR alpha
ENCODING 945
SWIDTH 600 0
DWIDTH 17 0
BBX 16 14 1 0
BITMAP
01BE4BF4
0BFFDBF4
1FFFFFF0
3FE1FFE0
7FC07FE0
BF803FD0
BF402FD0
BF403FC0
BF803FC0
BF807F80
7FD1FFC0
2FFFFFFC
0FFF9FFD
02FE06FD
ENDCHAR
STARTCHAR beta
ENCODING 946
SWIDTH 600 0
DWIDTH 17 0
BBX 14 26 2 -6
BITMAP
01BF9000
0FFFF800
2FFFFE00
7FD2FF00
BF40FF00
FF00FF00
FF00FE00
FF07FD00
FF1FF400
FF1FFD00
FF0FFF40
FF007FC0
FF002FD0
FF001FE0
FF001FE0
FF402FD0
FFD0BFC0
FFFFFF80
FFBFFE00
FF1BE400
FF000000
FF000000
FF000000
FF000000
FF000000
FF000000
ENDCHAR
STARTCHAR gamma
ENCODING 947
SWIDTH 600 0
DWIDTH 17 0
BBX 15 21 1 -6
BITMAP
5A0007F8
FF800BF4
7FC00BF4
3FE00FF0
1FF00FE0
0FF41FD0
07F82FC0
03FC3F80
02FD7F40
01FEBE00
00FFFD00
00BFF800
007FF400
003FE000
003FC000
002FC000
002FC000
002FD000
002FD000
002FD000
003FD000
ENDCHAR
STARTCHAR delta
ENCODING 948
SWIDTH 600 0
DWIDTH 17 0
BBX 15 20 1 0
BITMAP
01BFE900
07FFFFE0
0FFFFFD0
0FF01AC0
0FF40000
0BFD0000
02FF8000
00BFF400
01BFFE00
07FFFF80
1FF47FE0
3FC01FF0
7F800FF4
7F400BF4
7F400BF4
7F800FF0
3FE46FE0
1FFFFFC0
07FFFF40
006FE400
ENDCHAR
STARTCHAR epsilon
ENCODING 949
SWIDTH 600 0
DWIDTH 17 0
BBX 13 14 2 0
BITMAP
02BFE800
1FFFFF80
7FFFFF40
7FD01B00
7F900000
1FFFD000
07FFD000
7FFFD000
BF800000
FF000000
FF901B40
BFFFFF80
2FFFFF80
06BFE900
ENDCHAR
STARTCHAR zeta
ENCODING 950
SWIDTH 600 0
DWIDTH 17 0
BBX 13 26 2 -6
BITMAP
2FFFFF80
2FFFFF80
2FFFFF80
0402FF40
000BF800
007FD000
01FF4000
07FD0000
0FF40000
2FE00000
3FD00000
7FC00000
BF800000
BF800000
BF800000
7FD00000
3FF90000
1FFFE400
07FFFF00
00AFFF80
0001BFC0
00002FC0
00002F80
00007F40
0000BF00
00001A00
ENDCHAR
STARTCHAR eta
ENCODING 951
SWIDTH 600 0
DWIDTH 17 0
BBX 13 20 2 -6
BITMAP
FE0BF800
FE3FFE00
FFFFFF40
FFE0BF80
FFC03F80
FF403FC0
FF403FC0
FF403FC0
FF403FC0
FF403FC0
FF403FC0
FF403FC0
FF403FC0
FF403FC0
00003FC0
00007FC0
00007FC0
00007FC0
00007FC0
00007FC0
ENDCHAR
STARTCHAR theta
ENCODING 952
SWIDTH 600 0
DWIDTH 17 0
BBX 15 20 1 0
BITMAP
006FE400
02FFFD00
0BFFFF40
1FF47FC0
2FD01FD0
3FC00FE0
3F800FF0
7F800BF0
7FFFFFF4
7FFFFFF4
7FFFFFF4
7F800BF4
7F800FF0
3F800FF0
3FC01FE0
2FD02FD0
0FF47FC0
0BFFFF40
02FFFD00
006FE400
ENDCHAR
STARTCHAR iota
ENCODING 953
SWIDTH 600 0
DWIDTH 17 0
BBX 14 14 1 0
BITMAP
7FFFC000
7FFFC000
7FFF8000
007F8000
007F8000
007F8000
007F8000
007F8000
007F8000
003F8000
003FD040
002FFFE0
000FFFF0
0002FF90
ENDCHAR
STARTCHAR kappa
ENCODING 954
SWIDTH 600 0
DWIDTH 17 0
BBX 14 15 2 -1
BITMAP
FF400680
BF407FC0
BF41FFC0
BF47FE40
BF5FF400
BFBFC000
BFFFC000
BFFFE000
BFEFF400
BFC7FC00
BF82FE00
BF41FF40
BF40BFD0
BF402FF0
00000500
ENDCHAR
STARTCHAR lambda
ENCODING 955
SWIDTH 600 0
DWIDTH 17 0
BBX 15 21 1 -1
BITMAP
6FE40000
7FFE0000
3FFF8000
107FC000
001FE000
000FF000
001FF400
002FF800
003FFC00
00BFFD00
00FFFE00
01FDFF00
02FCBF40
07F87F80
0BF43FC0
0FF02FE0
2FE01FF0
3FD00FF4
7FC00BF8
BF8007FC
05000000
ENDCHAR
STARTCHAR uni03BC
ENCODING 956
SWIDTH 600 0
DWIDTH 17 0
BBX 16 20 1 -6
BITMAP
7FC01FE0
7FC01FE0
7FC01FE0
7FC01FE0
7FC01FE0
7FC01FD0
7FC01FD0
7FC01FD0
7FC02FD0
7FC03FD0
7FE0BFE0
7FFFFFF8
7FFFDBFC
7FAE42FD
7F800000
7F800000
7F800000
7F800000
7FC00000
7FC00000
ENDCHAR
STARTCHAR nu
ENCODING 957
SWIDTH 600 0
DWIDTH 17 0
BBX 15 15 1 0
BITMAP
5A0007F8
FF800BF4
7FC00BF0
3FE00FF0
1FF00FE0
0FF41FD0
07F82FC0
03FC3F80
02FD7F40
01FEBE00
00FFFD00
00BFFC00
007FF400
003FF000
003FD000
ENDCHAR
STARTCHAR xi
ENCODING 958
SWIDTH 600 0
DWIDTH 17 0
BBX 14 26 1 -6
BITMAP
7FFFFFE0
7FFFFFE0
7FFFFFE0
12FE4000
03FC0000
07F80000
07FC0000
02FE4000
00BFFF40
007FFF40
02FFFF40
0BFD0000
0FF40000
2FE00000
2FE00000
2FF00000
1FFE4000
0BFFFA00
02FFFFD0
006BFFE0
00006FF0
00000BF0
00000BE0
00001FD0
00002FC0
00000680
ENDCHAR
STARTCHAR omicron
ENCODING 959
SWIDTH 600 0
DWIDTH 17 0
BBX 15 14 1 0
BITMAP
006FE400
07FFFE00
0FFFFF80
2FE47FD0
3FC01FF0
7F800FF4
BF800FF4
BF800FF4
7F800FF4
3FC01FF0
2FE47FE0
0FFFFF80
07FFFE00
006FE400
ENDCHAR
STARTCHAR pi
ENCODING 960
SWIDTH 600 0
DWIDTH 17 0
BBX 17 15 0 -1
BITMAP
BFFFFFFF80
BFFFFFFF80
BFFFFFFF80
03FC0BF400
03FC0BF000
03F80BF000
03F80BF000
03F80BF000
03F80FF000
07F80BF000
07F80BF400
07F80BFF00
0BF803FF40
0BF801BF40
0010000000
ENDCHAR
STARTCHAR rho
ENCODING 961
SWIDTH 600 0
DWIDTH 17 0
BBX 14 20 2 -6
BITMAP
01BFA000
0BFFFD00
1FFFFF40
3FD1BFC0
7F407FD0
BF003FD0
FF002FD0
FF002FD0
FF003FD0
FF007FC0
FF91FF80
FFFFFF00
FFFFFD00
FF2FE000
FF000000
FF000000
FF000000
FF000000
FF000000
FF000000
ENDCHAR
STARTCHAR uni03C2
ENCODING 962
SWIDTH 600 0
DWIDTH 17 0
BBX 13 20 2 -6
BITMAP
006FF900
06FFFF80
1FFFFF40
3FF41A00
7FC00000
BF800000
FF400000
FF400000
BF800000
BFD00000
3FF90000
1FFFE400
07FFFE00
006FFF40
0001FF80
00003F80
00003F40
0000BF00
0000FE00
00001D00
ENDCHAR
STARTCHAR sigma
ENCODING 963
SWIDTH 600 0
DWIDTH 17 0
BBX 15 14 1 0
BITMAP
00AFFFFC
07FFFFFC
1FFFFEBC
3FE0BE00
7FC03F80
BF802FC0
BF802FD0
BF802FD0
BF802FD0
7FC03FC0
3FE0BF80
1FFFFF40
07FFFD00
00BFA000
ENDCHAR
STARTCHAR tau
ENCODING 964
SWIDTH 600 0
DWIDTH 17 0
BBX 15 14 1 0
BITMAP
BFFFFFF4
BFFFFFF4
BFFFFFF4
002FD000
002FD000
002FD000
002FD000
002FD000
002FD000
002FD000
002FE040
001FFFC0
000BFFC0
0002FF80
ENDCHAR
STARTCHAR upsilon
ENCODING 965
SWIDTH 600 0
DWIDTH 17 0
BBX 14 14 1 0
BITMAP
7F8016C0
3FC02FD0
3FC02FE0
3FC01FE0
3FC01FF0
3FC01FF0
3FC00FF0
3FC00FF0
3FC01FF0
3FC02FE0
2FE07FD0
1FFFFF80
07FFFE00
00AFE400
ENDCHAR
STARTCHAR phi
ENCODING 966
SWIDTH 600 0
DWIDTH 17 0
BBX 16 24 0 -6
BITMAP
0007F000
0007F000
0007F000
0007F000
006FFE40
03FFFFE0
0FFFFFF8
2FE7F6FD
3F87F0FE
3F47F0BF
7F47F0BF
7F47F0BF
3F47F0BF
3F87F0FE
2FE7F6FD
0FFFFFF8
03FFFFE0
006FFE40
0007F000
0007F000
0007F000
0007F000
0007F000
0007F000
ENDCHAR
STARTCHAR chi
ENCODING 967
SWIDTH 600 0
DWIDTH 17 0
BBX 15 22 1 -7
BITMAP
1B800FF4
BFC01FE0
3FE03FD0
1FF47F80
0BF8BF40
07FDFF00
02FFFD00
00FFFC00
00BFF400
003FF000
002FE000
003FF400
00BFFC00
00FFFD00
02FEFF00
03FCBF80
0BF87FD0
0FF02FE0
2FE01FF4
3FD00BFC
BF8007E4
05000100
ENDCHAR
STARTCHAR psi
ENCODING 968
SWIDTH 600 0
DWIDTH 17 0
BBX 17 24 0 -6
BITMAP
0007F00000
0007F00000
0007F00000
0007F00000
7F47F06D00
7F47F1FE00
7F87F0FF00
7F87F0FF00
3F87F0BF00
3F87F0BF40
3F87F0BF40
3F87F0BF40
3F87F0BF00
3F87F0FF00
2FD7F6FE00
1FFFFFFC00
07FFFFF400
01BFFF8000
0007F00000
0007F00000
0007F00000
0007F00000
0007F00000
0007F00000
ENDCHAR
STARTCHAR omega
ENCODING 969
SWIDTH 600 0
DWIDTH 17 0
BBX 16 14 0 0
BITMAP
06400064
0FF407FC
1FF003FD
2FD001FE
3FC150FF
7F87F0FF
7F47F0FF
7F43E0BF
7F43E0FF
3F83E0FF
3FCBF5FE
1FFFFFFD
0BFF7FF8
02F91FD0
ENDCHAR
STARTCHAR iotadieresis
ENCODING 970
SWIDTH 600 0
DWIDTH 17 0
BBX 14 21 1 0
BITMAP
0B807D00
1FE0FF00
2FF1FF00
1FE0FF00
0B807D00
00000000
00000000
7FFFC000
7FFFC000
7FFF8000
007F8000
007F8000
007F8000
007F8000
007F8000
007F8000
003F8000
003FD040
002FFFE0
000FFFF0
0002FF90
ENDCHAR
STARTCHAR upsilondieresis
ENCODING 971
SWIDTH 600 0
DWIDTH 17 0
BBX 14 21 1 0
BITMAP
07D02E00
0FF0BF40
0FF4FF80
0FF0BF40
07D02E00
00000000
00000000
7F8016C0
3FC02FD0
3FC02FE0
3FC01FE0
3FC01FF0
3FC01FF0
3FC00FF0
3FC00FF0
3FC01FF0
3FC02FE0
2FE07FD0
1FFFFF80
07FFFE00
00AFE400
ENDCHAR
STARTCHAR omicrontonos
ENCODING 972
SWIDTH 600 0
DWIDTH 17 0
BBX 15 23 1 0
BITMAP
0007A400
0007F800
0007F400
000BF000
000BE000
000FD000
000FC000
000A8000
00000000
006FE400
07FFFE00
0FFFFF80
2FE47FD0
3FC01FF0
7F800FF4
BF800FF4
BF800FF4
7F800FF4
3FC01FF0
2FE47FE0
0FFFFF80
07FFFE00
006FE400
ENDCHAR
STARTCHAR upsilontonos
ENCODING 973
SWIDTH 600 0
DWIDTH 17 0
BBX 14 23 1 0
BITMAP
0007A400
000BF400
000BF000
000BE000
000FD000
000FD000
001FC000
001B8000
00000000
7F8016C0
3FC02FD0
3FC02FE0
3FC01FE0
3FC01FF0
3FC01FF0
3FC00FF0
3FC00FF0
3FC01FF0
3FC02FE0
2FE07FD0
1FFFFF80
07FFFE00
00AFE400
ENDCHAR
STARTCHAR omegatonos
ENCODING 974
SWIDTH 600 0
DWIDTH 17 0
BBX 16 23 0 0
BITMAP
0001E900
0001FE00
0001FD00
0002FC00
0002F800
0003F400
0003F000
0002A000
00000000
06400064
0FF407FC
1FF003FD
2FD001FE
3FC150FF
7F87F0FF
7F47F0FF
7F43E0BF
7F43E0FF
3F83E0FF
3FCBF5FE
1FFFFFFD
0BFF7FF8
02F91FD0
ENDCHAR
STARTCHAR uni03D0
ENCODING 976
SWIDTH 600 0
DWIDTH 17 0
BBX 14 20 2 0
BITMAP
01BF9000
0FFFF800
3FFFFE00
7FD2FF00
BF40FF00
FF00FF00
FF00FF00
FF02FD00
FF6FF400
FFFFF900
FFFFFF40
FF907FC0
FF002FD0
FF001FE0
FF001FE0
BF802FD0
7FD0BFC0
2FFFFF80
0BFFFE00
01AFE400
ENDCHAR
STARTCHAR uni03D1
ENCODING 977
SWIDTH 600 0
DWIDTH 17 0
BBX 15 20 1 0
BITMAP
01BF9000
0BFFFD00
1FFFFF40
3FD0BF80
7F802FD0
7F401FE0
7F800FF0
3FE00BF0
1FFFFFF4
07FFFFF4
00BFFFF4
00000BF4
3FC00BF0
2FC00FF0
2FD00FE0
2FD01FD0
1FF47FC0
0FFFFF40
07FFFE00
00AFE400
ENDCHAR
STARTCHAR uni03D5
ENCODING 981
SWIDTH 600 0
DWIDTH 17 0
BBX 16 24 0 -6
BITMAP
0007F000
0007F000
0007F000
0007F000
006FFE40
03FFFFE0
0FFFFFF8
2FE7F6FD
3F87F0FE
3F47F0BF
7F47F0BF
7F47F0BF
3F47F0BF
3F87F0FE
2FE7F6FD
0FFFFFF8
03FFFFE0
006FFE40
0007F000
0007F000
0007F000
0007F000
0007F000
0007F000
ENDCHAR
STARTCHAR uni03D7
ENCODING 983
SWIDTH 600 0
DWIDTH 17 0
BBX 15 19 2 -5
BITMAP
FF400680
BF407FC0
BF41FFC0
BF47FE40
BF5FF400
BFBFC000
BFFFC000
BFFFE000
BFEFF400
BFC7FC00
BF82FE00
BF40FF80
BF407FD0
BF402FF4
00002FF0
00007FD0
0001FF80
0003FF00
000AFD00
ENDCHAR
STARTCHAR uni03D9
ENCODING 985
SWIDTH 600 0
DWIDTH 17 0
BBX 15 20 1 -6
BITMAP
006FE400
07FFFE00
0FFFFF80
2FE07FE0
7FC01FF0
7F800FF4
BF800BF4
BF800BF4
BF800FF4
7FC01FF0
3FE07FE0
1FFFFFC0
07FFFF00
00BFF800
002FD000
002FD000
002FE000
002FE000
002FE000
002FE000
ENDCHAR
STARTCHAR uni03DB
ENCODING 987
SWIDTH 600 0
DWIDTH 17 0
BBX 13 20 2 -6
BITMAP
006FFFC0
07FFFFC0
1FFFFFC0
3FF40000
7FC00000
BF800000
FF400000
FF400000
BF800000
BFD00000
3FF90000
1FFFE400
07FFFE00
006FFF40
0001FF80
00003F80
00003F40
00007F00
0000FE00
00001D00
ENDCHAR
STARTCHAR uni03DD
ENCODING 989
SWIDTH 600 0
DWIDTH 17 0
BBX 12 20 3 -6
BITMAP
BFFFFE
BFFFFE
BFFFFE
BF0000
BF0000
BF0000
BF0000
BFAAA8
BFFFFC
BFFFFC
BFAAA8
BF4000
BF4000
BF4000
BF4000
BF4000
BF4000
BF4000
BF4000
BF4000
ENDCHAR
STARTCHAR uni03E1
ENCODING 993
SWIDTH 600 0
DWIDTH 17 0
BBX 15 25 1 -5
BITMAP
00900000
02F80000
07FE0000
07FF8000
00FFE000
003FF400
000FFC00
0007FE00
001BFF00
01FFFF80
2FFFFFC0
BFFE7FD0
7FE02FE0
2E001FF0
0401BFF0
001FFFF4
02FFFFF4
03FFEBF4
01FE0BF4
00E00BF4
00000BF4
00000BF4
00000BF4
00000FF0
00000560
ENDCHAR
STARTCHAR uni0400
ENCODING 1024
SWIDTH 600 0
DWIDTH 17 0
BBX 13 25 2 0
BITMAP
00600000
01F80000
02FF4000
00BFD000
001FD000
00028000
00000000
7FFFFF80
7FFFFF80
7FFFFF80
7F800000
7F800000
7F800000
7F800000
7FFFFD00
7FFFFD00
7FFFFD00
7F800000
7F800000
7F800000
7F800000
7F800000
7FFFFFC0
7FFFFFC0
7FFFFFC0
ENDCHAR
STARTCHAR uni0401
ENCODING 1025
SWIDTH 600 0
DWIDTH 17 0
BBX 13 24 2 0
BITMAP
07D07D00
0FF0BF00
0FF0BF00
07D07D00
00000000
00000000
7FFFFF80
7FFFFF80
7FFFFF80
7F800000
7F800000
7F800000
7F800000
7FFFFD00
7FFFFD00
7FFFFD00
7F800000
7F800000
7F800000
7F800000
7F800000
7FFFFFC0
7FFFFFC0
7FFFFFC0
ENDCHAR
STARTCHAR uni0402
ENCODING 1026
SWIDTH 600 0
DWIDTH 17 0
BBX 16 18 0 0
BITMAP
7FFFFFC0
7FFFFFC0
7FFFFFC0
00BF8000
00BF8000
00BF8000
00BF8000
00BFFF90
00BFFFF4
00BFFFFD
00BF82FE
00BF80FF
00BF80FF
00BF80FF
00BF81FE
00BF8BFD
00BF8FFC
00BF9FE0
ENDCHAR
STARTCHAR uni0403
ENCODING 1027
SWIDTH 600 0
DWIDTH 17 0
BBX 12 25 3 0
BITMAP
000600
002F80
00BFD0
02FF40
03F800
009000
000000
FFFFFF
FFFFFF
FFFFFF
FF4000
FF4000
FF4000
FF4000
FF4000
FF4000
FF4000
FF4000
FF4000
FF4000
FF4000
FF4000
FF4000
FF4000
FF4000
ENDCHAR
STARTCHAR uni0404
ENCODING 1028
SWIDTH 600 0
DWIDTH 17 0
BBX 15 18 1 0
BITMAP
001BFE40
00BFFFE0
07FFFFF4
0FFD06D0
1FE00040
3FD00000
3FC00000
7FFFFC00
7FFFFC00
7FFFFC00
7F800000
7FC00000
3FD00000
2FE00040
0FF906E0
07FFFFF8
01FFFFE0
001BFE40
ENDCHAR
STARTCHAR uni0405
ENCODING 1029
SWIDTH 600 0
DWIDTH 17 0
BBX 15 18 1 0
BITMAP
006FF900
02FFFF90
0FFFFFD0
2FE41B80
2FD00100
3FE00000
2FF90000
1FFFE000
07FFFE00
01BFFFD0
000BFFF0
00007FF4
00000FF4
09000FF4
1F901FF0
7FFFFFD0
1FFFFF40
01BFE400
ENDCHAR
STARTCHAR uni0406
ENCODING 1030
SWIDTH 600 0
DWIDTH 17 0
BBX 13 18 2 0
BITMAP
FFFFFF80
FFFFFF80
FFFFFF80
00BF4000
00BF4000
00BF4000
00BF4000
00BF4000
00BF4000
00BF4000
00BF4000
00BF4000
00BF4000
00BF4000
00BF4000
FFFFFF80
FFFFFF80
FFFFFF80
ENDCHAR
STARTCHAR uni0407
ENCODING 1031
SWIDTH 600 0
DWIDTH 17 0
BBX 13 24 2 0
BITMAP
0B80B800
2FD1FD00
2FD1FD00
0B80B800
00000000
00000000
FFFFFF80
FFFFFF80
FFFFFF80
00BF4000
00BF4000
00BF4000
00BF4000
00BF4000
00BF4000
00BF4000
00BF4000
00BF4000
00BF4000
00BF4000
00BF4000
FFFFFF80
FFFFFF80
FFFFFF80
ENDCHAR
STARTCHAR uni0408
ENCODING 1032
SWIDTH 600 0
DWIDTH 17 0
BBX 13 18 2 0
BITMAP
2FFFFF40
2FFFFF40
2FFFFF40
0000BF40
0000BF40
0000BF40
0000BF40
0000BF40
0000BF40
0000BF40
0000BF40
0000BF40
0000BF40
1800FF40
7E42FF00
FFFFFD00
7FFFF400
06FE8000
ENDCHAR
STARTCHAR uni0409
ENCODING 1033
SWIDTH 600 0
DWIDTH 17 0
BBX 18 18 -1 0
BITMAP
01FFFE0000
01FFFE0000
01FFFE0000
01F8BE0000
02F8BE0000
02F8BE0000
02F8BE0000
02F8BFF800
03F4BFFF00
03F4BFFF80
03F4BE2FC0
03F4BE0FD0
07F0BE0FD0
07F0BE1FD0
0BE0BE2FC0
3FD0BFFF80
3FC0BFFE00
7E40BFE400
ENDCHAR
STARTCHAR uni040A
ENCODING 1034
SWIDTH 600 0
DWIDTH 17 0
BBX 16 18 1 0
BITMAP
FD0FE000
FD0FE000
FD0FE000
FD0FE000
FD0FE000
FD0FE000
FD0FE000
FFFFFF80
FFFFFFF0
FFFFFFF8
FFFFE2FC
FD0FE1FD
FD0FE1FD
FD0FE1FD
FD0FE2FC
FD0FFFF8
FD0FFFE0
FD0FFE80
ENDCHAR
STARTCHAR uni040B
ENCODING 1035
SWIDTH 600 0
DWIDTH 17 0
BBX 16 18 0 0
BITMAP
7FFFFFC0
7FFFFFC0
7FFFFFC0
00BF8000
00BF8000
00BF8000
00BF8000
00BFFF90
00BFFFF8
00BFFFFD
00BF82FE
00BF81FF
00BF80FF
00BF80FF
00BF80FF
00BF80FF
00BF80FF
00BF80FF
ENDCHAR
STARTCHAR uni040C
ENCODING 1036
SWIDTH 600 0
DWIDTH 17 0
BBX 15 25 2 0
BITMAP
00009000
0002F400
000FFC00
007FE400
007F4000
00180000
00000000
FF000BF0
FF003FE0
FF00BFE0
FF01FE00
FF02FC00
FF03F400
FF0BF000
FF0FE000
FFFFD000
FFFFD000
FFFFE000
FF0FF400
FF07FC00
FF02FE00
FF00FF40
FF007FC0
FF002FE0
FF000FF4
ENDCHAR
STARTCHAR uni040D
ENCODING 1037
SWIDTH 600 0
DWIDTH 17 0
BBX 14 25 1 0
BITMAP
00240000
00BD0000
01FF8000
007FE000
000BE000
00018000
00000000
7F801FF0
7F803FF0
7F807FF0
7F80FFF0
7F81FFF0
7F82FBF0
7F87FBF0
7F4BE7F0
7F4FDBF0
7F6FCBF0
7F7F4BF0
7FBF0BF0
7FBE0BF0
7FFC0BF0
7FF80BF0
7FF40BF0
7FE00BF0
7FD00BF0
ENDCHAR
STARTCHAR uni040E
ENCODING 1038
SWIDTH 600 0
DWIDTH 17 0
BBX 15 24 1 0
BITMAP
07F43F80
03F87F40
02FFFE00
006FE400
00000000
00000000
FF4003FC
BF8007F8
7FC00BF4
2FD00FF0
1FF02FD0
0BF43FC0
07F87F80
02FCBF40
01FDFE00
00FFFD00
007FFC00
003FF800
001FF000
001FE000
003FD000
0BFF8000
0FFE0000
0FE40000
ENDCHAR
STARTCHAR uni040F
ENCODING 1039
SWIDTH 600 0
DWIDTH 17 0
BBX 14 24 1 -6
BITMAP
7FC00FF0
7FC00FF0
7FC00FF0
7FC00FF0
7FC00FF0
7FC00FF0
7FC00FF0
7FC00FF0
7FC00FF0
7FC00FF0
7FC00FF0
7FC00FF0
7FC00FF0
7FC00FF0
7FC00FF0
7FFFFFF0
7FFFFFF0
7FFFFFF0
001FD000
001FD000
001FD000
001FD000
001FD000
001FC000
ENDCHAR
STARTCHAR uni0410
ENCODING 1040
SWIDTH 600 0
DWIDTH 17 0
BBX 17 18 0 0
BITMAP
001FFC0000
002FFD0000
003FFE0000
007FBF0000
007F7F4000
00BE3F8000
00FD3FC000
01FD2FD000
02FC1FE000
03F80FF000
07F80FF400
0BFFFFF400
0FFFFFF800
1FFFFFFC00
2FD002FD00
3FC001FE00
7FC001FF00
BF8000FF40
ENDCHAR
STARTCHAR uni0411
ENCODING 1041
SWIDTH 600 0
DWIDTH 17 0
BBX 14 18 2 0
BITMAP
FFFFFF80
FFFFFF80
FFFFFF80
FF400000
FF400000
FF400000
FF400000
FFFFE400
FFFFFF40
FFFFFFC0
FF407FD0
FF401FE0
FF401FE0
FF402FE0
FF407FD0
FFFFFF80
FFFFFE00
FFFFE400
ENDCHAR
STARTCHAR uni0412
ENCODING 1042
SWIDTH 600 0
DWIDTH 17 0
BBX 14 18 2 0
BITMAP
FFFFA400
FFFFFE00
FFFFFF40
FF41BF80
FF407FC0
FF407F80
FF41FF40
FFFFFD00
FFFFF800
FFFFFF40
FF407FD0
FF401FE0
FF401FE0
FF402FE0
FF407FD0
FFFFFFC0
FFFFFE00
FFFFE400
ENDCHAR
STARTCHAR uni0413
ENCODING 1043
SWIDTH 600 0
DWIDTH 17 0
BBX 12 18 3 0
BITMAP
FFFFFF
FFFFFF
FFFFFF
FF4000
FF4000
FF4000
FF4000
FF4000
FF4000
FF4000
FF4000
FF4000
FF4000
FF4000
FF4000
FF4000
FF4000
FF4000
ENDCHAR
STARTCHAR uni0414
ENCODING 1044
SWIDTH 600 0
DWIDTH 17 0
BBX 17 24 0 -6
BITMAP
007FFFF400
00BFFFF400
00BFFFF400
00FE0FF400
00FE0FF400
01FD0FF400
01FD0FF400
02FC0FF400
02FC0FF400
03F80FF400
03F80FF400
07F40FF400
0BF40FF400
0FF00FF400
1FD00FF400
BFFFFFFF40
BFFFFFFF40
BFFFFFFF40
BF4000BF40
BF4000BF40
BF4000BF40
7F4000BF40
7F4000BF40
7F4000BF00
ENDCHAR
STARTCHAR uni0415
ENCODING 1045
SWIDTH 600 0
DWIDTH 17 0
BBX 13 18 2 0
BITMAP
7FFFFF80
7FFFFF80
7FFFFF80
7F800000
7F800000
7F800000
7F800000
7FFFFD00
7FFFFD00
7FFFFD00
7F800000
7F800000
7F800000
7F800000
7F800000
7FFFFFC0
7FFFFFC0
7FFFFFC0
ENDCHAR
STARTCHAR uni0416
ENCODING 1046
SWIDTH 600 0
DWIDTH 17 0
BBX 17 18 0 0
BITMAP
B907F01F80
BF47F07F40
7F87F0FF40
0FC7F1F800
0BD7F1F400
07D7F2F400
07E7F3F000
03F7F7F000
03FFFFE000
03FFFFE000
07FFFFF000
0BE7F2F400
0FD7F1F800
1FC7F1FC00
2F87F0FE00
3F87F0BF00
7F47F07F40
BF07F03F80
ENDCHAR
STARTCHAR uni0417
ENCODING 1047
SWIDTH 600 0
DWIDTH 17 0
BBX 15 18 1 0
BITMAP
01BFE400
1FFFFF40
2FFFFFC0
0B907FE0
01001FE0
00001FE0
00007FD0
007FFF40
007FFE40
007FFFD0
00002FF0
00000BF4
00000BF8
08000BF4
2F906FF0
7FFFFFE0
2FFFFF80
01BFE800
ENDCHAR
STARTCHAR uni0418
ENCODING 1048
SWIDTH 600 0
DWIDTH 17 0
BBX 14 18 1 0
BITMAP
7F801FF0
7F803FF0
7F807FF0
7F80FFF0
7F81FFF0
7F82FBF0
7F87FBF0
7F4BE7F0
7F4FDBF0
7F6FCBF0
7F7F4BF0
7FBF0BF0
7FBE0BF0
7FFC0BF0
7FF80BF0
7FF40BF0
7FE00BF0
7FD00BF0
ENDCHAR
STARTCHAR uni0419
ENCODING 1049
SWIDTH 600 0
DWIDTH 17 0
BBX 14 24 1 0
BITMAP
07F03F40
07F8BF00
02FFFE00
006FE400
00000000
00000000
7F801FF0
7F803FF0
7F807FF0
7F80FFF0
7F81FFF0
7F82FBF0
7F87FBF0
7F4BE7F0
7F4FDBF0
7F6FCBF0
7F7F4BF0
7FBF0BF0
7FBE0BF0
7FFC0BF0
7FF80BF0
7FF40BF0
7FE00BF0
7FD00BF0
ENDCHAR
STARTCHAR uni041A
ENCODING 1050
SWIDTH 600 0
DWIDTH 17 0
BBX 15 18 2 0
BITMAP
FF000BF0
FF003FE0
FF00BFE0
FF01FE00
FF02FC00
FF03F400
FF0BF000
FF0FE000
FFFFD000
FFFFD000
FFFFE000
FF0FF400
FF07FC00
FF02FE00
FF00FF40
FF007FC0
FF002FE0
FF000FF4
ENDCHAR
STARTCHAR uni041B
ENCODING 1051
SWIDTH 600 0
DWIDTH 17 0
BBX 15 18 0 0
BITMAP
002FFFFC
003FFFFC
003FFFFC
007F43FC
007F43FC
00BF03FC
00BF03FC
00FE03FC
01FE03FC
01FD03FC
02FD03FC
02FC03FC
03F803FC
07F403FC
0BF003FC
BFE003FC
BFC003FC
FE4003FC
ENDCHAR
STARTCHAR uni041C
ENCODING 1052
SWIDTH 600 0
DWIDTH 17 0
BBX 15 18 1 0
BITMAP
7FC01FF4
7FD02FF4
7FE03FF4
7FF03FF4
7FF47FF4
7EF4BBF4
7EB8F7F4
7E7DF7F4
7F7EF3F4
7F3FE7F4
7F2FD7F4
7F1FC7F4
7F0F87F4
7F0107F4
7F0007F4
7F0007F4
7F0007F4
7F0007F4
ENDCHAR
STARTCHAR uni041D
ENCODING 1053
SWIDTH 600 0
DWIDTH 17 0
BBX 14 18 1 0
BITMAP
7FC00FF0
7FC00FF0
7FC00FF0
7FC00FF0
7FC00FF0
7FC00FF0
7FC00FF0
7FFFFFF0
7FFFFFF0
7FFFFFF0
7FC00FF0
7FC00FF0
7FC00FF0
7FC00FF0
7FC00FF0
7FC00FF0
7FC00FF0
7FC00FF0
ENDCHAR
STARTCHAR uni041E
ENCODING 1054
SWIDTH 600 0
DWIDTH 17 0
BBX 15 18 1 0
BITMAP
006FE400
07FFFE00
0FFFFF80
2FF47FE0
3FD01FF0
BF800FF4
BF400BF8
FF400BF8
FF400BF8
FF400BF8
FF400BF8
BF800BF4
7F800FF4
3FD01FF0
2FF47FD0
0FFFFF80
03FFFE00
006FE400
ENDCHAR
STARTCHAR uni041F
ENCODING 1055
SWIDTH 600 0
DWIDTH 17 0
BBX 14 18 1 0
BITMAP
7FFFFFF0
7FFFFFF0
7FFFFFF0
7FC00FF0
7FC00FF0
7FC00FF0
7FC00FF0
7FC00FF0
7FC00FF0
7FC00FF0
7FC00FF0
7FC00FF0
7FC00FF0
7FC00FF0
7FC00FF0
7FC00FF0
7FC00FF0
7FC00FF0
ENDCHAR
STARTCHAR uni0420
ENCODING 1056
SWIDTH 600 0
DWIDTH 17 0
BBX 14 18 2 0
BITMAP
FFFFE400
FFFFFE00
FFFFFF80
FF40BFD0
FF402FE0
FF401FE0
FF401FE0
FF402FD0
FF40BFC0
FFFFFF80
FFFFFE00
FFFFA400
FF400000
FF400000
FF400000
FF400000
FF400000
FF400000
ENDCHAR
STARTCHAR uni0421
ENCODING 1057
SWIDTH 600 0
DWIDTH 17 0
BBX 15 18 1 0
BITMAP
001AFE40
00BFFFE4
03FFFFF4
0BFD06D0
1FF40000
3FD00000
3FC00000
7FC00000
7F800000
7F800000
7FC00000
7FC00000
3FD00000
2FF40040
0FFD06E0
07FFFFF8
00BFFFE0
001BFE40
ENDCHAR
STARTCHAR uni0422
ENCODING 1058
SWIDTH 600 0
DWIDTH 17 0
BBX 15 18 1 0
BITMAP
FFFFFFFC
FFFFFFFC
FFFFFFFC
002FD000
002FD000
002FD000
002FD000
002FD000
002FD000
002FD000
002FD000
002FD000
002FD000
002FD000
002FD000
002FD000
002FD000
002FD000
ENDCHAR
STARTCHAR uni0423
ENCODING 1059
SWIDTH 600 0
DWIDTH 17 0
BBX 15 18 1 0
BITMAP
FF4003FC
BF8007F8
7FC00BF4
2FD00FF0
1FF02FD0
0BF43FC0
07F87F80
02FCBF40
01FDFE00
00FFFD00
007FFC00
003FF800
001FF000
001FE000
003FD000
0BFF8000
0FFE0000
0FE40000
ENDCHAR
STARTCHAR uni0424
ENCODING 1060
SWIDTH 600 0
DWIDTH 17 0
BBX 17 18 0 0
BITMAP
0007F00000
0007F00000
00AFFE4000
07FFFFF400
1FFFFFFD00
3FD7F6FE00
7F87F0BF00
7F47F07F40
BF07F07F40
7F47F07F40
7F87F0BF00
3FE7F6FE00
1FFFFFFD00
07FFFFF400
00AFFE4000
0007F00000
0007F00000
0007F00000
ENDCHAR
STARTCHAR uni0425
ENCODING 1061
SWIDTH 600 0
DWIDTH 17 0
BBX 16 18 0 0
BITMAP
3FE002FE
1FF403FC
0BF80BF8
07FD0FF0
02FE2FD0
00FF7FC0
007FFF40
003FFE00
001FFD00
002FFD00
007FFF00
00BFBF40
01FE7FC0
03FD2FE0
07F81FF4
0FF40BF8
2FE003FD
7FD002FF
ENDCHAR
STARTCHAR uni0426
ENCODING 1062
SWIDTH 600 0
DWIDTH 17 0
BBX 16 24 1 -6
BITMAP
7FC01FF0
7FC01FF0
7FC01FF0
7FC01FF0
7FC01FF0
7FC01FF0
7FC01FF0
7FC01FF0
7FC01FF0
7FC01FF0
7FC01FF0
7FC01FF0
7FC01FF0
7FC01FF0
7FC01FF0
7FFFFFFF
7FFFFFFF
7FFFFFFF
000000BF
000000BF
000000BE
000000BE
000000BE
000000BE
ENDCHAR
STARTCHAR uni0427
ENCODING 1063
SWIDTH 600 0
DWIDTH 17 0
BBX 14 18 1 0
BITMAP
BF400FF0
BF400FF0
BF400FF0
BF400FF0
BF400FF0
BF400FF0
BF800FF0
7FE00FF0
2FFFFFF0
0BFFFFF0
01BFFFF0
00000FF0
00000FF0
00000FF0
00000FF0
00000FF0
00000FF0
00000FF0
ENDCHAR
STARTCHAR uni0428
ENCODING 1064
SWIDTH 600 0
DWIDTH 17 0
BBX 15 18 1 0
BITMAP
FE1FC2FC
FE1FC2FC
FE1FC2FC
FE1FC2FC
FE1FC2FC
FE1FC2FC
FE1FC2FC
FE1FC2FC
FE1FC2FC
FE1FC2FC
FE1FC2FC
FE1FC2FC
FE1FC2FC
FE1FC2FC
FE1FC2FC
FFFFFFFC
FFFFFFFC
FFFFFFFC
ENDCHAR
STARTCHAR uni0429
ENCODING 1065
SWIDTH 600 0
DWIDTH 17 0
BBX 17 24 0 -6
BITMAP
7F4BE1FD00
7F4BE1FD00
7F4BE1FD00
7F4BE1FD00
7F4BE1FD00
7F4BE1FD00
7F4BE1FD00
7F4BE1FD00
7F4BE1FD00
7F4BE1FD00
7F4BE1FD00
7F4BE1FD00
7F4BE1FD00
7F4BE1FD00
7F4BE1FD00
7FFFFFFFC0
7FFFFFFFC0
7FFFFFFFC0
0000002FC0
0000002FC0
0000002F80
0000002F80
0000002F80
0000002F80
ENDCHAR
STARTCHAR uni042A
ENCODING 1066
SWIDTH 600 0
DWIDTH 17 0
BBX 16 18 0 0
BITMAP
7FFF8000
7FFF8000
7FFF8000
007F8000
007F8000
007F8000
007F8000
007FFE40
007FFFF4
007FFFFC
007F86FE
007F80FF
007F80FF
007F80FE
007F86FE
007FFFFC
007FFFF4
007FFE80
ENDCHAR
STARTCHAR uni042B
ENCODING 1067
SWIDTH 600 0
DWIDTH 17 0
BBX 15 18 1 0
BITMAP
FE0002FC
FE0002FC
FE0002FC
FE0002FC
FE0002FC
FE0002FC
FE0002FC
FFF902FC
FFFF42FC
FFFFC2FC
FE2FD2FC
FE0FE2FC
FE0BE2FC
FE0FE2FC
FE2FD2FC
FFFFC2FC
FFFF42FC
FFF802FC
ENDCHAR
STARTCHAR uni042C
ENCODING 1068
SWIDTH 600 0
DWIDTH 17 0
BBX 14 18 2 0
BITMAP
FF400000
FF400000
FF400000
FF400000
FF400000
FF400000
FF400000
FFFFE400
FFFFFF00
FFFFFFC0
FF407FD0
FF402FE0
FF401FE0
FF402FE0
FF407FD0
FFFFFF80
FFFFFE00
FFFFE400
ENDCHAR
STARTCHAR uni042D
ENCODING 1069
SWIDTH 600 0
DWIDTH 17 0
BBX 15 18 1 0
BITMAP
06FF9000
6FFFF800
7FFFFF00
2E41FF80
04003FD0
00001FE0
00000FF0
01FFFFF0
01FFFFF4
01FFFFF4
00000FF0
00001FF0
00001FE0
14003FD0
3E41FFC0
BFFFFF00
7FFFF800
06FF9000
ENDCHAR
STARTCHAR uni042E
ENCODING 1070
SWIDTH 600 0
DWIDTH 17 0
BBX 16 18 1 0
BITMAP
FE01BE40
FE07FFD0
FE0FFFF0
FE1FC7F4
FE2F83F8
FE3F83FC
FE3F42FC
FFFF42FD
FFFF42FD
FFFF42FD
FE3F42FD
FE3F42FC
FE2F83FC
FE2F83F8
FE1FC7F4
FE0BFFF0
FE07FFD0
FE01BE40
ENDCHAR
STARTCHAR uni042F
ENCODING 1071
SWIDTH 600 0
DWIDTH 17 0
BBX 15 18 0 0
BITMAP
006FFFFC
02FFFFFC
0BFFFFFC
1FF407FC
2FE007FC
2FD007FC
2FD007FC
2FE007FC
1FF807FC
0BFFFFFC
02FFFFFC
00BFFFFC
00FF47FC
02FE07FC
07FC07FC
1FF407FC
2FE007FC
BFC007FC
ENDCHAR
STARTCHAR uni0430
ENCODING 1072
SWIDTH 600 0
DWIDTH 17 0
BBX 14 14 1 0
BITMAP
01AFE800
1FFFFF40
1FFFFFC0
0B907FE0
00001FE0
005AFFF0
06FFFFF0
1FFFFFF0
3FE50FF0
7F800FF0
7FD07FF0
3FFFFFF0
1FFFEBF0
06FE07F0
ENDCHAR
STARTCHAR uni0431
ENCODING 1073
SWIDTH 600 0
DWIDTH 17 0
BBX 14 20 1 0
BITMAP
000016C0
001BFFD0
00BFFFE0
03FFFF80
0BFE5000
1FE00000
2FD00000
3FCBF900
3FFFFF40
7FFFFFD0
7FE47FE0
7F801FF0
7F800FF0
3F800FF0
3F800FF0
2FD01FE0
1FF47FD0
0BFFFF80
02FFFE00
006FE400
ENDCHAR
STARTCHAR uni0432
ENCODING 1074
SWIDTH 600 0
DWIDTH 17 0
BBX 14 14 2 0
BITMAP
BFFFE400
BFFFFF00
BFFFFF80
BF407F80
BF407F80
BFFFFE00
BFFFF900
BFFFFF40
BF407FC0
BF402FD0
BF407FD0
BFFFFFC0
BFFFFF40
BFFFE400
ENDCHAR
STARTCHAR uni0433
ENCODING 1075
SWIDTH 600 0
DWIDTH 17 0
BBX 12 14 3 0
BITMAP
BFFFFE
BFFFFE
BFFFFE
BF4000
BF4000
BF4000
BF4000
BF4000
BF4000
BF4000
BF4000
BF4000
BF4000
BF4000
ENDCHAR
STARTCHAR uni0434
ENCODING 1076
SWIDTH 600 0
DWIDTH 17 0
BBX 17 20 0 -6
BITMAP
01FFFFF000
02FFFFF000
02FFFFF000
02FC0FF000
03F80FF000
03F80FF000
03F80FF000
07F40FF000
07F40FF000
0BF00FF000
1FE00FF000
BFFFFFFF40
BFFFFFFF40
BFFFFFFF40
7F4000BF40
7F4000BF40
7F4000BF00
7F4000BF00
7F4000BF00
3F4000BF00
ENDCHAR
STARTCHAR uni0435
ENCODING 1077
SWIDTH 600 0
DWIDTH 17 0
BBX 15 14 1 0
BITMAP
006FE800
02FFFF40
0BFFFFD0
2FE41FE0
3FC00BF0
7FFFFFF4
7FFFFFF4
7FFFFFF4
7FC00000
3FD00000
2FF80680
0BFFFFD0
02FFFFD0
006FF900
ENDCHAR
STARTCHAR uni0436
ENCODING 1078
SWIDTH 600 0
DWIDTH 17 0
BBX 17 14 0 0
BITMAP
B907F02F40
BF47F0BF40
7FC7F1FF00
0BD7F2F800
07E7F3F000
03FFFFE000
03FFFFE000
07FFFFF000
0BE7F2F800
0FD7F1FC00
2FC7F0FD00
3F87F0BE00
7F47F07F00
BF07F07F80
ENDCHAR
STARTCHAR uni0437
ENCODING 1079
SWIDTH 600 0
DWIDTH 17 0
BBX 14 14 1 0
BITMAP
06BFE900
2FFFFF80
3FFFFFD0
1E402FE0
00002FD0
00BFFF80
00BFFE00
00BFFFD0
00001FF0
00000FF0
2E406FF0
7FFFFFE0
6FFFFF80
06BFE800
ENDCHAR
STARTCHAR uni0438
ENCODING 1080
SWIDTH 600 0
DWIDTH 17 0
BBX 13 14 2 0
BITMAP
FF007F80
FF00FF80
FF02FF80
FF03FF80
FF0BFF80
FF1FBF80
FF3F7F80
FE7E3F80
FEFD3F80
FFF87F80
FFF07F80
FFD07F80
FF807F80
FF007F80
ENDCHAR
STARTCHAR uni0439
ENCODING 1081
SWIDTH 600 0
DWIDTH 17 0
BBX 13 20 2 0
BITMAP
0FD0BE00
0BE0FD00
03FFF800
00BFE000
00000000
00000000
FF007F80
FF00FF80
FF02FF80
FF03FF80
FF0BFF80
FF1FBF80
FF3F7F80
FE7E3F80
FEFD3F80
FFF87F80
FFF07F80
FFD07F80
FF807F80
FF007F80
ENDCHAR
STARTCHAR uni043A
ENCODING 1082
SWIDTH 600 0
DWIDTH 17 0
BBX 14 14 2 0
BITMAP
FF401BD0
FF407FD0
FF40FFC0
FF41FD00
FF43F800
FF47F000
FFFFE000
FFFFE000
FFFFF400
FF47FC00
FF42FE00
FF40FF40
FF407FD0
FF402FF0
ENDCHAR
STARTCHAR uni043B
ENCODING 1083
SWIDTH 600 0
DWIDTH 17 0
BBX 15 14 0 0
BITMAP
00BFFFF8
00FFFFF8
00FFFFF8
00FD07F8
01FD07F8
01FD07F8
01FC07F8
02FC07F8
02F807F8
03F807F8
07F407F8
3FF007F8
7FD007F8
7E4007F8
ENDCHAR
STARTCHAR uni043C
ENCODING 1084
SWIDTH 600 0
DWIDTH 17 0
BBX 15 14 1 0
BITMAP
FFC00FF8
FFD01FF8
FFE02FF8
FFF03FF8
FFF47FF8
FEF8BEF8
FDFCFAF8
FDBEF6F8
FE7FF2F8
FE3FE3F8
FE2FD3F8
FE1FC3F8
FE0A83F8
FE0003F8
ENDCHAR
STARTCHAR uni043D
ENCODING 1085
SWIDTH 600 0
DWIDTH 17 0
BBX 13 14 2 0
BITMAP
FF007F80
FF007F80
FF007F80
FF007F80
FF007F80
FF007F80
FFFFFF80
FFFFFF80
FFFFFF80
FF007F80
FF007F80
FF007F80
FF007F80
FF007F80
ENDCHAR
STARTCHAR uni043E
ENCODING 1086
SWIDTH 600 0
DWIDTH 17 0
BBX 15 14 1 0
BITMAP
006FE400
07FFFE00
1FFFFFC0
2FE07FE0
7FC01FF0
BF800FF4
BF800BF4
BF800BF4
BF800FF4
7FC01FF0
2FE07FE0
1FFFFFC0
07FFFE00
006FE400
ENDCHAR
STARTCHAR uni043F
ENCODING 1087
SWIDTH 600 0
DWIDTH 17 0
BBX 13 14 2 0
BITMAP
FFFFFF80
FFFFFF80
FFFFFF80
FF007F80
FF007F80
FF007F80
FF007F80
FF007F80
FF007F80
FF007F80
FF007F80
FF007F80
FF007F80
FF007F80
ENDCHAR
STARTCHAR uni0440
ENCODING 1088
SWIDTH 600 0
DWIDTH 17 0
BBX 14 20 2 -6
BITMAP
FD1BE400
FEBFFE00
FFFFFF40
FFD1BFC0
FF407FD0
FF003FD0
FF002FD0
FF002FD0
FF003FD0
FF407FC0
FFD1FF80
FFFFFF00
FFFFFD00
FF2FE000
FF000000
FF000000
FF000000
FF000000
FF000000
FF000000
ENDCHAR
STARTCHAR uni0441
ENCODING 1089
SWIDTH 600 0
DWIDTH 17 0
BBX 13 14 2 0
BITMAP
006FF900
07FFFF80
1FFFFF40
3FE41A00
BFC00000
FF400000
FF000000
FF000000
FF400000
BF800000
7FE41B40
2FFFFFC0
07FFFF80
006FE900
ENDCHAR
STARTCHAR uni0442
ENCODING 1090
SWIDTH 600 0
DWIDTH 17 0
BBX 15 14 1 0
BITMAP
BFFFFFF4
BFFFFFF4
BFFFFFF4
002FD000
002FD000
002FD000
002FD000
002FD000
002FD000
002FD000
002FD000
002FD000
002FD000
002FD000
ENDCHAR
STARTCHAR uni0443
ENCODING 1091
SWIDTH 600 0
DWIDTH 17 0
BBX 15 20 1 -6
BITMAP
FF0003F8
7F8007F4
3FC00BF0
2FD00FE0
0FE01FD0
0BF02FC0
07F43F80
02F87F00
01FCBE00
00FDFD00
007FFC00
003FF800
002FF400
001FF000
001FE000
003FC000
00BF8000
2FFF0000
2FFD0000
3FE00000
ENDCHAR
STARTCHAR uni0444
ENCODING 1092
SWIDTH 600 0
DWIDTH 17 0
BBX 17 26 0 -6
BITMAP
0007F00000
0007F00000
0007F00000
0007F00000
0007F00000
0007F00000
02FBFBE000
0BFFFFFC00
1FFFFFFD00
3FC7F5FE00
3F47F0BF00
7F47F07F00
7F47F07F40
7F47F07F00
7F47F0BF00
7F47F0BF00
3FC7F1FE00
2FFFFFFD00
0FFFFFF800
02FFFFE000
0007F00000
0007F00000
0007F00000
0007F00000
0007F00000
0007F00000
ENDCHAR
STARTCHAR uni0445
ENCODING 1093
SWIDTH 600 0
DWIDTH 17 0
BBX 15 14 1 0
BITMAP
7FC00FF0
2FE02FE0
0FF47FC0
07FCBF40
02FEFE00
00FFFC00
007FF400
00BFF000
01FFF800
03FEFE00
0BF4FF40
1FE07FC0
3FD02FE0
BF800FF4
ENDCHAR
STARTCHAR uni0446
ENCODING 1094
SWIDTH 600 0
DWIDTH 17 0
BBX 15 20 2 -6
BITMAP
FF00FF40
FF00FF40
FF00FF40
FF00FF40
FF00FF40
FF00FF40
FF00FF40
FF00FF40
FF00FF40
FF00FF40
FF00FF40
FFFFFFF4
FFFFFFF4
FFFFFFF4
00000BF4
00000BF4
00000BF4
00000BF0
00000BF0
00000BF0
ENDCHAR
STARTCHAR uni0447
ENCODING 1095
SWIDTH 600 0
DWIDTH 17 0
BBX 14 14 1 0
BITMAP
7FC02FE0
7FC02FE0
7FC02FE0
7FC02FE0
3FC02FE0
3FE02FE0
2FFFFFE0
0BFFFFE0
01BFFFE0
00002FE0
00002FE0
00002FE0
00002FE0
00002FE0
ENDCHAR
STARTCHAR uni0448
ENCODING 1096
SWIDTH 600 0
DWIDTH 17 0
BBX 15 14 1 0
BITMAP
FE1FC3F8
FE1FC3F8
FE1FC3F8
FE1FC3F8
FE1FC3F8
FE1FC3F8
FE1FC3F8
FE1FC3F8
FE1FC3F8
FE1FC3F8
FE1FC3F8
FFFFFFF8
FFFFFFF8
FFFFFFF8
ENDCHAR
STARTCHAR uni0449
ENCODING 1097
SWIDTH 600 0
DWIDTH 17 0
BBX 16 20 1 -6
BITMAP
FE1F87F4
FE1F87F4
FE1F87F4
FE1F87F4
FE1F87F4
FE1F87F4
FE1F87F4
FE1F87F4
FE1F87F4
FE1F87F4
FE1F87F4
FFFFFFFF
FFFFFFFF
FFFFFFFF
000000BF
000000BF
000000BF
000000BE
000000BE
000000BE
ENDCHAR
STARTCHAR uni044A
ENCODING 1098
SWIDTH 600 0
DWIDTH 17 0
BBX 15 14 1 0
BITMAP
FFFE0000
FFFE0000
FFFE0000
01FE0000
01FE0000
01FFFE40
01FFFFE0
01FFFFF4
01FE0BF8
01FE07F8
01FE0BF8
01FFFFF4
01FFFFE0
01FFFE40
ENDCHAR
STARTCHAR uni044B
ENCODING 1099
SWIDTH 600 0
DWIDTH 17 0
BBX 15 14 1 0
BITMAP
FE0003F8
FE0003F8
FE0003F8
FE0003F8
FE0003F8
FFF903F8
FFFF83F8
FFFFD3F8
FE1FE3F8
FE0BE3F8
FE1FE3F8
FFFFD3F8
FFFF83F8
FFF903F8
ENDCHAR
STARTCHAR uni044C
ENCODING 1100
SWIDTH 600 0
DWIDTH 17 0
BBX 14 14 2 0
BITMAP
BF400000
BF400000
BF400000
BF400000
BF400000
BFFFE800
BFFFFF40
BFFFFFC0
BF407FD0
BF401FD0
BF407FD0
BFFFFFC0
BFFFFF40
BFFFE800
ENDCHAR
STARTCHAR uni044D
ENCODING 1101
SWIDTH 600 0
DWIDTH 17 0
BBX 14 14 1 0
BITMAP
06FF9000
3FFFFD00
2FFFFF40
0941BFC0
00001FD0
00BFFFE0
00BFFFF0
00BFFFF0
00001FE0
00002FD0
1901BFC0
3FFFFF40
7FFFFD00
06FF9000
ENDCHAR
STARTCHAR uni044E
ENCODING 1102
SWIDTH 600 0
DWIDTH 17 0
BBX 16 14 1 0
BITMAP
FE00BE40
FE03FFE0
FE0BFFF4
FE0FC7F8
FE1F83FC
FE2F42FC
FFFF42FD
FFFF42FD
FFFF42FC
FE2F83FC
FE1FC7F8
FE0FFFF4
FE07FFE0
FE01BE40
ENDCHAR
STARTCHAR uni044F
ENCODING 1103
SWIDTH 600 0
DWIDTH 17 0
BBX 14 14 1 0
BITMAP
01BFFFE0
0FFFFFE0
2FFFFFE0
3FD01FE0
3FC01FE0
3FE01FE0
1FFFFFE0
0BFFFFE0
02FFFFE0
03FD1FE0
0BF81FE0
1FF01FE0
3FD01FE0
BFC01FE0
ENDCHAR
STARTCHAR uni0450
ENCODING 1104
SWIDTH 600 0
DWIDTH 17 0
BBX 15 23 1 0
BITMAP
00200000
00BC0000
02FE0000
01FF8000
007FD000
000BD000
00024000
00000000
00000000
006FE800
02FFFF40
0BFFFFD0
2FE41FE0
3FC00BF0
7FFFFFF4
7FFFFFF4
7FFFFFF4
7FC00000
3FD00000
2FF80680
0BFFFFD0
02FFFFD0
006FF900
ENDCHAR
STARTCHAR uni0451
ENCODING 1105
SWIDTH 600 0
DWIDTH 17 0
BBX 15 21 1 0
BITMAP
02E01F40
07F87FC0
0BFC7FC0
07F87FC0
02E01F40
00000000
00000000
006FE800
02FFFF40
0BFFFFD0
2FE41FE0
3FC00BF0
7FFFFFF4
7FFFFFF4
7FFFFFF4
7FC00000
3FD00000
2FF80680
0BFFFFD0
02FFFFD0
006FF900
ENDCHAR
STARTCHAR uni0452
ENCODING 1106
SWIDTH 600 0
DWIDTH 17 0
BBX 16 26 0 -6
BITMAP
0FF00000
0FF00000
BFFFFD00
BFFFFD00
BFFFFD00
0FF00000
0FF00000
0FF1BE40
0FF7FFD0
0FFFFFF0
0FFD1FF8
0FF407FC
0FF003FC
0FF003FD
0FF003FD
0FF003FD
0FF003FD
0FF003FD
0FF003FD
0FF003FC
000007FC
00000BF8
00001FF4
0002FFE0
0003FFC0
0003F900
ENDCHAR
STARTCHAR uni0453
ENCODING 1107
SWIDTH 600 0
DWIDTH 17 0
BBX 12 23 3 0
BITMAP
000080
0002F0
000BFC
002FF4
007FD0
007F00
001800
000000
000000
BFFFFE
BFFFFE
BFFFFE
BF4000
BF4000
BF4000
BF4000
BF4000
BF4000
BF4000
BF4000
BF4000
BF4000
BF4000
ENDCHAR
STARTCHAR uni0454
ENCODING 1108
SWIDTH 600 0
DWIDTH 17 0
BBX 13 14 2 0
BITMAP
006FF900
07FFFF80
1FFFFF40
7FD01A00
BF400000
FFFFE000
FFFFE000
FFFFE000
FF000000
BF800000
7FE40740
2FFFFF80
0BFFFF80
00AFF900
ENDCHAR
STARTCHAR uni0455
ENCODING 1109
SWIDTH 600 0
DWIDTH 17 0
BBX 14 14 1 0
BITMAP
006FE900
07FFFF90
1FFFFFD0
2FE01B80
2FE00000
1FFF9000
0BFFFE40
01BFFFD0
0006BFF0
04001FF0
2F901FF0
7FFFFFE0
1FFFFF80
01BFE900
ENDCHAR
STARTCHAR uni0456
ENCODING 1110
SWIDTH 600 0
DWIDTH 17 0
BBX 11 21 2 0
BITMAP
000BD0
002FF0
003FF4
003FF4
001BD0
000000
000000
BFFFF0
BFFFF0
BFFFF0
001FF0
001FF0
001FF0
001FF0
001FF0
001FF0
001FF0
001FF0
001FF0
001FF0
001FF0
ENDCHAR
STARTCHAR uni0457
ENCODING 1111
SWIDTH 600 0
DWIDTH 17 0
BBX 13 21 2 0
BITMAP
02E02E40
07F87F80
0BF87FC0
07F87F80
02E02E40
00000000
00000000
BFFFF000
BFFFF000
BFFFF000
001FF000
001FF000
001FF000
001FF000
001FF000
001FF000
001FF000
001FF000
001FF000
001FF000
001FF000
ENDCHAR
STARTCHAR uni0458
ENCODING 1112
SWIDTH 600 0
DWIDTH 17 0
BBX 12 27 1 -6
BITMAP
0002F4
000BFC
000FFD
000FFD
0006F4
000000
000000
2FFFFC
2FFFFC
2FFFFC
0007FC
0007FC
0007FC
0007FC
0007FC
0007FC
0007FC
0007FC
0007FC
0007FC
0007FC
0007FC
0007F8
141FF4
3FFFF0
BFFFD0
6BF900
ENDCHAR
STARTCHAR uni0459
ENCODING 1113
SWIDTH 600 0
DWIDTH 17 0
BBX 17 14 -1 0
BITMAP
01FFFE0000
01FFFE0000
01FFFE0000
01F8BE0000
02F8BFE800
02F8BFFF00
02F4BFFF80
03F4BE2FC0
03F4BE1FC0
03F0BE1FC0
0BF0BE2FC0
3FE0BFFF80
3FC0BFFF00
7E40BFE800
ENDCHAR
STARTCHAR uni045A
ENCODING 1114
SWIDTH 600 0
DWIDTH 17 0
BBX 15 14 1 0
BITMAP
FE0FE000
FE0FE000
FE0FE000
FE0FE000
FE0FE000
FE5FFE80
FFFFFFF4
FFFFFFF8
FFFFE2FC
FE1FE1FC
FE0FE2FC
FE0FFFF8
FE0FFFF4
FE0FFF80
ENDCHAR
STARTCHAR uni045B
ENCODING 1115
SWIDTH 600 0
DWIDTH 17 0
BBX 15 20 0 0
BITMAP
0FF00000
0FF00000
BFFFFD00
BFFFFD00
BFFFFD00
0FF00000
0FF00000
0FF0BF80
0FF7FFF0
0FFFFFF8
0FFD0BFC
0FF403FC
0FF003FC
0FF003FC
0FF003FC
0FF003FC
0FF003FC
0FF003FC
0FF003FC
0FF003FC
ENDCHAR
STARTCHAR uni045C
ENCODING 1116
SWIDTH 600 0
DWIDTH 17 0
BBX 14 23 2 0
BITMAP
00006000
0001F800
0003FE00
000FF800
002FE000
002F8000
00090000
00000000
00000000
FF401BD0
FF407FD0
FF40FFC0
FF41FD00
FF43F800
FF47F000
FFFFE000
FFFFE000
FFFFF400
FF47FC00
FF42FE00
FF40FF40
FF407FD0
FF402FF0
ENDCHAR
STARTCHAR uni045D
ENCODING 1117
SWIDTH 600 0
DWIDTH 17 0
BBX 13 23 2 0
BITMAP
00900000
02F00000
0BFC0000
07FE0000
00BF8000
002F8000
000A0000
00000000
00000000
FF007F80
FF00FF80
FF02FF80
FF03FF80
FF0BFF80
FF1FBF80
FF3F7F80
FE7E3F80
FEFD3F80
FFF87F80
FFF07F80
FFD07F80
FF807F80
FF007F80
ENDCHAR
STARTCHAR uni045E
ENCODING 1118
SWIDTH 600 0
DWIDTH 17 0
BBX 15 26 1 -6
BITMAP
03F03F40
03F87F00
01FFFE00
006FE400
00000000
00000000
FF0003F8
7F8007F4
3FC00BF0
2FD00FE0
0FE01FD0
0BF02FC0
07F43F80
02F87F00
01FCBE00
00FDFD00
007FFC00
003FF800
002FF400
001FF000
001FE000
003FC000
00BF8000
2FFF0000
2FFD0000
3FE00000
ENDCHAR
STARTCHAR uni045F
ENCODING 1119
SWIDTH 600 0
DWIDTH 17 0
BBX 13 20 2 -6
BITMAP
FF407F80
FF407F80
FF407F80
FF407F80
FF407F80
FF407F80
FF407F80
FF407F80
FF407F80
FF407F80
FF407F80
FFFFFF80
FFFFFF80
FFFFFF80
00BFFF80
00BF4000
00BF4000
00BF4000
00BF4000
007F0000
ENDCHAR
STARTCHAR uni0462
ENCODING 1122
SWIDTH 600 0
DWIDTH 17 0
BBX 16 20 0 0
BITMAP
01FF0000
01FF0000
01FF0000
BFFFFFE0
BFFFFFE0
BFFFFFE0
01FF0000
01FF0000
01FF0000
01FFFE40
01FFFFF4
01FFFFFD
01FF06FE
01FF01FF
01FF00FF
01FF01FF
01FF07FE
01FFFFFC
01FFFFF4
01FFFE40
ENDCHAR
STARTCHAR uni0463
ENCODING 1123
SWIDTH 600 0
DWIDTH 17 0
BBX 15 16 1 0
BITMAP
01FE0000
01FE0000
FFFFFF00
FFFFFF00
FFFFFF00
01FE0000
01FE0000
01FFFA40
01FFFFE0
01FFFFF4
01FE0BF8
01FE07F8
01FE0BF8
01FFFFF4
01FFFFE0
01FFFE40
ENDCHAR
STARTCHAR uni0472
ENCODING 1138
SWIDTH 600 0
DWIDTH 17 0
BBX 15 18 1 0
BITMAP
006FE400
07FFFE00
0FFFFF80
2FE47FE0
7FC01FF0
BF800BF4
BF400BF8
FFFFFFF8
FFFFFFF8
FFFFFFF8
FF4007F8
BF400BF4
7F800FF4
3FC01FF0
2FF47FD0
0FFFFF80
03FFFE00
006FE400
ENDCHAR
STARTCHAR uni0473
ENCODING 1139
SWIDTH 600 0
DWIDTH 17 0
BBX 15 14 1 0
BITMAP
006FE400
07FFFE00
1FFFFFC0
2FD02FE0
7F800BF0
BFFFFFF4
BFFFFFF4
BFFFFFF4
BF400BF4
7F800FF0
2FE06FE0
1FFFFFC0
07FFFE00
006FE400
ENDCHAR
STARTCHAR uni0474
ENCODING 1140
SWIDTH 600 0
DWIDTH 17 0
BBX 18 18 0 0
BITMAP
BF80002FD0
7FC000FFC0
3FD002FFC0
2FD003F800
1FE007F400
0FF00BF000
0FF40FE000
0BF80FE000
07F81FD000
03FC2FC000
02FD3F8000
01FD3F8000
00FE7F4000
00BFBF0000
007FFE0000
003FFE0000
002FFD0000
001FFC0000
ENDCHAR
STARTCHAR uni0475
ENCODING 1141
SWIDTH 600 0
DWIDTH 17 0
BBX 16 14 1 0
BITMAP
BF4001FD
7F800BFC
3FC00FFC
2FD02FD0
1FE03F80
0FF03F40
0BF47F00
07F4BE00
03F8FE00
02FDFD00
01FEFC00
00FFF800
00BFF400
007FF000
ENDCHAR
STARTCHAR uni0490
ENCODING 1168
SWIDTH 600 0
DWIDTH 17 0
BBX 12 23 3 0
BITMAP
00007F
0000BF
0000BF
0000FF
0000FF
FFFFFF
FFFFFF
FFFFFF
FF4000
FF4000
FF4000
FF4000
FF4000
FF4000
FF4000
FF4000
FF4000
FF4000
FF4000
FF4000
FF4000
FF4000
FF4000
ENDCHAR
STARTCHAR uni0491
ENCODING 1169
SWIDTH 600 0
DWIDTH 17 0
BBX 12 19 3 0
BITMAP
0000BE
0000BE
0000FE
0000FE
0000FE
BFFFFE
BFFFFE
BFFFFE
BF4000
BF4000
BF4000
BF4000
BF4000
BF4000
BF4000
BF4000
BF4000
BF4000
BF4000
ENDCHAR
STARTCHAR uni0492
ENCODING 1170
SWIDTH 600 0
DWIDTH 17 0
BBX 14 18 1 0
BITMAP
07FFFFF0
07FFFFF0
07FFFFF0
07F80000
07F80000
07F80000
07F80000
7FFFF800
BFFFF800
BFFFF800
07F80000
07F80000
07F80000
07F80000
07F80000
07F80000
07F80000
07F80000
ENDCHAR
STARTCHAR uni0493
ENCODING 1171
SWIDTH 600 0
DWIDTH 17 0
BBX 14 14 1 0
BITMAP
07FFFFE0
07FFFFE0
07FFFFE0
07F80000
07F80000
07F80000
BFFFFC00
BFFFFC00
BFFFFC00
07F80000
07F80000
07F80000
07F80000
07F80000
ENDCHAR
STARTCHAR uni0496
ENCODING 1174
SWIDTH 600 0
DWIDTH 17 0
BBX 18 24 0 -6
BITMAP
B907F01F80
BF47F07F40
7F87F0FF40
0FC7F1F800
0BD7F1F400
07D7F2F400
07E7F3F000
03F7F7F000
03FFFFE000
03FFFFE000
07FFFFF000
0BE7F2F400
0FD7F1F800
1FC7F1FC00
2F87F0FD00
3F87F0BFD0
7F47F07FD0
BF07F03FC0
0000000FC0
0000000FC0
0000000FC0
0000000FC0
0000000FC0
0000000F80
ENDCHAR
STARTCHAR uni0497
ENCODING 1175
SWIDTH 600 0
DWIDTH 17 0
BBX 17 20 0 -6
BITMAP
B907F02F40
BF47F0BF40
7FC7F1FF00
0BD7F2F800
07E7F3F000
03FFFFE000
03FFFFE000
07FFFFF000
0BE7F2F400
0FD7F1F800
2FC7F0FD00
3F87F0BFC0
7F47F07FC0
BF07F07FC0
0000000FC0
0000000FC0
0000000FC0
0000000FC0
0000000F80
0000000F80
ENDCHAR
STARTCHAR uni0498
ENCODING 1176
SWIDTH 600 0
DWIDTH 17 0
BBX 15 24 1 -6
BITMAP
01BFE400
1FFFFF40
2FFFFFC0
0B907FE0
01001FE0
00001FE0
00007FD0
007FFF40
007FFE40
007FFFD0
00002FF0
00000BF4
00000BF8
08000BF4
2F906FF4
7FFFFFE0
2FFFFF80
02BFF900
001FD000
001FD000
001FD000
001FD000
001FD000
001FD000
ENDCHAR
STARTCHAR uni0499
ENCODING 1177
SWIDTH 600 0
DWIDTH 17 0
BBX 14 20 1 -6
BITMAP
06BFE900
2FFFFF80
3FFFFFD0
1E402FE0
00002FD0
00BFFF80
00BFFE00
00BFFFD0
00001FF0
00000FF0
2E406FF0
7FFFFFE0
6FFFFF80
06FFF900
003FC000
003FC000
003FC000
002FC000
002F8000
002F8000
ENDCHAR
STARTCHAR uni049A
ENCODING 1178
SWIDTH 600 0
DWIDTH 17 0
BBX 15 24 2 -6
BITMAP
FF000BF0
FF003FE0
FF00BFE0
FF01FE00
FF02FC00
FF03F400
FF0BF000
FF0FE000
FFFFD000
FFFFD000
FFFFE000
FF0FF400
FF07FC00
FF02FE00
FF00FF40
FF007FFC
FF002FFC
FF000FFC
000002FC
000002FC
000002F8
000002F8
000002F8
000002F8
ENDCHAR
STARTCHAR uni049B
ENCODING 1179
SWIDTH 600 0
DWIDTH 17 0
BBX 15 20 2 -6
BITMAP
FF401BD0
FF407FD0
FF40FFC0
FF41FD00
FF43F800
FF47F000
FFFFE000
FFFFE000
FFFFF400
FF47FC00
FF42FE00
FF40FFF8
FF407FF8
FF402FF8
000002F8
000002F8
000002F4
000002F4
000002F4
000002F4
ENDCHAR
STARTCHAR uni04A0
ENCODING 1184
SWIDTH 600 0
DWIDTH 17 0
BBX 17 18 0 0
BITMAP
7FFF802F40
7FFF80BF00
7FFF81FF00
003F82F800
003F83F000
003F87E000
003F8BD000
003F8FD000
003FFFC000
003FFFC000
003FFFD000
003F8FF000
003F87F400
003F83F800
003F82FD00
003F80FE00
003F80BF00
003F807F80
ENDCHAR
STARTCHAR uni04A1
ENCODING 1185
SWIDTH 600 0
DWIDTH 17 0
BBX 17 14 0 0
BITMAP
7FFF806E00
7FFF81FE00
7FFF83FD00
003F87F000
003F8BE000
003F8FD000
003FFFC000
003FFF8000
003FFFD000
003F8BF000
003F87F400
003F82FC00
003F80FE00
003F807F40
ENDCHAR
STARTCHAR uni04A2
ENCODING 1186
SWIDTH 600 0
DWIDTH 17 0
BBX 16 24 1 -6
BITMAP
7FC01FF0
7FC01FF0
7FC01FF0
7FC01FF0
7FC01FF0
7FC01FF0
7FC01FF0
7FFFFFF0
7FFFFFF0
7FFFFFF0
7FC01FF0
7FC01FF0
7FC01FF0
7FC01FF0
7FC01FF0
7FC01FFF
7FC01FFF
7FC01FFF
000000BF
000000BF
000000BE
000000BE
000000BE
000000BE
ENDCHAR
STARTCHAR uni04A3
ENCODING 1187
SWIDTH 600 0
DWIDTH 17 0
BBX 15 20 2 -6
BITMAP
FF00FF40
FF00FF40
FF00FF40
FF00FF40
FF00FF40
FF00FF40
FFFFFF40
FFFFFF40
FFFFFF40
FF00FF40
FF00FF40
FF00FFF4
FF00FFF4
FF00FFF4
00000BF4
00000BF4
00000BF4
00000BF0
00000BF0
00000BF0
ENDCHAR
STARTCHAR uni04AA
ENCODING 1194
SWIDTH 600 0
DWIDTH 17 0
BBX 15 24 1 -6
BITMAP
001AFE40
00BFFFE4
03FFFFF4
0BFD06D0
1FF40000
3FD00000
3FC00000
7FC00000
7F800000
7F800000
7FC00000
7FC00000
3FD00000
2FF40040
0FFD06E0
07FFFFF8
01FFFFF4
002FFE40
0003FC00
0003FC00
0003FC00
0003FC00
0003FC00
0003F800
ENDCHAR
STARTCHAR uni04AB
ENCODING 1195
SWIDTH 600 0
DWIDTH 17 0
BBX 13 20 2 -6
BITMAP
006FF900
07FFFF80
1FFFFF40
3FE41A00
BFC00000
FF400000
FF000000
FF000000
FF400000
BF800000
7FE41B40
2FFFFF80
0BFFFF80
01BFF900
001FE000
001FE000
001FD000
001FD000
001FD000
001FD000
ENDCHAR
STARTCHAR uni04AE
ENCODING 1198
SWIDTH 600 0
DWIDTH 17 0
BBX 16 18 0 0
BITMAP
7FC001FF
2FE002FE
1FF003FC
0BF407F8
07F80FF0
03FD1FE0
01FE2FC0
00FF7F80
007FFF00
003FFE00
001FFD00
000FF800
000BF400
000BF400
000BF400
000BF400
000BF400
000BF400
ENDCHAR
STARTCHAR uni04AF
ENCODING 1199
SWIDTH 600 0
DWIDTH 17 0
BBX 15 20 1 -6
BITMAP
FF4007F8
BF800BF4
7FC00FF0
2FD01FE0
1FE02FD0
0FF03FC0
0BF47F80
07F47F40
03F8BF00
02FCFD00
01FEFC00
00BFF800
007FF400
003FF000
002FE000
002FE000
002FE000
002FE000
002FE000
002FE000
ENDCHAR
STARTCHAR uni04B0
ENCODING 1200
SWIDTH 600 0
DWIDTH 17 0
BBX 16 18 0 0
BITMAP
7FC001FF
2FE002FE
1FF003FC
0BF407F4
03F80FF0
01FD1FD0
00FE2F80
007F7F40
002FFE00
0BFFFFF8
0BFFFFF8
0BFFFFF8
000BF400
000BF400
000BF400
000BF400
000BF400
000BF400
ENDCHAR
STARTCHAR uni04B1
ENCODING 1201
SWIDTH 600 0
DWIDTH 17 0
BBX 15 20 1 -6
BITMAP
FF4007F8
7F800BF4
3FC00FF0
2FD01FD0
1FE02FC0
0BF03F80
07F47F40
03F47E00
01F8BD00
00FCFC00
00BEF800
2FFFFFD0
2FFFFFD0
2FFFFFD0
002FE000
002FE000
002FE000
002FE000
002FE000
002FE000
ENDCHAR
STARTCHAR uni04B2
ENCODING 1202
SWIDTH 600 0
DWIDTH 17 0
BBX 17 24 0 -6
BITMAP
3FE002FE00
1FF403FC00
0BF80BF800
07FD0FF000
02FE2FD000
00FF7FC000
007FFF4000
003FFE0000
001FFD0000
002FFD0000
007FFE0000
00BFBF4000
01FE7FC000
03FD2FD000
07F81FF000
0FF40BFF80
2FE003FF80
7FD002FF80
0000002F80
0000002F80
0000002F80
0000002F80
0000002F40
0000002F40
ENDCHAR
STARTCHAR uni04B3
ENCODING 1203
SWIDTH 600 0
DWIDTH 17 0
BBX 15 20 1 -6
BITMAP
7FC00FF0
2FE02FE0
0FF47FC0
07FCBF40
02FEFE00
00FFFC00
007FF400
00BFF000
01FFF800
03FEFD00
0BF4FF00
1FE07FFC
3FD02FFC
BF800FFC
000002FC
000002FC
000002FC
000002FC
000002FC
000002F8
ENDCHAR
STARTCHAR uni04B6
ENCODING 1206
SWIDTH 600 0
DWIDTH 17 0
BBX 16 24 1 -6
BITMAP
BF401FE0
BF401FE0
BF401FE0
BF401FE0
BF401FE0
BF401FE0
BF801FE0
7FD01FE0
2FFFFFE0
0BFFFFE0
01BFFFE0
00001FE0
00001FE0
00001FE0
00001FE0
00001FFF
00001FFF
00001FFF
000000FF
000000FE
000000FE
000000FE
000000FE
000000FE
ENDCHAR
STARTCHAR uni04B7
ENCODING 1207
SWIDTH 600 0
DWIDTH 17 0
BBX 16 20 1 -6
BITMAP
7FC03FD0
7FC03FD0
7FC03FD0
7FC03FD0
3FC03FD0
3FE03FD0
2FFFFFD0
0BFFFFD0
01BFFFD0
00003FD0
00003FD0
00003FFD
00003FFD
00003FFD
000001FD
000001FD
000001FD
000001FD
000001FC
000001FC
ENDCHAR
STARTCHAR uni04BA
ENCODING 1210
SWIDTH 600 0
DWIDTH 17 0
BBX 15 18 1 0
BITMAP
7FC00000
7FC00000
7FC00000
7FC00000
7FC00000
7FC00000
7FC00000
7FFFF900
7FFFFF80
7FFFFFE0
7FC06FF0
7FC00BF4
7FC00BF4
7FC00BF8
7FC00BF8
7FC00BF8
7FC00BF8
7FC00BF8
ENDCHAR
STARTCHAR uni04BB
ENCODING 1211
SWIDTH 600 0
DWIDTH 17 0
BBX 13 20 2 0
BITMAP
FF000000
FF000000
FF000000
FF000000
FF000000
FF000000
FF0BF800
FF7FFF00
FFFFFF80
FFE0BFC0
FF803FC0
FF003FC0
FF003FC0
FF003FC0
FF003FC0
FF003FC0
FF003FC0
FF003FC0
FF003FC0
FF003FC0
ENDCHAR
STARTCHAR uni04C0
ENCODING 1216
SWIDTH 600 0
DWIDTH 17 0
BBX 13 18 2 0
BITMAP
FFFFFF80
FFFFFF80
FFFFFF80
00BF4000
00BF4000
00BF4000
00BF4000
00BF4000
00BF4000
00BF4000
00BF4000
00BF4000
00BF4000
00BF4000
00BF4000
FFFFFF80
FFFFFF80
FFFFFF80
ENDCHAR
STARTCHAR uni04C1
ENCODING 1217
SWIDTH 600 0
DWIDTH 17 0
BBX 17 24 0 0
BITMAP
02FC1FD000
01FD2FC000
00BFFF4000
001BF90000
0000000000
0000000000
B907F01F80
BF47F07F40
7F87F0FF40
0FC7F1F800
0BD7F1F400
07D7F2F400
07E7F3F000
03F7F7F000
03FFFFE000
03FFFFE000
07FFFFF000
0BE7F2F400
0FD7F1F800
1FC7F1FC00
2F87F0FE00
3F87F0BF00
7F47F07F40
BF07F03F80
ENDCHAR
STARTCHAR uni04C2
ENCODING 1218
SWIDTH 600 0
DWIDTH 17 0
BBX 17 20 0 0
BITMAP
01FC0FC000
00FD2FC000
00BFFF4000
001BF90000
0000000000
0000000000
B907F02F40
BF47F0BF40
7FC7F1FF00
0BD7F2F800
07E7F3F000
03FFFFE000
03FFFFE000
07FFFFF000
0BE7F2F800
0FD7F1FC00
2FC7F0FD00
3F87F0BE00
7F47F07F00
BF07F07F80
ENDCHAR
STARTCHAR uni04CF
ENCODING 1231
SWIDTH 600 0
DWIDTH 17 0
BBX 14 20 1 0
BITMAP
BFFFC000
BFFFC000
BFFFC000
007FC000
007FC000
007FC000
007FC000
007FC000
007FC000
007FC000
007FC000
007FC000
007FC000
007FC000
007FC000
003FC000
003FE040
001FFFE0
000BFFF0
0001BFA0
ENDCHAR
STARTCHAR uni04D0
ENCODING 1232
SWIDTH 600 0
DWIDTH 17 0
BBX 17 24 0 0
BITMAP
02FC1FD000
01FD2FC000
00BFFF4000
001BF90000
0000000000
0000000000
001FFC0000
002FFD0000
003FFE0000
007FBF0000
007F7F4000
00BE3F8000
00FD3FC000
01FD2FD000
02FC1FE000
03F80FF000
07F80FF400
0BFFFFF400
0FFFFFF800
1FFFFFFC00
2FD002FD00
3FC001FE00
7FC001FF00
BF8000FF40
ENDCHAR
STARTCHAR uni04D1
ENCODING 1233
SWIDTH 600 0
DWIDTH 17 0
BBX 14 20 1 0
BITMAP
02F42F80
02F83F40
00FFFF00
002FF800
00000000
00000000
01AFE800
1FFFFF40
1FFFFFC0
0B907FE0
00001FE0
005AFFF0
06FFFFF0
1FFFFFF0
3FE50FF0
7F800FF0
7FD07FF0
3FFFFFF0
1FFFEBF0
06FE07F0
ENDCHAR
STARTCHAR uni04D4
ENCODING 1236
SWIDTH 600 0
DWIDTH 17 0
BBX 17 18 0 0
BITMAP
000FFFFF40
001FFFFF40
003FFFFF40
007FBF4000
00BFBF4000
00FF7F4000
01FE7F4000
02FD7FFE00
03FC7FFE00
07F87FFE00
0BF87F4000
0FFFFF4000
1FFFFF4000
2FFFFF4000
3FD07F4000
7FC07FFF80
BF807FFF80
FF407FFF80
ENDCHAR
STARTCHAR uni04D5
ENCODING 1237
SWIDTH 600 0
DWIDTH 17 0
BBX 17 14 0 0
BITMAP
06F90BE400
3FFF7FFD00
2FFFFFFE00
090BF83F40
0007F02F40
006FFFFF80
0BFFFFFF80
2FFFFFFF80
7FD7F00000
7F43F40000
BF47FD1800
7FFFFFFD00
2FFE7FFF00
0BE41BF900
ENDCHAR
STARTCHAR uni04D6
ENCODING 1238
SWIDTH 600 0
DWIDTH 17 0
BBX 13 24 2 0
BITMAP
0FE0BF00
0BF4FE00
03FFFD00
00BFE000
00000000
00000000
7FFFFF80
7FFFFF80
7FFFFF80
7F800000
7F800000
7F800000
7F800000
7FFFFD00
7FFFFD00
7FFFFD00
7F800000
7F800000
7F800000
7F800000
7F800000
7FFFFFC0
7FFFFFC0
7FFFFFC0
ENDCHAR
STARTCHAR uni04D7
ENCODING 1239
SWIDTH 600 0
DWIDTH 17 0
BBX 15 20 1 0
BITMAP
03F42F80
02F87F40
01FFFE00
006FE400
00000000
00000000
006FE800
02FFFF40
0BFFFFD0
2FE41FE0
3FC00BF0
7FFFFFF4
7FFFFFF4
7FFFFFF4
7FC00000
3FD00000
2FF80680
0BFFFFD0
02FFFFD0
006FF900
ENDCHAR
STARTCHAR uni04D8
ENCODING 1240
SWIDTH 600 0
DWIDTH 17 0
BBX 15 18 1 0
BITMAP
00AFE400
07FFFE00
07FFFF80
02D07FD0
00001FF0
00000FF4
00000BF4
00000BF8
BFFFFFF8
BFFFFFF8
BFFFFFF8
7F800BF4
7F800BF4
3FC00FF0
1FE47FD0
0BFFFF80
02FFFE00
006FE400
ENDCHAR
STARTCHAR uni04D9
ENCODING 1241
SWIDTH 600 0
DWIDTH 17 0
BBX 15 14 1 0
BITMAP
01BFE400
1FFFFE00
0FFFFF80
0640BFD0
00001FF0
00000FF0
7FFFFFF4
7FFFFFF4
7FFFFFF0
7F400FE0
3FD06FD0
1FFFFF80
07FFFE00
00BFE400
ENDCHAR
STARTCHAR uni04E2
ENCODING 1250
SWIDTH 600 0
DWIDTH 17 0
BBX 14 23 1 0
BITMAP
02FFFE00
02FFFE00
02FFFE00
00000000
00000000
7F801FF0
7F803FF0
7F807FF0
7F80FFF0
7F81FFF0
7F82FBF0
7F87FBF0
7F4BE7F0
7F4FDBF0
7F6FCBF0
7F7F4BF0
7FBF0BF0
7FBE0BF0
7FFC0BF0
7FF80BF0
7FF40BF0
7FE00BF0
7FD00BF0
ENDCHAR
STARTCHAR uni04E3
ENCODING 1251
SWIDTH 600 0
DWIDTH 17 0
BBX 13 19 2 0
BITMAP
07FFFC00
07FFFC00
07FFFC00
00000000
00000000
FF007F80
FF00FF80
FF02FF80
FF03FF80
FF0BFF80
FF1FBF80
FF3F7F80
FE7E3F80
FEFD3F80
FFF87F80
FFF07F80
FFD07F80
FF807F80
FF007F80
ENDCHAR
STARTCHAR uni04E6
ENCODING 1254
SWIDTH 600 0
DWIDTH 17 0
BBX 15 24 1 0
BITMAP
02E02E00
0BF47F40
0BF47F40
02E02E00
00000000
00000000
006FE400
07FFFE00
0FFFFF80
2FF47FE0
3FD01FF0
BF800FF4
BF400BF8
FF400BF8
FF400BF8
FF400BF8
FF400BF8
BF800BF4
7F800FF4
3FD01FF0
2FF47FD0
0FFFFF80
03FFFE00
006FE400
ENDCHAR
STARTCHAR uni04E7
ENCODING 1255
SWIDTH 600 0
DWIDTH 17 0
BBX 15 21 1 0
BITMAP
02E02E00
0BF4BF80
0FF4BF80
0BF4BF80
02E02E00
00000000
00000000
006FE400
07FFFE00
1FFFFFC0
2FE07FE0
7FC01FF0
BF800FF4
BF800BF4
BF800BF4
BF800FF4
7FC01FF0
2FE07FE0
1FFFFFC0
07FFFE00
006FE400
ENDCHAR
STARTCHAR uni04E8
ENCODING 1256
SWIDTH 600 0
DWIDTH 17 0
BBX 15 18 1 0
BITMAP
006FE400
07FFFE00
0FFFFF80
2FE47FE0
7FC01FF0
BF800BF4
BF400BF8
FFFFFFF8
FFFFFFF8
FFFFFFF8
FF4007F8
BF400BF4
7F800FF4
3FC01FF0
2FF47FD0
0FFFFF80
03FFFE00
006FE400
ENDCHAR
STARTCHAR uni04E9
ENCODING 1257
SWIDTH 600 0
DWIDTH 17 0
BBX 15 14 1 0
BITMAP
006FE400
07FFFE00
1FFFFFC0
2FD02FE0
7F800BF0
BFFFFFF4
BFFFFFF4
BFFFFFF4
BF400BF4
7F800FF0
2FE06FE0
1FFFFFC0
07FFFE00
006FE400
ENDCHAR
STARTCHAR uni04EE
ENCODING 1262
SWIDTH 600 0
DWIDTH 17 0
BBX 15 23 1 0
BITMAP
02FFFF00
02FFFF00
02FFFF00
00000000
00000000
FF4003FC
BF8007F8
7FC00BF4
2FD00FF0
1FF02FD0
0BF43FC0
07F87F80
02FCBF40
01FDFE00
00FFFD00
007FFC00
003FF800
001FF000
001FE000
003FD000
0BFF8000
0FFE0000
0FE40000
ENDCHAR
STARTCHAR uni04EF
ENCODING 1263
SWIDTH 600 0
DWIDTH 17 0
BBX 15 25 1 -6
BITMAP
02FFFE00
02FFFE00
02FFFE00
00000000
00000000
FF0003F8
7F8007F4
3FC00BF0
2FD00FE0
0FE01FD0
0BF02FC0
07F43F80
02F87F00
01FCBE00
00FDFD00
007FFC00
003FF800
002FF400
001FF000
001FE000
003FC000
00BF8000
2FFF0000
2FFD0000
3FE00000
ENDCHAR
STARTCHAR uni04F2
ENCODING 1266
SWIDTH 600 0
DWIDTH 17 0
BBX 15 25 1 0
BITMAP
000A0280
001FC7F0
007F4FD0
00BD2F40
00741900
00000000
00000000
FF4003FC
BF8007F8
7FC00BF4
2FD00FF0
1FF02FD0
0BF43FC0
07F87F80
02FCBF40
01FDFE00
00FFFD00
007FFC00
003FF800
001FF000
001FE000
003FD000
0BFF8000
0FFE0000
0FE40000
ENDCHAR
STARTCHAR uni04F3
ENCODING 1267
SWIDTH 600 0
DWIDTH 17 0
BBX 15 28 1 -6
BITMAP
000A0280
001FC7F0
002F4BD0
007E1F80
00BC2F00
00641900
00000000
00000000
FF0003F8
7F8007F4
3FC00BF0
2FD00FE0
0FE01FD0
0BF02FC0
07F43F80
02F87F00
01FCBE00
00FDFD00
007FFC00
003FF800
002FF400
001FF000
001FE000
003FC000
00BF8000
2FFF0000
2FFD0000
3FE00000
ENDCHAR
STARTCHAR a.sups
ENCODING 7491
SWIDTH 600 0
DWIDTH 17 0
BBX 9 10 4 10
BITMAP
0BF900
7FFF00
7FFF80
241F80
06FFC0
7FFFC0
BD1FC0
FFFFC0
BFFBC0
2F8BC0
ENDCHAR
STARTCHAR b.sups
ENCODING 7495
SWIDTH 600 0
DWIDTH 17 0
BBX 10 14 4 10
BITMAP
540000
BD0000
BD0000
BD0000
BDBD00
BFFF40
BFFFC0
BE1FD0
BD0BD0
BD0BD0
BD1FD0
BFFFC0
BFFF40
B9B900
ENDCHAR
STARTCHAR d.sups
ENCODING 7496
SWIDTH 600 0
DWIDTH 17 0
BBX 10 14 3 10
BITMAP
000150
0007E0
0007E0
0007E0
06E7E0
1FFFE0
3FFFE0
7F47E0
7E07E0
7E07E0
7F4BE0
3FFFE0
1FFFE0
07E2E0
ENDCHAR
STARTCHAR e.sups
ENCODING 7497
SWIDTH 600 0
DWIDTH 17 0
BBX 9 10 4 10
BITMAP
07F800
2FFF00
BFFF80
FD0BC0
FFFFC0
FFFFC0
FD0500
BFFF00
2FFF40
06F900
ENDCHAR
STARTCHAR g.sups
ENCODING 7501
SWIDTH 600 0
DWIDTH 17 0
BBX 11 13 3 7
BITMAP
06FFF4
1FFFF4
2FFFF4
3F0BC0
2F4BC0
1FFF80
1FF900
2FFF90
1FFFF4
2FFFF8
7D02F4
3FFFE0
1BFE40
ENDCHAR
STARTCHAR k.sups
ENCODING 7503
SWIDTH 600 0
DWIDTH 17 0
BBX 10 14 4 10
BITMAP
7D0000
BD0000
BD0000
BD0000
BD0BD0
BD2F40
BDBE00
BFF800
BFF800
BFFD00
BE2F40
BD1FC0
BD0BE0
140150
ENDCHAR
STARTCHAR m.sups
ENCODING 7504
SWIDTH 600 0
DWIDTH 17 0
BBX 15 10 1 10
BITMAP
B8BD1B80
BEFF7FE0
BFFFFFF0
BE1FD3F4
BD0F82F4
BD0F82F4
BD0F82F4
BD0F82F4
BD0F82F4
BD0F82F4
ENDCHAR
STARTCHAR o.sups
ENCODING 7506
SWIDTH 600 0
DWIDTH 17 0
BBX 10 10 3 10
BITMAP
02FD00
0FFF80
2FFFD0
3F47F0
7E03F0
7E03F0
3F47F0
2FFFD0
0FFF80
02FD00
ENDCHAR
STARTCHAR p.sups
ENCODING 7510
SWIDTH 600 0
DWIDTH 17 0
BBX 10 13 4 7
BITMAP
B8BD00
BFFF40
BFFFC0
BE1FD0
BD0BD0
BD0BD0
BD0BD0
BD1FC0
BFFF80
BEFF40
BDB900
BD0000
BD0000
ENDCHAR
STARTCHAR t.sups
ENCODING 7511
SWIDTH 600 0
DWIDTH 17 0
BBX 9 13 4 10
BITMAP
068000
0BC000
0BC000
BFFF80
BFFF80
BFFF80
0FC000
0FC000
0FC000
0BD000
0BFF80
07FFC0
01BE80
ENDCHAR
STARTCHAR u.sups
ENCODING 7512
SWIDTH 600 0
DWIDTH 17 0
BBX 9 10 4 10
BITMAP
FC0F80
FC0F80
FC0F80
FC0F80
FC0F80
FC0F80
FD2F80
BFFF80
7FEB80
2F8B80
ENDCHAR
STARTCHAR v.sups
ENCODING 7515
SWIDTH 600 0
DWIDTH 17 0
BBX 10 10 3 10
BITMAP
BD02F0
7E03E0
3F07D0
2F4BC0
1F8F80
0FDF40
0BEF00
07FE00
03FD00
02FC00
ENDCHAR
STARTCHAR c.sups
ENCODING 7580
SWIDTH 600 0
DWIDTH 17 0
BBX 9 10 4 10
BITMAP
01BE00
0BFF80
2FFF40
3F8100
7F0000
7F0000
3F8100
2FFF80
0FFF80
02FE00
ENDCHAR
STARTCHAR f.sups
ENCODING 7584
SWIDTH 600 0
DWIDTH 17 0
BBX 9 14 5 10
BITMAP
01BF80
07FFC0
0BFF80
0BD040
FFFF40
FFFF40
FFFF40
0BC000
0BC000
0BC000
0BC000
0BC000
0BC000
0BC000
ENDCHAR
STARTCHAR z.sups
ENCODING 7611
SWIDTH 600 0
DWIDTH 17 0
BBX 9 10 4 10
BITMAP
7FFFC0
7FFFC0
7FFF40
00BD00
01F400
07E000
0F8000
3FFFC0
BFFFC0
BFFFC0
ENDCHAR
STARTCHAR uni1E06
ENCODING 7686
SWIDTH 600 0
DWIDTH 17 0
BBX 14 24 2 -6
BITMAP
FFFFA400
FFFFFE00
FFFFFF40
FF41BF80
FF407FC0
FF407F80
FF41FF40
FFFFFD00
FFFFF800
FFFFFF40
FF407FD0
FF401FE0
FF401FE0
FF402FE0
FF407FD0
FFFFFFC0
FFFFFE00
FFFFE400
00000000
00000000
00000000
0BFFF800
0BFFF800
0BFFF800
ENDCHAR
STARTCHAR uni1E07
ENCODING 7687
SWIDTH 600 0
DWIDTH 17 0
BBX 14 26 2 -6
BITMAP
FF000000
FF000000
FF000000
FF000000
FF000000
FF000000
FF1BE400
FFBFFE00
FFFFFF40
FFD1BFC0
FF407FD0
FF003FD0
FF002FD0
FF002FD0
FF003FD0
FF407FC0
FFD1FF80
FFFFFF00
FEFFFD00
FD2FE000
00000000
00000000
00000000
07FFF800
07FFF800
07FFF800
ENDCHAR
STARTCHAR uni1E0C
ENCODING 7692
SWIDTH 600 0
DWIDTH 17 0
BBX 14 25 2 -7
BITMAP
FFFE4000
FFFFF800
FFFFFE00
FF06FF40
FF00BFC0
FF003FD0
FF002FE0
FF002FE0
FF001FE0
FF001FE0
FF002FE0
FF002FE0
FF003FD0
FF00BFC0
FF06FF40
FFFFFE00
FFFFF800
FFFE4000
00000000
00000000
007E4000
00FFC000
01FFC000
00FFC000
007E4000
ENDCHAR
STARTCHAR uni1E0D
ENCODING 7693
SWIDTH 600 0
DWIDTH 17 0
BBX 14 27 1 -7
BITMAP
00001FE0
00001FE0
00001FE0
00001FE0
00001FE0
00001FE0
01BF5FE0
07FFFFE0
1FFFFFE0
3FE47FE0
7FC01FE0
BF801FE0
BF801FE0
BF801FE0
BF801FE0
7FC02FE0
3FE07FE0
2FFFFFE0
0BFFEFE0
01BE4BE0
00000000
00000000
001BD000
003FF000
003FF400
003FF000
001BD000
ENDCHAR
STARTCHAR uni1E0E
ENCODING 7694
SWIDTH 600 0
DWIDTH 17 0
BBX 14 24 2 -6
BITMAP
FFFE4000
FFFFF800
FFFFFE00
FF06FF40
FF00BFC0
FF003FD0
FF002FE0
FF002FE0
FF001FE0
FF001FE0
FF002FE0
FF002FE0
FF003FD0
FF00BFC0
FF06FF40
FFFFFE00
FFFFF800
FFFE4000
00000000
00000000
00000000
0BFFF800
0BFFF800
0BFFF800
ENDCHAR
STARTCHAR uni1E0F
ENCODING 7695
SWIDTH 600 0
DWIDTH 17 0
BBX 14 26 1 -6
BITMAP
00001FE0
00001FE0
00001FE0
00001FE0
00001FE0
00001FE0
01BF5FE0
07FFFFE0
1FFFFFE0
3FE47FE0
7FC01FE0
BF801FE0
BF801FE0
BF801FE0
BF801FE0
7FC02FE0
3FE07FE0
2FFFFFE0
0BFFEFE0
01BE4BE0
00000000
00000000
00000000
02FFFE00
02FFFE00
02FFFE00
ENDCHAR
STARTCHAR uni1E10
ENCODING 7696
SWIDTH 600 0
DWIDTH 17 0
BBX 14 25 2 -7
BITMAP
FFFE4000
FFFFF800
FFFFFE00
FF06FF40
FF00BFC0
FF003FD0
FF002FE0
FF002FE0
FF001FE0
FF001FE0
FF002FE0
FF002FE0
FF003FD0
FF00BFC0
FF06FF40
FFFFFE00
FFFFF800
FFFE4000
007C0000
00B80000
01FE0000
006F4000
006F8000
03FF0000
03E40000
ENDCHAR
STARTCHAR uni1E11
ENCODING 7697
SWIDTH 600 0
DWIDTH 17 0
BBX 14 27 1 -7
BITMAP
00001FE0
00001FE0
00001FE0
00001FE0
00001FE0
00001FE0
01BF5FE0
07FFFFE0
1FFFFFE0
3FE47FE0
7FC01FE0
BF801FE0
BF801FE0
BF801FE0
BF801FE0
7FC02FE0
3FE07FE0
2FFFFFE0
0BFFEFE0
01BE4BE0
001F0000
003E0000
007F8000
001BD000
001BD000
01FFC000
00F90000
ENDCHAR
STARTCHAR uni1E16
ENCODING 7702
SWIDTH 600 0
DWIDTH 17 0
BBX 13 29 2 0
BITMAP
00009000
0002F400
001FF400
003F8000
00190000
00000000
07FFFD00
07FFFD00
07FFFD00
00000000
00000000
7FFFFF80
7FFFFF80
7FFFFF80
7F800000
7F800000
7F800000
7F800000
7FFFFD00
7FFFFD00
7FFFFD00
7F800000
7F800000
7F800000
7F800000
7F800000
7FFFFFC0
7FFFFFC0
7FFFFFC0
ENDCHAR
STARTCHAR uni1E17
ENCODING 7703
SWIDTH 600 0
DWIDTH 17 0
BBX 15 25 1 0
BITMAP
00002000
0001F800
000BF800
000FD000
00060000
00000000
01FFFF00
01FFFF00
01FFFF00
00000000
00000000
006FE800
02FFFF40
0BFFFFD0
2FE41FE0
3FC00BF0
7FFFFFF4
7FFFFFF4
7FFFFFF4
7FC00000
3FD00000
2FF80680
0BFFFFD0
02FFFFD0
006FF900
ENDCHAR
STARTCHAR uni1E20
ENCODING 7712
SWIDTH 600 0
DWIDTH 17 0
BBX 15 23 1 0
BITMAP
00FFFF40
00FFFF40
00FFFF40
00000000
00000000
001BF900
01FFFFD0
07FFFFD0
1FF90780
2FE00000
7FD00000
7F800000
BF800000
BF80FFF4
BF80FFF4
BF80FFF4
BF8007F4
7FC007F4
3FE007F4
1FF90BF4
0BFFFFF4
01FFFFE0
001BF900
ENDCHAR
STARTCHAR uni1E21
ENCODING 7713
SWIDTH 600 0
DWIDTH 17 0
BBX 15 25 1 -6
BITMAP
02FFFE00
02FFFE00
02FFFE00
00000000
00000000
00BFFFFC
07FFFFFC
1FFFFFFC
2FE0BFFC
3FC03F40
3FC03F80
2FE5BF80
1FFFFF40
07FFFD00
0FEA9000
2F800000
2FFFFE80
1FFFFFF4
0BFFFFF8
2F0007FC
7F0003FC
BF901BF8
7FFFFFF0
2FFFFF80
06BFE400
ENDCHAR
STARTCHAR uni1E24
ENCODING 7716
SWIDTH 600 0
DWIDTH 17 0
BBX 14 25 1 -7
BITMAP
7FC00FF0
7FC00FF0
7FC00FF0
7FC00FF0
7FC00FF0
7FC00FF0
7FC00FF0
7FFFFFF0
7FFFFFF0
7FFFFFF0
7FC00FF0
7FC00FF0
7FC00FF0
7FC00FF0
7FC00FF0
7FC00FF0
7FC00FF0
7FC00FF0
00000000
00000000
001F9000
003FF000
007FF000
003FF000
001F9000
ENDCHAR
STARTCHAR uni1E25
ENCODING 7717
SWIDTH 600 0
DWIDTH 17 0
BBX 13 27 2 -7
BITMAP
FF000000
FF000000
FF000000
FF000000
FF000000
FF000000
FF0BF800
FF7FFF00
FFFFFF80
FFE0BFC0
FF803FC0
FF003FC0
FF003FC0
FF003FC0
FF003FC0
FF003FC0
FF003FC0
FF003FC0
FF003FC0
FF003FC0
00000000
00000000
006F4000
00FFC000
00FFD000
00FFC000
006F4000
ENDCHAR
STARTCHAR uni1E26
ENCODING 7718
SWIDTH 600 0
DWIDTH 17 0
BBX 14 24 1 0
BITMAP
02E02E00
0BF47F40
0BF47F40
02E02E00
00000000
00000000
7FC00FF0
7FC00FF0
7FC00FF0
7FC00FF0
7FC00FF0
7FC00FF0
7FC00FF0
7FFFFFF0
7FFFFFF0
7FFFFFF0
7FC00FF0
7FC00FF0
7FC00FF0
7FC00FF0
7FC00FF0
7FC00FF0
7FC00FF0
7FC00FF0
ENDCHAR
STARTCHAR uni1E27
ENCODING 7719
SWIDTH 600 0
DWIDTH 17 0
BBX 16 26 -1 0
BITMAP
7D07D000
FF0BF000
FF0BF000
7D07D000
00000000
00000000
03FC0000
03FC0000
03FC0000
03FC0000
03FC0000
03FC0000
03FC2FE0
03FDFFFC
03FFFFFE
03FF82FF
03FE00FF
03FC00FF
03FC00FF
03FC00FF
03FC00FF
03FC00FF
03FC00FF
03FC00FF
03FC00FF
03FC00FF
ENDCHAR
STARTCHAR uni1E28
ENCODING 7720
SWIDTH 600 0
DWIDTH 17 0
BBX 15 25 0 -7
BITMAP
1FF003FC
1FF003FC
1FF003FC
1FF003FC
1FF003FC
1FF003FC
1FF003FC
1FFFFFFC
1FFFFFFC
1FFFFFFC
1FF003FC
1FF003FC
1FF003FC
1FF003FC
1FF003FC
1FF003FC
1FF003FC
1FF003FC
07C00000
0B800000
1FE00000
06F40000
06F80000
7FF00000
3E400000
ENDCHAR
STARTCHAR uni1E29
ENCODING 7721
SWIDTH 600 0
DWIDTH 17 0
BBX 14 27 1 -7
BITMAP
3FC00000
3FC00000
3FC00000
3FC00000
3FC00000
3FC00000
3FC2FE00
3FDFFFC0
3FFFFFE0
3FF82FF0
3FE00FF0
3FC00FF0
3FC00FF0
3FC00FF0
3FC00FF0
3FC00FF0
3FC00FF0
3FC00FF0
3FC00FF0
3FC00FF0
0F400000
2F000000
3F800000
0BE00000
0BE00000
FFD00000
BA000000
ENDCHAR
STARTCHAR uni1E2A
ENCODING 7722
SWIDTH 600 0
DWIDTH 17 0
BBX 14 25 1 -7
BITMAP
7FC00FF0
7FC00FF0
7FC00FF0
7FC00FF0
7FC00FF0
7FC00FF0
7FC00FF0
7FFFFFF0
7FFFFFF0
7FFFFFF0
7FC00FF0
7FC00FF0
7FC00FF0
7FC00FF0
7FC00FF0
7FC00FF0
7FC00FF0
7FC00FF0
00000000
00400400
07D02F00
03F47F00
02FFFE00
01FFFC00
002FE000
ENDCHAR
STARTCHAR uni1E2B
ENCODING 7723
SWIDTH 600 0
DWIDTH 17 0
BBX 13 27 2 -7
BITMAP
FF000000
FF000000
FF000000
FF000000
FF000000
FF000000
FF0BF800
FF7FFF00
FFFFFF80
FFE0BFC0
FF803FC0
FF003FC0
FF003FC0
FF003FC0
FF003FC0
FF003FC0
FF003FC0
FF003FC0
FF003FC0
FF003FC0
00000000
01001000
0F807D00
0FD1FC00
0BFFF800
03FFF400
00BF9000
ENDCHAR
STARTCHAR uni1E32
ENCODING 7730
SWIDTH 600 0
DWIDTH 17 0
BBX 15 25 2 -7
BITMAP
FF002FE0
FF00BFC0
FF01FF40
FF03FD00
FF0BF800
FF1FF000
FF7FD000
FFFFC000
FFFFD000
FFFFF000
FFFBF400
FFD7FC00
FF82FE00
FF01FF00
FF00BF80
FF007FD0
FF002FE0
FF001FF4
00000000
00000000
002F8000
007FE000
00BFE000
007FE000
002F8000
ENDCHAR
STARTCHAR uni1E33
ENCODING 7731
SWIDTH 600 0
DWIDTH 17 0
BBX 14 27 2 -7
BITMAP
FF400000
FF400000
FF400000
FF400000
FF400000
FF400000
FF403FD0
FF40FF80
FF42FE00
FF4BF800
FF6FE000
FFBFC000
FFFFD000
FFFFF000
FFFBF800
FFD3FD00
FF41FF00
FF40BF80
FF403FD0
FF401FF0
00000000
00000000
002F8000
007FE000
00BFE000
007FE000
002F8000
ENDCHAR
STARTCHAR uni1E34
ENCODING 7732
SWIDTH 600 0
DWIDTH 17 0
BBX 15 24 2 -6
BITMAP
FF002FE0
FF00BFC0
FF01FF40
FF03FD00
FF0BF800
FF1FF000
FF7FD000
FFFFC000
FFFFD000
FFFFF000
FFFBF400
FFD7FC00
FF82FE00
FF01FF00
FF00BF80
FF007FD0
FF002FE0
FF001FF4
00000000
00000000
00000000
03FFFD00
03FFFD00
03FFFD00
ENDCHAR
STARTCHAR uni1E35
ENCODING 7733
SWIDTH 600 0
DWIDTH 17 0
BBX 14 26 2 -6
BITMAP
FF400000
FF400000
FF400000
FF400000
FF400000
FF400000
FF403FD0
FF40FF80
FF42FE00
FF4BF800
FF6FE000
FFBFC000
FFFFD000
FFFFF000
FFFBF800
FFD3FD00
FF41FF00
FF40BF80
FF403FD0
FF401FF0
00000000
00000000
00000000
03FFFD00
03FFFD00
03FFFD00
ENDCHAR
STARTCHAR uni1E36
ENCODING 7734
SWIDTH 600 0
DWIDTH 17 0
BBX 13 25 3 -7
BITMAP
FF000000
FF000000
FF000000
FF000000
FF000000
FF000000
FF000000
FF000000
FF000000
FF000000
FF000000
FF000000
FF000000
FF000000
FF000000
FFFFFF40
FFFFFF40
FFFFFF40
00000000
00000000
007E4000
00FFC000
01FFC000
00FFC000
007E4000
ENDCHAR
STARTCHAR uni1E37
ENCODING 7735
SWIDTH 600 0
DWIDTH 17 0
BBX 14 27 1 -7
BITMAP
BFFFC000
BFFFC000
BFFFC000
007FC000
007FC000
007FC000
007FC000
007FC000
007FC000
007FC000
007FC000
007FC000
007FC000
007FC000
007FC000
003FC000
003FE040
001FFFE0
000BFFF0
0001BFA0
00000000
00000000
0001F800
0007FE00
0007FF00
0007FE00
0001F800
ENDCHAR
STARTCHAR uni1E38
ENCODING 7736
SWIDTH 600 0
DWIDTH 17 0
BBX 15 30 1 -7
BITMAP
BFFF8000
BFFF8000
BFFF8000
00000000
00000000
0FF00000
0FF00000
0FF00000
0FF00000
0FF00000
0FF00000
0FF00000
0FF00000
0FF00000
0FF00000
0FF00000
0FF00000
0FF00000
0FF00000
0FF00000
0FFFFFF4
0FFFFFF4
0FFFFFF4
00000000
00000000
0007E400
000FFC00
001FFC00
000FFC00
0007E400
ENDCHAR
ENDFONT
